<svg xmlns="http://www.w3.org/2000/svg">
<defs>
<font id="LTOksana" horiz-adv-x="899" >
  <font-face 
    font-family="LT Oksana"
    font-weight="400"
    font-stretch="normal"
    units-per-em="2048"
    panose-1="2 11 5 3 4 2 4 2 2 3"
    ascent="1638"
    descent="-410"
    x-height="1072"
    cap-height="1864"
    bbox="-500 -792 2870 2361"
    underline-thickness="150"
    underline-position="-292"
    unicode-range="U+0020-FB06"
  />
<missing-glyph horiz-adv-x="1836" 
d="M944 290q0 24 -6 24h-20v-34h18v10h8zM1482 820q0 22 -6 22h-20v-32h18v10h8zM1104 1268q10 0 16 10q10 14 10 38q-2 24 -10 38q-8 10 -18 10t-16 -10q-10 -12 -10 -38q2 -24 10 -36t18 -12zM1458 930q12 0 18 10q8 12 8 38q0 24 -10 38q-6 10 -16 10q-12 0 -18 -10
q-8 -14 -8 -38t10 -38q6 -10 16 -10zM378 558q12 0 18 10q8 14 8 38t-10 38q-6 10 -16 10q-12 0 -18 -10q-8 -12 -8 -38q0 -24 10 -36q6 -12 16 -12zM754 230q10 14 10 38t-8 38q-8 10 -18 10t-18 -10q-8 -14 -8 -38q0 -26 8 -38q6 -10 16 -10t18 10zM402 810q0 22 -6 22
h-20v-32h18v10h8zM960 290v-40h-24v10h-18v-34q0 -8 14 -8v-18h-62v18q12 0 12 4v92q0 4 -12 4v16h100v-44h-10zM1296 316h-8v18h48v-18q-10 0 -12 -6l-28 -52v-36q0 -4 12 -4v-18h-60v18q12 0 12 4v36l-28 52q-4 6 -12 6v18h56v-18h-8l14 -28zM580 1366h-6v18h46v-18
q-8 0 -12 -6l-26 -54v-36q0 -4 12 -4v-16h-62v16q14 0 14 4v36l-30 54q-4 6 -10 6v18h54v-18h-8l16 -28zM396 1196h-8v18h48v-18q-10 0 -12 -6l-28 -52v-36q0 -4 12 -4v-18h-60v18q12 0 12 4v36l-28 52q-4 6 -12 6v18h56v-18h-8l14 -28zM1498 820v-40h-24v8h-18v-32
q0 -8 14 -8v-18h-62v18q12 0 12 4v90q0 4 -12 4v18h100v-44h-10zM1476 486h-8v18h48v-18q-10 0 -12 -6l-28 -52v-36q0 -4 12 -4v-18h-60v18q12 0 12 4v36l-28 52q-4 6 -12 6v18h56v-18h-8l14 -28zM352 1318v-46q0 -4 18 -4v-18h-56v18q10 0 10 4v82q0 12 -10 12v18h30
l58 -70v48q0 4 -16 4v18h56v-18q-10 0 -10 -4v-112h-20zM698 1384l42 -86l36 86h40v-18q-10 0 -10 -12v-82q0 -4 10 -4v-18h-54v18q8 0 8 2v30l-22 -50h-24l-26 52v-30q0 -4 8 -4v-18h-46v18q8 0 8 4v82q0 12 -8 12v18h38zM1168 1316q0 -28 -16 -48t-48 -20q-34 0 -50 20

<glyph glyph-name=".notdef" horiz-adv-x="1836" 
d="M944 290q0 24 -6 24h-20v-34h18v10h8zM1482 820q0 22 -6 22h-20v-32h18v10h8zM1104 1268q10 0 16 10q10 14 10 38q-2 24 -10 38q-8 10 -18 10t-16 -10q-10 -12 -10 -38q2 -24 10 -36t18 -12zM1458 930q12 0 18 10q8 12 8 38q0 24 -10 38q-6 10 -16 10q-12 0 -18 -10
q-8 -14 -8 -38t10 -38q6 -10 16 -10zM378 558q12 0 18 10q8 14 8 38t-10 38q-6 10 -16 10q-12 0 -18 -10q-8 -12 -8 -38q0 -24 10 -36q6 -12 16 -12zM754 230q10 14 10 38t-8 38q-8 10 -18 10t-18 -10q-8 -14 -8 -38q0 -26 8 -38q6 -10 16 -10t18 10zM402 810q0 22 -6 22
h-20v-32h18v10h8zM960 290v-40h-24v10h-18v-34q0 -8 14 -8v-18h-62v18q12 0 12 4v92q0 4 -12 4v16h100v-44h-10zM1296 316h-8v18h48v-18q-10 0 -12 -6l-28 -52v-36q0 -4 12 -4v-18h-60v18q12 0 12 4v36l-28 52q-4 6 -12 6v18h56v-18h-8l14 -28zM580 1366h-6v18h46v-18
q-8 0 -12 -6l-26 -54v-36q0 -4 12 -4v-16h-62v16q14 0 14 4v36l-30 54q-4 6 -10 6v18h54v-18h-8l16 -28zM396 1196h-8v18h48v-18q-10 0 -12 -6l-28 -52v-36q0 -4 12 -4v-18h-60v18q12 0 12 4v36l-28 52q-4 6 -12 6v18h56v-18h-8l14 -28zM1498 820v-40h-24v8h-18v-32
q0 -8 14 -8v-18h-62v18q12 0 12 4v90q0 4 -12 4v18h100v-44h-10zM1476 486h-8v18h48v-18q-10 0 -12 -6l-28 -52v-36q0 -4 12 -4v-18h-60v18q12 0 12 4v36l-28 52q-4 6 -12 6v18h56v-18h-8l14 -28zM352 1318v-46q0 -4 18 -4v-18h-56v18q10 0 10 4v82q0 12 -10 12v18h30
l58 -70v48q0 4 -16 4v18h56v-18q-10 0 -10 -4v-112h-20zM698 1384l42 -86l36 86h40v-18q-10 0 -10 -12v-82q0 -4 10 -4v-18h-54v18q8 0 8 2v30l-22 -50h-24l-26 52v-30q0 -4 8 -4v-18h-46v18q8 0 8 4v82q0 12 -8 12v18h38zM1168 1316q0 -28 -16 -48t-48 -20q-34 0 -50 20
t-16 48q0 30 16 48q16 20 48 20q34 0 50 -20q16 -18 16 -48zM1252 1318v-46q0 -4 18 -4v-18h-56v18q8 0 8 4v82q0 12 -8 12v18h30l58 -70v48q0 4 -16 4v18h54v-18q-8 0 -8 -4v-112h-22zM1512 1384v-44h-26q0 22 -6 22h-4v-90q0 -4 12 -4v-18h-60v18q12 0 12 4v90h-4
q-6 0 -6 -22h-26v44h108zM918 1308v-32q0 -8 14 -8v-18h-62v18q12 0 12 4v90q0 4 -12 4v18h100v-44h-26q0 22 -6 22h-20v-32h18v8h24v-38h-24v8h-18zM1432 268v-46q0 -4 18 -4v-18h-56v18q10 0 10 4v82q0 12 -10 12v18h30l58 -70v48q0 4 -16 4v18h56v-18q-10 0 -10 -4v-112
h-20zM1418 684l42 -86l36 86h40v-18q-8 0 -8 -12v-82q0 -4 8 -4v-18h-54v18q10 0 10 2v28l-24 -48h-24l-26 52v-30q0 -4 8 -4v-18h-46v18q8 0 8 4v82q0 12 -8 12v18h38zM1522 976q0 -28 -14 -46q-16 -20 -50 -20t-48 18q-16 20 -16 48q0 32 14 50q16 20 48 20q36 0 52 -20
q14 -18 14 -50zM1432 1158v-46q0 -4 18 -4v-18h-56v18q10 0 10 4v82q0 12 -10 12v18h30l58 -70v48q0 4 -16 4v18h56v-18q-10 0 -10 -4v-112h-20zM432 336v-44h-26q0 22 -6 22h-4v-90q0 -4 12 -4v-18h-60v18q12 0 12 4v90h-4q-6 0 -6 -22h-26v44h108zM338 1034l42 -84l36 84
h40v-16q-8 0 -8 -14v-82q0 -4 8 -4v-18h-54v18q10 0 10 4v28l-24 -50h-24l-26 52v-30q0 -4 8 -4v-18h-46v18q8 0 8 4v82q0 14 -8 14v16h38zM442 606q0 -30 -14 -48q-16 -20 -50 -20t-48 20q-16 18 -16 48t14 48q16 20 48 20q36 0 52 -20q14 -18 14 -48zM352 428v-46
q0 -4 18 -4v-18h-56v18q10 0 10 4v82q0 12 -10 12v18h30l58 -70v48q0 4 -16 4v18h56v-18q-10 0 -10 -4v-112h-20zM1062 334l42 -84l38 84h38v-16q-8 0 -8 -14v-82q0 -4 8 -4v-18h-52v18q8 0 8 4v28l-22 -50h-24l-26 52v-30q0 -4 8 -4v-18h-46v18q8 0 8 4v82q0 14 -8 14v16
h36zM688 316q16 20 50 20q32 0 50 -20q14 -18 14 -50q0 -28 -16 -48q-16 -18 -50 -18q-32 0 -48 20q-16 18 -16 46q0 32 16 50zM538 268v-46q0 -4 18 -4v-18h-56v18q8 0 8 4v82q0 14 -8 14v16h30l58 -70v50q0 4 -18 4v16h56v-16q-10 0 -10 -4v-114h-20zM418 810v-40h-24v8
h-18v-32q0 -8 14 -8v-18h-62v18q12 0 12 4v90q0 4 -12 4v18h100v-44h-10z" />
    <glyph glyph-name="space" unicode=" " horiz-adv-x="508" 
 />
    <glyph glyph-name="space" unicode="&#xa0;" horiz-adv-x="508" 
 />
    <glyph glyph-name="exclam" unicode="!" horiz-adv-x="378" 
d="M257 1864v-1544h-136v1544h136zM189 228q29 0 56 -14.5t42.5 -42t15.5 -57.5t-15 -57t-42 -42t-57 -15t-57 15t-42 42t-15 57t15.5 57.5t42.5 42t56 14.5z" />
    <glyph glyph-name="quotedbl" unicode="&#x22;" horiz-adv-x="610" 
d="M100 1276v588h130v-588h-130zM380 1276v588h130v-588h-130z" />
    <glyph glyph-name="numbersign" unicode="#" horiz-adv-x="1200" 
d="M469 1182h263v288h130v-288h288v-130h-288v-263h288v-130h-288v-289h-130v289h-263v-289h-130v289h-289v130h289v263h-289v130h289v288h130v-288zM732 1052h-263v-263h263v263z" />
    <glyph glyph-name="dollar" unicode="$" horiz-adv-x="786" 
d="M328 1471v214h130v-203q32 -4 65 -15q65 -23 111 -66q42 -38 69 -94q33 -66 33 -134q0 -34 -15 -94l-133 48q6 31 6 46q0 42 -20 81q-32 65 -100 89q-28 10 -56 10q-37 0 -74 -18q-66 -32 -90 -103q-10 -31 -10 -61q0 -40 18 -77l389 -647q32 -65 32 -133q0 -50 -18 -102
q-42 -121 -159 -178q-24 -12 -48 -20v-213h-130v202q-33 4 -66 15q-65 23 -111 66q-42 38 -69 94q-32 66 -32 135q0 33 14 93l133 -48q-5 -31 -5 -46q0 -42 19 -81q32 -65 100 -89q28 -9 56 -9q37 0 74 17q66 32 90 103q11 31 11 61q0 40 -19 77l-389 647q-32 65 -32 133
q0 50 18 102q42 121 159 178q24 12 49 20z" />
    <glyph glyph-name="percent" unicode="%" horiz-adv-x="2045" 
d="M1551 1885l148 -31l-1206 -1892l-147 30zM477 1603q-114 0 -195 -81t-81 -193q0 -117 81 -197t195 -80q115 0 196 80t81 197q0 112 -81 193t-196 81zM853 1476q27 -68 27 -148q0 -167 -118 -285t-284 -118q-167 0 -285 118t-118 285q0 166 118 284t285 118q68 0 128 -19
q86 -29 157 -98q61 -62 90 -137zM1567 833q-114 0 -195 -81t-81 -193q0 -117 81 -197t195 -80q115 0 196 80t81 197q0 112 -81 193t-196 81zM1943 706q27 -68 27 -148q0 -167 -118 -285t-284 -118q-167 0 -285 118t-118 285q0 166 118 284t285 118q68 0 128 -19
q86 -29 157 -98q61 -62 90 -137z" />
    <glyph glyph-name="ampersand" unicode="&#x26;" horiz-adv-x="1404" 
d="M1123 787q52 -108 52 -237q0 -228 -161 -389t-389 -161q-227 0 -388.5 161t-161.5 389q0 227 162 389q80 80 176 120q-39 25 -73 59q-118 118 -118 285q0 166 118 284t285 118q68 0 128 -19q86 -29 157 -98q61 -62 90 -137q27 -68 27 -148q0 -145 -89 -254l-89 92
q52 70 52 163q0 112 -81 193t-196 81q-114 0 -195 -81t-81 -193q0 -117 81 -197q76 -75 182 -80v-157q-165 -5 -283 -123q-124 -124 -124 -297q0 -174 123.5 -297t296.5 -123q175 0 298 123t123 297q0 111 -51 203q-61 -2 -108 -21q-86 -37 -121 -124q-12 -29 -16 -57h-126
q5 52 26 105q55 134 189 190q32 14 63 21q-1 0 -2 1q22 5 44 7q14 2 28 2q41 1 82 15q6 2 13 5q86 37 122 124q11 28 15 55h126q-5 -51 -26 -102q-53 -130 -180 -187z" />
    <glyph glyph-name="quotesingle" unicode="'" horiz-adv-x="280" 
d="M75 1276v588h130v-588h-130z" />
    <glyph glyph-name="parenleft" unicode="(" horiz-adv-x="528" 
d="M212 -421q1 -70 51.5 -135t189.5 -84v-140h-15q-181 20 -272 126q-90 105 -90 250v1892q0 145 90 250q91 106 272 126h15v-140q-139 -19 -189.5 -84t-51.5 -135v-1926z" />
    <glyph glyph-name="parenright" unicode=")" horiz-adv-x="528" 
d="M317 1505q-1 70 -51.5 135t-189.5 84v140h15q181 -20 272 -126q90 -105 90 -250v-1892q0 -145 -90 -250q-91 -106 -272 -126h-15v140q139 19 189.5 84t51.5 135v1926z" />
    <glyph glyph-name="asterisk" unicode="*" horiz-adv-x="938" 
d="M537 1634l163 163l96 -96l-163 -163h230v-136h-230l163 -163l-96 -96l-163 163v-230h-136v230l-163 -163l-96 96l163 163h-230v136h230l-163 163l96 96l163 -163v230h136v-230z" />
    <glyph glyph-name="plus" unicode="+" horiz-adv-x="1200" 
d="M665 799h412v-130h-412v-412h-130v412h-413v130h413v413h130v-413z" />
    <glyph glyph-name="comma" unicode="," horiz-adv-x="277" 
d="M71 200h131q-3 -237 -211 -424l-68 120q148 145 148 304z" />
    <glyph glyph-name="hyphen" unicode="-" horiz-adv-x="825" 
d="M75 736h675v-130h-675v130z" />
    <glyph glyph-name="hyphen" unicode="&#xad;" horiz-adv-x="825" 
d="M75 736h675v-130h-675v130z" />
    <glyph glyph-name="period" unicode="." horiz-adv-x="378" 
d="M189 228q29 0 56 -14.5t42.5 -42t15.5 -57.5t-15 -57t-42 -42t-57 -15t-57 15t-42 42t-15 57t15.5 57.5t42.5 42t56 14.5z" />
    <glyph glyph-name="slash" unicode="/" horiz-adv-x="1022" 
d="M1022 1874l-904 -1939l-118 55l904 1939z" />
    <glyph glyph-name="zero" unicode="0" horiz-adv-x="1200" 
d="M1002 1094v-691q0 -167 -118 -285t-284 -118q-167 0 -285 118t-118 285v691q0 166 118 284t285 118q68 0 128 -19q86 -29 157 -98q61 -62 90 -137q27 -68 27 -148zM875 1094v3q0 111 -80 191q-81 81 -196 81q-114 0 -195 -81q-80 -80 -80 -191v-3l-1 -690q0 -117 81 -197
t195 -80q115 0 196 80t81 197z" />
    <glyph glyph-name="one" unicode="1" horiz-adv-x="1200" 
d="M604 1050h-144l280 481v-1531h-136v1050z" />
    <glyph glyph-name="two" unicode="2" horiz-adv-x="1200" 
d="M841 840l-407 -704h568v-136h-804l493 854q103 198 103 241q1 12 1 24q0 97 -72 169q-82 81 -196 81t-195 -81q-17 -17 -30 -35l-91 91q14 17 31 34q118 118 285 118q68 0 128 -19q87 -29 157 -98q62 -62 90 -137q5 -12 9 -24q19 -58 19 -124q-10 -131 -89 -254z" />
    <glyph glyph-name="three" unicode="3" horiz-adv-x="1200" 
d="M569 1065l170 295h-285v136h521l-260 -452q130 -36 233 -139q160 -161 160 -387q0 -227 -160 -387t-387 -160q-220 0 -378 152l-8 8q-50 50 -84 104l96 96q24 -49 63 -91q8 -9 16 -17q122 -122 295 -122t295.5 122t122.5 295q0 172 -122 295q-91 90 -210 114q-41 8 -86 8
q-36 0 -70 -5z" />
    <glyph glyph-name="four" unicode="4" horiz-adv-x="1200" 
d="M739 320h-574l710 1231v-1095h159v-136h-159v-320h-136v320zM739 1042l-338 -586h338v586z" />
    <glyph glyph-name="five" unicode="5" horiz-adv-x="1200" 
d="M540 1496h374v-136h-287l-176 -306q53 11 111 11q227 0 387 -160.5t160 -386.5q0 -227 -160 -387t-387 -160q-226 0 -386 160q-51 51 -86 108l99 90q29 -57 78 -106q122 -122 295 -122t295.5 122t122.5 295q0 172 -122.5 294.5t-295.5 122.5q-107 0 -193 -46l-113 103z
" />
    <glyph glyph-name="six" unicode="6" horiz-adv-x="1200" 
d="M400 593l-30 -35q-47 -68 -47 -157q0 -112 81.5 -193t195.5 -81t195.5 81t81.5 193q0 117 -81.5 197t-195.5 80t-195 -80q-3 -2 -5 -5zM261 621l-2 1l506 874h156l-404 -699q40 8 83 8q167 0 285 -118t118 -285q0 -166 -118 -284t-285 -118q-68 0 -128 19q-87 29 -157 98
q-62 62 -90 137q-28 68 -28 148q0 123 64 219z" />
    <glyph glyph-name="seven" unicode="7" horiz-adv-x="1200" 
d="M874 1360h-555v136h791l-863 -1496h-158z" />
    <glyph glyph-name="eight" unicode="8" horiz-adv-x="1200" 
d="M599 1369q-114 0 -195 -81t-81 -193q0 -117 81 -197t195 -80q115 0 196 80t81 197q0 112 -81 193t-196 81zM599 678q-114 0 -195 -81t-81 -193q0 -117 81 -197t195 -80q115 0 196 80t81 197q0 112 -81 193t-196 81zM392 748q-41 25 -77 61q-118 118 -118 285
q0 166 118 284t285 118q68 0 128 -19q86 -29 157 -98q61 -62 90 -137q27 -68 27 -148q0 -167 -118 -285q-36 -36 -76 -61q41 -25 77 -60q61 -62 90 -137q27 -68 27 -148q0 -167 -118 -285t-284 -118q-167 0 -285 118t-118 285q0 166 118 284q36 36 77 61z" />
    <glyph glyph-name="nine" unicode="9" horiz-adv-x="1200" 
d="M800 903l30 35q47 68 47 157q0 112 -81.5 193t-195.5 81t-195.5 -81t-81.5 -193q0 -117 81.5 -197t195.5 -80t196 80q2 2 4 5zM939 875l2 -1l-506 -874h-156l404 699q-40 -8 -83 -8q-167 0 -285 118t-118 285q0 166 118 284t285 118q68 0 128 -19q87 -29 157 -98
q62 -62 90 -137q28 -68 28 -148q0 -123 -64 -219z" />
    <glyph glyph-name="colon" unicode=":" horiz-adv-x="378" 
d="M189 228q29 0 56 -14.5t42.5 -42t15.5 -57.5t-15 -57t-42 -42t-57 -15t-57 15t-42 42t-15 57t15.5 57.5t42.5 42t56 14.5zM189 736q29 0 56 -14.5t42.5 -42t15.5 -57.5t-15 -57t-42 -42t-57 -15t-57 15t-42 42t-15 57t15.5 57.5t42.5 42t56 14.5z" />
    <glyph glyph-name="semicolon" unicode=";" horiz-adv-x="446" 
d="M249 736q29 0 56 -14.5t42.5 -42t15.5 -57.5t-15 -57t-42 -42t-57 -15t-57 15t-42 42t-15 57t15.5 57.5t42.5 42t56 14.5zM208 8q-8 3 -16 7q-27 15 -42 42t-15 57t15.5 57.5t42.5 42t56 14.5t56 -14.5t46.5 -49t19.5 -85.5q-25 -212 -228 -395l-68 120q101 99 133 204z
" />
    <glyph glyph-name="semicolon" unicode="&#x37e;" horiz-adv-x="446" 
d="M249 736q29 0 56 -14.5t42.5 -42t15.5 -57.5t-15 -57t-42 -42t-57 -15t-57 15t-42 42t-15 57t15.5 57.5t42.5 42t56 14.5zM208 8q-8 3 -16 7q-27 15 -42 42t-15 57t15.5 57.5t42.5 42t56 14.5t56 -14.5t46.5 -49t19.5 -85.5q-25 -212 -228 -395l-68 120q101 99 133 204z
" />
    <glyph glyph-name="less" unicode="&#x3c;" horiz-adv-x="1200" 
d="M1100 279l-1000 466l1000 466v-144l-692 -322l692 -323v-143z" />
    <glyph glyph-name="equal" unicode="=" horiz-adv-x="1200" 
d="M1077 929v-130h-955v130h955zM1077 669v-130h-955v130h955z" />
    <glyph glyph-name="greater" unicode="&#x3e;" horiz-adv-x="1200" 
d="M100 422l692 323l-692 322v144l1000 -466l-1000 -466v143z" />
    <glyph glyph-name="question" unicode="?" horiz-adv-x="1114" 
d="M574 237q29 0 56 -14.5t43 -42t16 -58.5q0 -30 -15.5 -58t-42.5 -43t-57 -15q-31 0 -58.5 15t-43 43t-15.5 58q0 31 16 58.5t43 42t58 14.5zM855 1245q33 68 33 140q0 54 -18 110q-45 129 -168 189q-70 34 -143 34q-54 0 -108 -19q-130 -44 -190 -165q-34 -71 -34 -145
q0 -28 5 -57l-144 -52q-13 55 -13 107q0 108 52 212q41 86 105 144q70 66 168 101q81 26 159 26q30 0 61 -4q75 -11 148 -46q178 -87 243 -275q28 -82 28 -160q0 -106 -49 -206l-345 -569q-29 -57 -29 -107q0 -54 36 -98l-98 -99q-81 66 -81 175q0 107 78 252z" />
    <glyph glyph-name="at" unicode="@" horiz-adv-x="1162" 
d="M1021 593l10 116q-10 59 -57 106q-65 66 -165 66t-177.5 -66.5t-86.5 -162.5q-1 -10 -1 -21q0 -83 59 -142q66 -66 166 -66t179 67q53 45 73 103zM1074 1200q3 31 3 59q0 304 -318 304q-416 0 -469 -606h-2l-38 -435h2q-4 -63 -4 -119q0 -267 87 -367q113 -128 294 -131
h10q181 3 316 131l78 -107q-172 -151 -404 -156h-14q-233 5 -380 160q-119 126 -119 443q0 49 3 102h-2l46 525h3q60 690 604 690q427 0 427 -399q0 -36 -3 -74l-80 -915h-118l6 70q-85 -70 -243 -70q-159 0 -260 103q-91 91 -91 214q0 15 1 30q13 142 132 244t278 102
q158 0 231 -69z" />
    <glyph glyph-name="A" unicode="A" horiz-adv-x="1361" 
d="M379 601l-210 -601h-149l660 1884l661 -1884h-149l-211 601h-602zM934 736l-254 724l-253 -724h507z" />
    <glyph glyph-name="B" unicode="B" horiz-adv-x="1455" 
d="M261 1128v-992h520q183 11 316 144q145 146 145 350q0 205 -145 350q-142 142 -342 145v3h-494zM658 1263q83 14 135 65q70 69 70 179q-5 221 -248 221h-354v-465h397zM660 1863q152 -9 241.5 -105.5t89.5 -246.5q0 -160 -103 -267q171 -37 303 -169q184 -184 184 -445
q0 -260 -184 -445q-171 -171 -409 -183v-2h-657v1864h535v-1z" />
    <glyph glyph-name="C" unicode="C" horiz-adv-x="2018" 
d="M1973 736q-74 -333 -344 -545q-256 -200 -570 -200q-63 0 -128 8q-389 49 -630 358q-201 259 -201 570q0 62 8 127q48 386 358 627q257 200 571 200q63 0 128 -8q183 -23 342 -109l-111 -108q-119 56 -250 72q-55 7 -108 7q-265 0 -482 -169q-262 -204 -302 -531
q-7 -54 -7 -107q0 -264 170 -481q203 -261 531 -303q55 -7 109 -7q265 0 482 169q216 169 283 430h151z" />
    <glyph glyph-name="D" unicode="D" horiz-adv-x="1286" 
d="M236 1725v-1587q332 0 557 233t225 563q0 328 -218 566q-208 226 -531 226q-16 0 -33 -1zM100 5l2 1864h168q402 -27 633 -269q253 -279 253 -666q0 -389 -257 -660q-234 -234 -600 -269h-199z" />
    <glyph glyph-name="E" unicode="E" horiz-adv-x="1174" 
d="M1124 1864v-136h-888v-991h275v-136h-275v-465h888v-136h-1024v1864h1024z" />
    <glyph glyph-name="F" unicode="F" horiz-adv-x="796" 
d="M286 601v-601h-136v1864h666v-136h-530v-991h275v-136h-275z" />
    <glyph glyph-name="G" unicode="G" horiz-adv-x="2043" 
d="M1993 736q-74 -333 -344 -545q-256 -200 -570 -200q-63 0 -128 8q-389 49 -630 358q-201 259 -201 570q0 62 8 127q48 386 358 627q257 200 571 200q63 0 128 -8q183 -23 343 -109l-111 -108q-120 56 -251 72q-55 7 -108 7q-264 0 -482 -169q-261 -204 -302 -531
q-7 -54 -7 -107q0 -264 170 -481q203 -261 531 -303q56 -7 109 -7q266 0 482 169q157 123 235 294h-486v136h685z" />
    <glyph glyph-name="H" unicode="H" horiz-adv-x="1274" 
d="M1149 0h-136v601h-752v-601h-136v1864h136v-1127h752v1127h136v-1864z" />
    <glyph glyph-name="I" unicode="I" horiz-adv-x="386" 
d="M125 0v1864h136v-1864h-136z" />
    <glyph glyph-name="J" unicode="J" horiz-adv-x="524" 
d="M-190 -152q36 -27 78 -38q40 -11 78 -11q71 0 136 39q99 60 99 218v1808h138v-1814q0 -214 -142 -314q-100 -71 -223 -71q-52 0 -107 12q-71 16 -127 52z" />
    <glyph glyph-name="K" unicode="K" horiz-adv-x="1615" 
d="M810 925l-534 -925h-136v1864h136v-1591l919 1591h157l-470 -815q232 -68 416 -251q292 -293 292 -705v-93h-137v93q0 353 -251 606q-171 171 -392 226z" />
    <glyph glyph-name="L" unicode="L" horiz-adv-x="836" 
d="M306 136h530v-136h-666v1864h136v-1728z" />
    <glyph glyph-name="M" unicode="M" horiz-adv-x="1801" 
d="M1671 1864v-1864h-136v1459l-621 -1076l-648 1076v-1459h-136v1864h60l724 -1209l699 1209h58z" />
    <glyph glyph-name="N" unicode="N" horiz-adv-x="1284" 
d="M1096 0l-830 1437v-1437h-136v1853h53l835 -1447v1458h136v-1864h-58z" />
    <glyph glyph-name="O" unicode="O" horiz-adv-x="2194" 
d="M1097 1785q-350 0 -599.5 -250t-249.5 -599q0 -351 249.5 -600t599.5 -249q353 0 602 249t249 600q0 349 -249 599t-602 250zM2094 936q0 -413 -292 -705t-705 -292q-411 0 -704 292t-293 705q0 412 293 704.5t704 292.5q413 0 705 -292.5t292 -704.5z" />
    <glyph glyph-name="P" unicode="P" horiz-adv-x="1415" 
d="M750 736v3q200 3 342 145q145 145 145 350q0 204 -145 350q-133 133 -316 144h-520v-992h494zM777 606v-5h-521v-601h-136v1864h657v-2q238 -12 409 -183q184 -185 184 -445q0 -261 -184 -445q-171 -171 -409 -183z" />
    <glyph glyph-name="Q" unicode="Q" horiz-adv-x="2244" 
d="M1339 -39q-104 -22 -217 -22q-204 0 -378 72q-88 36 -168 89q-83 56 -158 131q-293 292 -293 705q0 412 293 704.5t704 292.5q413 0 705 -292.5t292 -704.5q0 -413 -292 -705q-112 -112 -242 -181q-40 -21 -82 -38q15 -11 30 -19q52 -29 120 -29q44 0 94 12
q126 29 194 133q12 18 21 37l115 -87l-12 -18q-98 -152 -283 -195q-59 -14 -116 -14q-101 0 -195 43q-19 9 -38 19q-58 32 -94 67zM1252 87q-9 13 -17 24q-31 40 -93 74q-76 41 -157 41q-40 0 -82 -10q-79 -18 -134 -64q6 -3 13 -6q156 -68 340 -68q62 0 120 8q5 1 10 1z
M642 224q89 92 226 123q59 14 116 14q101 0 195 -43q19 -9 38 -19q98 -54 164 -156q8 -12 16 -23q19 7 39 14q162 63 295 196q251 251 251 606q0 353 -251.5 605.5t-608.5 252.5q-354 0 -606 -252.5t-252 -605.5q0 -355 252 -606q60 -60 126 -106z" />
    <glyph glyph-name="R" unicode="R" horiz-adv-x="1425" 
d="M730 736v3q200 3 342 145q145 145 145 350q0 204 -145 350q-133 133 -316 144h-520v-992h494zM801 610q-22 -3 -44 -4v-5h-521v-601h-136v1864h657v-2q238 -12 409 -183q184 -185 184 -445q0 -261 -184 -445q-101 -101 -226 -147l370 -642h-157z" />
    <glyph glyph-name="S" unicode="S" horiz-adv-x="1029" 
d="M925 1683q-81 78 -182 78h-10q-113 -5 -190.5 -86t-77.5 -192q0 -41 28 -173l187 -754q27 -127 28 -168q-2 -170 -122.5 -295.5t-290.5 -132.5h-18q-158 0 -277 116l103 106q80 -78 182 -78h10q113 5 190 86t78 192q-1 39 -27 165q-216 816 -216 930q1 170 121.5 295.5
t290.5 132.5h18q159 0 279 -116z" />
    <glyph glyph-name="T" unicode="T" horiz-adv-x="768" 
d="M452 1728v-1728h-136v1728h-266v136h668v-136h-266z" />
    <glyph glyph-name="U" unicode="U" horiz-adv-x="1383" 
d="M1147 1864h136v-1333h-2q-12 -238 -163 -409q-185 -166 -382 -166h-86q-198 0 -382 166q-151 171 -168 409v1333h135v-1306q6 -200 128 -342q145 -127 290 -127h80q144 0 290 127q113 133 124 316v1332z" />
    <glyph glyph-name="V" unicode="V" horiz-adv-x="1341" 
d="M1331 1864l-661 -1884l-660 1884h149l511 -1460l512 1460h149z" />
    <glyph glyph-name="W" unicode="W" horiz-adv-x="2375" 
d="M2365 1864l-877 -1884l-299 642l-299 -642l-880 1884h151l728 -1562l225 481l-505 1081h151l728 -1562l727 1562h150z" />
    <glyph glyph-name="X" unicode="X" horiz-adv-x="1609" 
d="M376 0l350 607l-726 1257h157l648 -1120l647 1120h157l-726 -1257l351 -607h-157l-272 470l-272 -470h-157z" />
    <glyph glyph-name="Y" unicode="Y" horiz-adv-x="1609" 
d="M737 607l-737 1257h157l648 -1120l647 1120h157l-736 -1257l-1 -607h-135v607z" />
    <glyph glyph-name="Z" unicode="Z" horiz-adv-x="1306" 
d="M1002 1728h-927v136h1155l-929 -1727h930v-136h-1156v4z" />
    <glyph glyph-name="bracketleft" unicode="[" horiz-adv-x="528" 
d="M75 1864h378v-136h-242v-2372h242v-136h-378v2644z" />
    <glyph glyph-name="backslash" unicode="\" horiz-adv-x="1022" 
d="M118 1929l904 -1939l-118 -55l-904 1939z" />
    <glyph glyph-name="bracketright" unicode="]" horiz-adv-x="528" 
d="M453 -780h-378v136h242v2372h-242v136h378v-2644z" />
    <glyph glyph-name="asciicircum" unicode="^" horiz-adv-x="881" 
d="M617 1543l-175 148l-178 -148h-189l367 322l364 -322h-189z" />
    <glyph glyph-name="underscore" unicode="_" horiz-adv-x="1030" 
d="M-50 -75h1130v-130h-1130v130z" />
    <glyph glyph-name="grave" unicode="`" horiz-adv-x="520" 
d="M351 1187l-276 276l93 93l277 -275z" />
    <glyph glyph-name="a" unicode="a" horiz-adv-x="1305" 
d="M1029 444v199q-26 109 -111 194q-121 122 -294 122q-171 0 -293 -121.5t-122 -293.5t122 -293.5t293 -121.5q173 0 294 121q85 85 111 194zM1029 907v165h136v-1072h-136v181l-20 -22q-160 -159 -385 -159t-384.5 159.5t-159.5 384.5t159.5 384.5t384.5 159.5t385 -159z
" />
    <glyph glyph-name="b" unicode="b" horiz-adv-x="1327" 
d="M372 250q121 -121 294 -121q171 0 293 121.5t122 293.5t-122 293.5t-293 121.5q-173 0 -294 -122q-85 -85 -111 -194v-199q26 -109 111 -194zM281 929q160 159 385 159t384.5 -159.5t159.5 -384.5t-159.5 -384.5t-384.5 -159.5t-385 159l-20 22v-181h-136v1864h136v-957z
" />
    <glyph glyph-name="c" unicode="c" horiz-adv-x="1299" 
d="M1079 496h140q-16 -202 -162 -348q-162 -163 -394 -163q-231 0 -394.5 163t-163.5 393q0 229 163.5 392.5t394.5 163.5q109 0 207 -38l-96 -113q-55 14 -111 14q-171 0 -294 -123t-123 -296q0 -174 123 -296.5t294 -122.5q172 0 295 123q105 104 121 251z" />
    <glyph glyph-name="d" unicode="d" horiz-adv-x="1335" 
d="M1069 444v199q-26 109 -111 194q-121 122 -294 122q-171 0 -293 -121.5t-122 -293.5t122 -293.5t293 -121.5q173 0 294 121q85 85 111 194zM1069 907v957h136v-1864h-136v181l-20 -22q-160 -159 -385 -159t-384.5 159.5t-159.5 384.5t159.5 384.5t384.5 159.5t385 -159z
" />
    <glyph glyph-name="e" unicode="e" horiz-adv-x="1292" 
d="M1020 736q-27 46 -67 87q-124 123 -298 123q-173 0 -296 -123q-41 -41 -68 -87h729zM1072 465h130q-19 -189 -158 -328q-161 -161 -389 -161q-227 0 -388.5 161t-161.5 389q0 227 161.5 388.5t388.5 161.5q228 0 389 -161q134 -135 156 -314h-959q-6 -37 -6 -75
q0 -174 123.5 -297t296.5 -123q174 0 298 123q101 101 119 236z" />
    <glyph glyph-name="f" unicode="f" horiz-adv-x="580" 
d="M324 1569v-833h180v-135h-180v-601h-138v601h-86v135h86v840q0 149 112 225q80 64 179 64q18 0 37 -2q49 -5 91 -24q61 -28 93 -73l-108 -74q-37 37 -91 43q-10 1 -19 1q-52 0 -95 -34q-61 -50 -61 -133z" />
    <glyph glyph-name="g" unicode="g" horiz-adv-x="1262" 
d="M642 929q-159 0 -272.5 -114t-113.5 -273t113.5 -272.5t272.5 -113.5q161 0 274.5 113.5t113.5 272.5t-113.5 273t-274.5 114zM470 -76l73 114q-147 26 -262 142q-151 150 -151 362q0 213 150.5 363.5t361.5 150.5q214 0 363 -151q14 -13 23 -25l39 52l95 -90l-55 -79
q48 -100 48 -221q0 -212 -150 -362q-132 -132 -310 -148l-29 -45h10q63 0 128 -23q145 -51 212 -190q37 -79 37 -159q0 -62 -23 -126q-51 -145 -191 -211q-79 -37 -160 -37q-62 0 -125 22q-69 25 -139 86l111 64q36 -25 68 -37q41 -15 83 -15q54 0 108 26q95 45 129 143
q16 44 16 87q0 54 -25 106q-45 94 -141 128q-43 15 -85 15q-55 0 -108 -25z" />
    <glyph glyph-name="h" unicode="h" horiz-adv-x="1326" 
d="M261 905q11 13 23 25q154 158 379 158q91 0 172 -26q116 -39 211 -132q83 -83 121 -184q34 -81 34 -187v-559h-136v578q-15 144 -120 249q-117 116 -282 116q-164 0 -280 -116q-114 -114 -121 -271v-556h-137v1864h136v-959z" />
    <glyph glyph-name="i" unicode="i" horiz-adv-x="438" 
d="M287 736v-736h-136v736h136zM219 1076q29 0 56 -14.5t42.5 -42t15.5 -57.5t-15 -57t-42 -42t-57 -15t-57 15t-42 42t-15 57t15.5 57.5t42.5 42t56 14.5z" />
    <glyph glyph-name="j" unicode="j" horiz-adv-x="430" 
d="M216 1076q29 0 56 -14.5t42.5 -42t15.5 -57.5t-15 -57t-42 -42t-57 -15t-57 15t-42 42t-15 57t15.5 57.5t42.5 42t56 14.5zM144 -387v1123h138v-1141q-17 -172 -137 -267q-107 -85 -241 -85q-18 0 -37 2q-65 5 -120 30q-60 25 -117 81l100 86q66 -61 149 -69q11 -1 22 -1
q86 0 156 57q78 64 87 184z" />
    <glyph glyph-name="k" unicode="k" horiz-adv-x="1154" 
d="M540 518l-299 -518h-136v1864h136v-1591l464 803h157l-253 -438q149 -33 264 -148q161 -162 161 -389v-101h-129v101q0 173 -123 297q-103 103 -242 120z" />
    <glyph glyph-name="l" unicode="l" horiz-adv-x="506" 
d="M431 0q-93 3 -169 64q-108 76 -112 225v1575h138v-1528q0 -123 61 -163q38 -30 82 -33v-140z" />
    <glyph glyph-name="m" unicode="m" horiz-adv-x="1866" 
d="M935 885q26 40 62 76q127 127 306 127t306 -127q120 -120 127 -286v-675h-136v675q-6 111 -86 191q-87 86 -211 86q-122 0 -209.5 -86.5t-87.5 -211.5v-654h-141v675q-6 111 -86 191q-87 86 -211 86q-122 0 -209.5 -86.5t-87.5 -211.5v-654h-141v1076h136v-111
q126 123 302 123q179 0 306 -127q36 -36 61 -76z" />
    <glyph glyph-name="n" unicode="n" horiz-adv-x="1281" 
d="M251 905q177 183 402 183q91 0 172 -26q116 -39 211 -132q83 -83 121 -184q34 -81 34 -187v-559h-136v578q-15 144 -120 249q-117 116 -282 116q-164 0 -280 -116q-114 -114 -121 -271v-556h-137v1076h136v-171z" />
    <glyph glyph-name="o" unicode="o" horiz-adv-x="1293" 
d="M647 951q-179 0 -306 -127.5t-127 -305.5q0 -179 127 -306t306 -127q180 0 306.5 127t126.5 306q0 178 -126.5 305.5t-306.5 127.5zM1213 518q0 -235 -165.5 -401t-400.5 -166q-234 0 -400.5 166t-166.5 401q0 234 166.5 400.5t400.5 166.5q235 0 400.5 -166.5
t165.5 -400.5z" />
    <glyph glyph-name="p" unicode="p" horiz-adv-x="1282" 
d="M246 628v-199q26 -109 111 -194q121 -122 294 -122q171 0 293 121.5t122 293.5t-122 293.5t-293 121.5q-173 0 -294 -121q-85 -85 -111 -194zM246 165v-957h-136v1864h136v-181l20 22q160 159 385 159t384.5 -159.5t159.5 -384.5t-159.5 -384.5t-384.5 -159.5t-385 159z
" />
    <glyph glyph-name="q" unicode="q" horiz-adv-x="1260" 
d="M913 822q-121 121 -294 121q-171 0 -293 -121.5t-122 -293.5t122 -293.5t293 -121.5q173 0 294 122q85 85 111 194v199q-26 109 -111 194zM1004 143q-160 -159 -385 -159t-384.5 159.5t-159.5 384.5t159.5 384.5t384.5 159.5t385 -159l20 -22v181h136v-1864h-136v957z
" />
    <glyph glyph-name="r" unicode="r" horiz-adv-x="688" 
d="M286 617l1 -617h-137v1076h136v-173q10 11 21 22q150 150 363 150h20v-127q-10 1 -20 1q-159 0 -273 -113q-94 -94 -111 -219z" />
    <glyph glyph-name="s" unicode="s" horiz-adv-x="631" 
d="M532 860q-58 55 -99 55q-40 -2 -70.5 -34.5t-31.5 -84.5q0 -20 12 -79l92 -388q13 -68 13 -91q-2 -98 -74.5 -174t-186.5 -82q-99 0 -187 85l100 104q57 -55 93 -55q46 2 76.5 34t31.5 80q0 18 -12 79q-106 418 -106 484q2 97 74 173t188 82q98 0 186 -85z" />
    <glyph glyph-name="t" unicode="t" horiz-adv-x="673" 
d="M360 173q43 -34 95 -34q9 0 19 1q54 6 91 43l108 -84q-32 -45 -93 -73q-42 -19 -91 -24q-19 -2 -37 -2q-99 0 -179 64q-95 76 -97 225v312h-86v135h86v1128h138v-1128h180v-135h-180v-305q0 -83 46 -123z" />
    <glyph glyph-name="u" unicode="u" horiz-adv-x="1126" 
d="M266 427q0 -125 87.5 -211.5t209.5 -86.5q124 0 211 87q80 79 86 190v670h136v-670q-7 -166 -127 -286q-127 -127 -306 -127t-306 127q-120 120 -127 286v670h136v-649z" />
    <glyph glyph-name="v" unicode="v" horiz-adv-x="1267" 
d="M1262 1076l-628 -1089l-629 1089h158l471 -816l471 816h157z" />
    <glyph glyph-name="w" unicode="w" horiz-adv-x="1791" 
d="M1786 1076l-628 -1089l-262 454l-262 -454l-629 1089h158l471 -816l183 317l-288 499h158l471 -816l471 816h157z" />
    <glyph glyph-name="x" unicode="x" horiz-adv-x="965" 
d="M157 1072l325 -563l325 563h158l-404 -699l215 -373h-157l-137 237l-137 -237h-157l216 373l-404 699h157z" />
    <glyph glyph-name="y" unicode="y" horiz-adv-x="1286" 
d="M1039 170q-10 -12 -21 -23q-155 -159 -380 -159q-91 0 -172 26q-116 39 -211 132q-83 83 -121 184q-34 81 -34 187v559h136v-578q15 -144 120 -249q117 -116 282 -116q164 0 280 116q114 114 121 271v556h137l-1 -1303q-3 -224 -157.5 -382.5t-379.5 -158.5
q-91 0 -172 26q-116 39 -211 132q-83 83 -121 184q-28 66 -28 183v16h137q8 -175 113 -280q117 -116 282 -116q164 0 280 116q114 114 121 271v406z" />
    <glyph glyph-name="z" unicode="z" horiz-adv-x="950" 
d="M77 1076h798l-550 -944h547l1 -132h-798l550 944h-547z" />
    <glyph glyph-name="braceleft" unicode="{" horiz-adv-x="769" 
d="M317 834v651q0 147 90.5 253t271.5 126h15v-140q-139 -19 -189.5 -84t-51.5 -135v-671q0 -127 -91 -233q-30 -36 -70 -62q40 -25 70 -60q91 -106 91 -228v-672q1 -70 51.5 -135t189.5 -84v-140h-15q-181 20 -271.5 126t-90.5 253v652q-2 65 -52.5 130t-189.5 84v150
q139 19 189.5 84t52.5 135z" />
    <glyph glyph-name="bar" unicode="|" horiz-adv-x="280" 
d="M75 1900h130v-2650h-130v2650z" />
    <glyph glyph-name="braceright" unicode="}" horiz-adv-x="769" 
d="M694 615v-150q-139 -19 -189.5 -84t-52.5 -130v-652q0 -147 -90.5 -253t-271.5 -126h-15v140q139 19 189.5 84t51.5 135v672q0 122 91 228q30 35 70 60q-40 26 -70 62q-91 106 -91 233v671q-1 70 -51.5 135t-189.5 84v140h15q181 -20 271.5 -126t90.5 -253v-651
q2 -70 52.5 -135t189.5 -84z" />
    <glyph glyph-name="asciitilde" unicode="~" horiz-adv-x="1168" 
d="M884 781q6 0 10 1q40 8 64 43q16 24 17 51l118 -44q-9 -39 -33 -75q-52 -77 -142 -94q-14 -3 -28 -4q-9 -1 -19 -1q-81 0 -310.5 47.5t-276.5 47.5q-6 0 -10 -1q-40 -8 -64 -43q-16 -24 -17 -51l-118 44q9 39 33 75q52 77 142 94q14 3 28 4q9 1 19 1q81 0 310.5 -47.5
t276.5 -47.5z" />
    <glyph glyph-name="exclamdown" unicode="&#xa1;" horiz-adv-x="378" 
d="M120.992 -791.951v1543.91h135.992v-1543.91h-135.992zM188.988 843.948q-28.998 0 -55.9961 14.499q-26.999 14.499 -42.498 41.998q-15.499 27.498 -15.499 57.4961t14.999 56.9971q14.999 26.998 41.998 41.9971q26.998 14.999 56.9961 14.999t56.9971 -14.999
q26.998 -14.999 41.9971 -41.9971q14.999 -26.999 14.999 -56.9971t-15.499 -57.4961q-15.499 -27.499 -42.4971 -41.998q-26.999 -14.499 -55.9971 -14.499z" />
    <glyph glyph-name="cent" unicode="&#xa2;" horiz-adv-x="897" 
d="M514 1073q63 17 112 66q63 62 74 165h122q-12 -152 -110 -250q-84 -85 -198 -104v-191h-130v191q-113 18 -199 104q-110 109 -110 263q0 153 110 263q86 86 199 104v190h130v-191q45 -9 94 -28l-83 -97q-6 1 -11 3q-36 8 -66 8q-34 0 -64 -8q-62 -16 -112 -66
q-74 -74 -74 -178q0 -105 74 -178q50 -50 112 -66q30 -8 64 -8q35 0 66 8z" />
    <glyph glyph-name="sterling" unicode="&#xa3;" horiz-adv-x="1307" 
d="M498 547q15 -55 16 -113v-4q0 -125 -60 -226l435 -128q23 -8 50 -8q63 0 108.5 45.5t50.5 127.5h134q0 -140 -86 -226t-207 -86q-71 2 -280 75q-152 42 -263 42q-76 0 -133 -20q-67 -33 -145 -42l-11 56l-16 85q65 6 114.5 37t70.5 52q88 87 88 216v3q0 20 -24 114h-265
v136h229q-27 100 -67 238q-124 345 -127 456v6q0 179 129 311q131 133 320 134l32 1h3q188 0 320 -131q25 -24 45 -50l-129 -78q-11 14 -24 26q-45 46 -98 70l-2 -3q-47 29 -130 29h-24q-56 -4 -106 -28q-53 -25 -98 -71q-88 -90 -88 -215q1 -54 17 -98l180 -597h418v-136
h-377z" />
    <glyph glyph-name="currency" unicode="&#xa4;" horiz-adv-x="1019" 
d="M368 519q63 -38 141 -38t140 37q30 17 56 43t44 55q37 63 37 142q0 77 -39 140q-17 28 -42 53q-27 27 -58 45q-61 36 -138 36t-139 -37q-30 -18 -56 -44t-43 -55q-38 -62 -38 -138q0 -78 36 -140q18 -30 45 -57q25 -25 54 -42zM740 1088l102 102h11l88 -87v-12l-102 -101
q29 -40 46 -85q27 -68 27 -148q0 -131 -72 -232l104 -104v-11l-88 -88h-11l-104 104q-101 -72 -231 -72q-132 0 -233 74l-103 -103h-11l-88 87v12l103 103q-71 100 -71 230t72 230l-101 101v12l88 87h11l101 -101q101 73 232 73q68 0 128 -19q54 -18 102 -52z" />
    <glyph glyph-name="yen" unicode="&#xa5;" horiz-adv-x="1479" 
d="M810 257v-267h-140v267h-481v140h481v180h-481v140h429l-543 1157h159l506 -1094l505 1094h159l-542 -1157h427v-140h-479v-180h479v-140h-479z" />
    <glyph glyph-name="section" unicode="&#xa7;" horiz-adv-x="1350" 
d="M999 2000q179 0 276 -100v-8l-92 -92h-4l-52 24q-45 24 -120 24q-184 0 -248 -204l-4 -52v-20q0 -52 176 -568q132 -365 132 -448v-28q0 -260 -256 -384q-96 -27 -96 -40q-73 -152 -244 -216q-64 -24 -116 -24q-179 0 -276 100v8l92 92h4l52 -24q45 -24 120 -24
q184 0 248 204l4 52v20q0 52 -176 568q-132 365 -132 448v28q0 260 256 384q96 27 96 40q73 152 244 216q64 24 116 24zM439 1344v-20q0 -52 176 -568q132 -365 132 -448v-28q164 75 164 240v20q0 52 -176 568q-132 365 -132 448v28q-164 -75 -164 -240z" />
    <glyph glyph-name="dieresis" unicode="&#xa8;" horiz-adv-x="778" 
d="M189 1412q29 0 56 -14.5t42.5 -42t15.5 -57.5t-15 -57t-42 -42t-57 -15t-57 15t-42 42t-15 57t15.5 57.5t42.5 42t56 14.5zM589 1412q29 0 56 -14.5t42.5 -42t15.5 -57.5t-15 -57t-42 -42t-57 -15t-57 15t-42 42t-15 57t15.5 57.5t42.5 42t56 14.5z" />
    <glyph glyph-name="copyright" unicode="&#xa9;" horiz-adv-x="1473" 
d="M988 637h122q-12 -152 -110 -250q-108 -109 -264 -109q-154 0 -263.5 109t-109.5 263q0 153 109.5 262.5t263.5 109.5q73 0 160 -34l-83 -97q-43 11 -77 11q-102 0 -176 -74t-74 -178q0 -105 74 -178.5t176 -73.5q104 0 178 74q63 62 74 165zM736 1186
q-221 0 -378.5 -157.5t-157.5 -378.5q0 -222 157.5 -379t378.5 -157q223 0 380 157t157 379q0 221 -157 378.5t-380 157.5zM1398 650q0 -274 -193.5 -468t-467.5 -194q-273 0 -467.5 194t-194.5 468q0 273 194.5 467.5t467.5 194.5q274 0 467.5 -194.5t193.5 -467.5z" />
    <glyph glyph-name="ordfeminine" unicode="&#xaa;" 
d="M683 1473v116q-15 59 -66 106q-71 66 -171 66t-172 -66.5t-72 -162.5q0 -97 72 -163t172 -66t173 67q49 45 64 103zM683 1809v59h140v-683h-140v70q-79 -70 -237 -70q-159 0 -269.5 102.5t-110.5 244.5t110.5 244t269.5 102q158 0 237 -69z" />
    <glyph glyph-name="guillemotleft" unicode="&#xab;" horiz-adv-x="755" 
d="M75 190l148 175l-148 178v189l322 -367l-322 -364v189zM358 190l148 175l-148 178v189l322 -367l-322 -364v189z" />
    <glyph glyph-name="logicalnot" unicode="&#xac;" horiz-adv-x="1200" 
d="M970 927v2h130v-530h-130v398h-871v130h871z" />
    <glyph glyph-name="registered" unicode="&#xae;" horiz-adv-x="1473" 
d="M486 1024h254q117 0 200 -81t83 -198t-83 -198q-24 -23 -50 -40l142 -305q44 29 84 69q157 157 157 379q0 221 -157 378.5t-380 157.5q-221 0 -378.5 -157.5t-157.5 -378.5q0 -222 157.5 -379t378.5 -157q108 0 201 37l-148 319q-24 -4 -49 -4h-142v-175h-112v733z
M598 911v-331h152q67 0 116 48t49 117q0 70 -49.5 118t-118.5 48h-149zM1398 650q0 -274 -193.5 -468t-467.5 -194q-273 0 -467.5 194t-194.5 468q0 273 194.5 467.5t467.5 194.5q274 0 467.5 -194.5t193.5 -467.5z" />
    <glyph glyph-name="macron" unicode="&#xaf;" horiz-adv-x="606" 
d="M75 1390h456v-130h-456v130z" />
    <glyph glyph-name="degree" unicode="&#xb0;" horiz-adv-x="596" 
d="M298 1439q-48 0 -82 -34t-34 -82q0 -49 34 -83t82 -34q49 0 83 34t34 83q0 48 -34 82t-83 34zM92 1236q-17 40 -17 87q0 92 65.5 157.5t157.5 65.5t157.5 -65.5t65.5 -157.5q0 -93 -65.5 -158t-157.5 -65q-37 0 -70 10q-49 16 -88 55q-32 32 -48 71z" />
    <glyph glyph-name="plusminus" unicode="&#xb1;" horiz-adv-x="1200" 
d="M665 799h412v-130h-412v-412h-130v412h-413v130h413v413h130v-413zM1077 130v-130h-955v130h955z" />
    <glyph glyph-name="acute" unicode="&#xb4;" horiz-adv-x="520" 
d="M75 1294l277 275l93 -93l-276 -276z" />
    <glyph glyph-name="mu" unicode="&#xb5;" horiz-adv-x="1226" 
d="M1015 162q-9 -10 -19 -20q-95 -93 -211 -132q-81 -26 -172 -26q-225 0 -379 158q-12 12 -23 25v-959h-136v1864h137v-556q7 -157 121 -271q116 -116 280 -116q165 0 282 116q105 105 120 249v578h136v-1072h-136v162z" />
    <glyph glyph-name="paragraph" unicode="&#xb6;" horiz-adv-x="1323" 
d="M945 1728v-2520h-136v1393h-141v5q-238 12 -409 183q-184 184 -184 445q0 260 184 445q171 171 409 183v2h580v-2656h-126v2520h-177z" />
    <glyph glyph-name="periodcentered" unicode="&#xb7;" horiz-adv-x="378" 
d="M189 849q29 0 56 -14.5t42.5 -42t15.5 -57.5t-15 -57t-42 -42t-57 -15t-57 15t-42 42t-15 57t15.5 57.5t42.5 42t56 14.5z" />
    <glyph glyph-name="periodcentered" unicode="&#x2219;" horiz-adv-x="378" 
d="M189 849q29 0 56 -14.5t42.5 -42t15.5 -57.5t-15 -57t-42 -42t-57 -15t-57 15t-42 42t-15 57t15.5 57.5t42.5 42t56 14.5z" />
    <glyph glyph-name="cedilla" unicode="&#xb8;" horiz-adv-x="500" 
d="M231 -164h-9q-70 0 -79 43l107 160l110 -34l-54 -92q95 -26 113 -98q6 -26 6 -49q0 -44 -22 -83q-38 -63 -147 -65h-6q-106 0 -175 68l87 66q44 -33 75 -33h2q40 2 53 34q6 15 6 28q0 15 -7 27q-15 23 -60 28z" />
    <glyph glyph-name="ordmasculine" unicode="&#xba;" 
d="M451 1745q-105 0 -180.5 -70t-75.5 -170q0 -101 75.5 -170.5t180.5 -69.5t180 69.5t75 170.5q0 100 -75 170t-180 70zM844 1505q0 -148 -114.5 -254t-278.5 -106t-279.5 106t-115.5 254q0 147 115.5 253.5t279.5 106.5t278.5 -106.5t114.5 -253.5z" />
    <glyph glyph-name="guillemotright" unicode="&#xbb;" horiz-adv-x="755" 
d="M397 1l-322 364l322 367v-189l-148 -178l148 -175v-189zM680 1l-322 364l322 367v-189l-148 -178l148 -175v-189z" />
    <glyph glyph-name="questiondown" unicode="&#xbf;" horiz-adv-x="1114" 
d="M539.967 840.948q-28.998 0 -55.9961 14.5q-26.999 14.499 -42.998 41.9971t-15.999 58.4961q0 29.998 15.499 57.9971q15.5 27.998 42.498 42.9971t56.9961 14.999q30.998 0 58.4971 -14.999q27.498 -14.999 42.9971 -42.9971q15.499 -27.999 15.499 -57.9971
q0 -30.998 -15.999 -58.4961t-42.9971 -41.9971q-26.999 -14.5 -57.9971 -14.5zM258.984 -166.99q-32.998 -67.9951 -32.998 -139.991q0 -53.9961 17.999 -109.993q44.9971 -128.992 167.989 -188.988q69.9961 -33.998 142.991 -33.998q53.9971 0 107.994 18.999
q129.991 43.9971 189.988 164.989q33.998 70.9961 33.998 144.991q0 27.999 -5 56.9971l143.991 51.9971q12.999 -54.9971 12.999 -106.994q0 -107.993 -51.9971 -211.986q-40.9971 -85.9951 -104.993 -143.991q-69.9961 -65.9961 -167.99 -100.994
q-80.9951 -25.998 -158.99 -25.998q-29.998 0 -60.9961 3.99902q-74.9951 11 -147.991 45.9971q-177.988 86.9951 -242.984 274.983q-27.999 81.9951 -27.999 159.99q0 105.994 48.9971 205.987l344.979 568.966q28.998 56.9961 28.998 106.993q0 53.9971 -35.998 97.9941
l97.9941 98.9941q80.9951 -65.9961 80.9951 -174.989q0 -106.994 -77.9951 -251.985z" />
    <glyph glyph-name="Agrave" unicode="&#xc0;" horiz-adv-x="1521" 
d="M459 601l-210 -601h-149l660 1884l661 -1884h-149l-211 601h-602zM1014 736l-254 724l-253 -724h507zM790 1979l-276 276l93 93l277 -275z" />
    <glyph glyph-name="Aacute" unicode="&#xc1;" horiz-adv-x="1521" 
d="M459 601l-210 -601h-149l660 1884l661 -1884h-149l-211 601h-602zM1014 736l-254 724l-253 -724h507zM637 2086l277 275l93 -93l-276 -276z" />
    <glyph glyph-name="Acircumflex" unicode="&#xc2;" horiz-adv-x="1521" 
d="M459 601l-210 -601h-149l660 1884l661 -1884h-149l-211 601h-602zM1014 736l-254 724l-253 -724h507zM937 1992l-175 148l-178 -148h-189l367 322l364 -322h-189z" />
    <glyph glyph-name="Atilde" unicode="&#xc3;" horiz-adv-x="1361" 
d="M379 601l-210 -601h-149l660 1884l661 -1884h-149l-211 601h-602zM934 736l-254 724l-253 -724h507zM967 2087q-52 -77 -142 -94q-14 -3 -28 -4q-9 -1 -17 -1q-66 0 -125 41q-60 41 -92 41q-4 0 -8 -1q-41 -8 -64 -42q-10 -16 -15 -32l-114 44q9 28 27 55q51 76 142 95
q14 2 28 3q8 1 17 1q64 0 125 -41q60 -41 92 -41q4 0 8 1q40 8 64 43q16 24 17 51l118 -44q-9 -39 -33 -75z" />
    <glyph glyph-name="Adieresis" unicode="&#xc4;" horiz-adv-x="1521" 
d="M459 601l-210 -601h-149l660 1884l661 -1884h-149l-211 601h-602zM1014 736l-254 724l-253 -724h507zM561 2204q29 0 56 -14.5t42.5 -42t15.5 -57.5t-15 -57t-42 -42t-57 -15t-57 15t-42 42t-15 57t15.5 57.5t42.5 42t56 14.5zM961 2204q29 0 56 -14.5t42.5 -42
t15.5 -57.5t-15 -57t-42 -42t-57 -15t-57 15t-42 42t-15 57t15.5 57.5t42.5 42t56 14.5z" />
    <glyph glyph-name="Aring" unicode="&#xc5;" horiz-adv-x="1361" 
d="M934 736l-254 724l-253 -724h507zM680 2211q-47 0 -81 -34t-34 -82q0 -49 34 -83t81 -34q49 0 83 34t34 83q0 48 -34 82t-83 34zM684 1872l657 -1872h-149l-211 601h-602l-210 -601h-149l656 1872q-34 1 -65 10q-49 16 -88 55q-32 32 -48 71q-17 40 -17 87
q0 92 65.5 157.5t157.5 65.5t157.5 -65.5t65.5 -157.5q0 -93 -65 -158q-65 -64 -155 -65z" />
    <glyph glyph-name="AE" unicode="&#xc6;" horiz-adv-x="1544" 
d="M783 601h-348l-211 -601h-149l706 1864l2 -8v8h686v-136h-550v-992h275v-135h-275v-465h550v-136h-686v601zM783 1516l-14 40l-286 -820h300v780z" />
    <glyph glyph-name="Ccedilla" unicode="&#xc7;" horiz-adv-x="2018" 
d="M1006 -8q-37 2 -75 7q-389 49 -630 358q-201 259 -201 570q0 62 8 127q48 386 358 627q257 200 571 200q63 0 128 -8q183 -23 342 -109l-111 -108q-119 56 -250 72q-55 7 -108 7q-265 0 -482 -169q-262 -204 -302 -531q-7 -54 -7 -107q0 -264 170 -481q203 -261 531 -303
q55 -7 109 -7q265 0 482 169q216 169 283 430h151q-74 -333 -344 -545q-222 -174 -488 -197l-48 -81q95 -26 113 -98q6 -26 6 -49q0 -44 -22 -83q-38 -63 -147 -65h-6q-106 0 -175 68l87 66q44 -33 75 -33h2q40 2 53 34q6 15 6 28q0 15 -7 27q-15 23 -60 28h-9q-70 0 -79 43
z" />
    <glyph glyph-name="Egrave" unicode="&#xc8;" horiz-adv-x="1174" 
d="M1124 1864v-136h-888v-991h275v-136h-275v-465h888v-136h-1024v1864h1024zM641 1979l-276 276l93 93l277 -275z" />
    <glyph glyph-name="Eacute" unicode="&#xc9;" horiz-adv-x="1174" 
d="M1124 1864v-136h-888v-991h275v-136h-275v-465h888v-136h-1024v1864h1024zM489 2086l277 275l93 -93l-276 -276z" />
    <glyph glyph-name="Ecircumflex" unicode="&#xca;" horiz-adv-x="1174" 
d="M1124 1864v-136h-888v-991h275v-136h-275v-465h888v-136h-1024v1864h1024zM789 1992l-175 148l-178 -148h-189l367 322l364 -322h-189z" />
    <glyph glyph-name="Edieresis" unicode="&#xcb;" horiz-adv-x="1174" 
d="M1124 1864v-136h-888v-991h275v-136h-275v-465h888v-136h-1024v1864h1024zM412 2204q29 0 56 -14.5t42.5 -42t15.5 -57.5t-15 -57t-42 -42t-57 -15t-57 15t-42 42t-15 57t15.5 57.5t42.5 42t56 14.5zM812 2204q29 0 56 -14.5t42.5 -42t15.5 -57.5t-15 -57t-42 -42
t-57 -15t-57 15t-42 42t-15 57t15.5 57.5t42.5 42t56 14.5z" />
    <glyph glyph-name="Igrave" unicode="&#xcc;" horiz-adv-x="386" 
d="M125 0v1864h136v-1864h-136zM222 1979l-276 276l93 93l277 -275z" />
    <glyph glyph-name="Iacute" unicode="&#xcd;" horiz-adv-x="386" 
d="M125 0v1864h136v-1864h-136zM70 2086l277 275l93 -93l-276 -276z" />
    <glyph glyph-name="Icircumflex" unicode="&#xce;" horiz-adv-x="386" 
d="M125 0v1864h136v-1864h-136zM310 2000l-105 118l-108 -118h-189l297 322l294 -322h-189z" />
    <glyph glyph-name="Idieresis" unicode="&#xcf;" horiz-adv-x="386" 
d="M125 0v1864h136v-1864h-136zM43 2212q29 0 56 -14.5t42.5 -42t15.5 -57.5t-15 -57t-42 -42t-57 -15t-57 15t-42 42t-15 57t15.5 57.5t42.5 42t56 14.5zM343 2212q29 0 56 -14.5t42.5 -42t15.5 -57.5t-15 -57t-42 -42t-57 -15t-57 15t-42 42t-15 57t15.5 57.5t42.5 42
t56 14.5z" />
    <glyph glyph-name="Ntilde" unicode="&#xd1;" horiz-adv-x="1284" 
d="M1096 0l-830 1437v-1437h-136v1853h53l835 -1447v1458h136v-1864h-58zM928 2087q-52 -77 -142 -94q-14 -3 -28 -4q-9 -1 -17 -1q-66 0 -125 41q-60 41 -92 41q-4 0 -8 -1q-41 -8 -64 -42q-10 -16 -15 -32l-114 44q9 28 27 55q51 76 142 95q14 2 28 3q8 1 17 1
q64 0 125 -41q60 -41 92 -41q4 0 8 1q40 8 64 43q16 24 17 51l118 -44q-9 -39 -33 -75z" />
    <glyph glyph-name="Ograve" unicode="&#xd2;" horiz-adv-x="2194" 
d="M1097 1785q-350 0 -599.5 -250t-249.5 -599q0 -351 249.5 -600t599.5 -249q353 0 602 249t249 600q0 349 -249 599t-602 250zM2094 936q0 -413 -292 -705t-705 -292q-411 0 -704 292t-293 705q0 412 293 704.5t704 292.5q413 0 705 -292.5t292 -704.5zM1126 1979
l-276 276l93 93l277 -275z" />
    <glyph glyph-name="Oacute" unicode="&#xd3;" horiz-adv-x="2194" 
d="M1097 1785q-350 0 -599.5 -250t-249.5 -599q0 -351 249.5 -600t599.5 -249q353 0 602 249t249 600q0 349 -249 599t-602 250zM2094 936q0 -413 -292 -705t-705 -292q-411 0 -704 292t-293 705q0 412 293 704.5t704 292.5q413 0 705 -292.5t292 -704.5zM974 2086l277 275
l93 -93l-276 -276z" />
    <glyph glyph-name="Ocircumflex" unicode="&#xd4;" horiz-adv-x="2194" 
d="M1097 1785q-350 0 -599.5 -250t-249.5 -599q0 -351 249.5 -600t599.5 -249q353 0 602 249t249 600q0 349 -249 599t-602 250zM2094 936q0 -413 -292 -705t-705 -292q-411 0 -704 292t-293 705q0 412 293 704.5t704 292.5q413 0 705 -292.5t292 -704.5zM1274 1992
l-175 148l-178 -148h-189l367 322l364 -322h-189z" />
    <glyph glyph-name="Otilde" unicode="&#xd5;" horiz-adv-x="2194" 
d="M1097 1785q-350 0 -599.5 -250t-249.5 -599q0 -351 249.5 -600t599.5 -249q353 0 602 249t249 600q0 349 -249 599t-602 250zM2094 936q0 -413 -292 -705t-705 -292q-411 0 -704 292t-293 705q0 412 293 704.5t704 292.5q413 0 705 -292.5t292 -704.5zM1383 2087
q-52 -77 -142 -94q-14 -3 -28 -4q-9 -1 -17 -1q-66 0 -125 41q-60 41 -92 41q-4 0 -8 -1q-41 -8 -64 -42q-10 -16 -15 -32l-114 44q9 28 27 55q51 76 142 95q14 2 28 3q8 1 17 1q64 0 125 -41q60 -41 92 -41q4 0 8 1q40 8 64 43q16 24 17 51l118 -44q-9 -39 -33 -75z" />
    <glyph glyph-name="Odieresis" unicode="&#xd6;" horiz-adv-x="2194" 
d="M1097 1785q-350 0 -599.5 -250t-249.5 -599q0 -351 249.5 -600t599.5 -249q353 0 602 249t249 600q0 349 -249 599t-602 250zM2094 936q0 -413 -292 -705t-705 -292q-411 0 -704 292t-293 705q0 412 293 704.5t704 292.5q413 0 705 -292.5t292 -704.5zM897 2204
q29 0 56 -14.5t42.5 -42t15.5 -57.5t-15 -57t-42 -42t-57 -15t-57 15t-42 42t-15 57t15.5 57.5t42.5 42t56 14.5zM1297 2204q29 0 56 -14.5t42.5 -42t15.5 -57.5t-15 -57t-42 -42t-57 -15t-57 15t-42 42t-15 57t15.5 57.5t42.5 42t56 14.5z" />
    <glyph glyph-name="Oslash" unicode="&#xd8;" horiz-adv-x="2144" 
d="M1627 1770q79 -54 150 -125q292 -293 292 -705q0 -413 -292 -705t-705 -292q-241 0 -441 100l-107 -185l-114 66l108 186q-79 54 -150 125q-293 292 -293 705q0 412 293 704.5t704 292.5q242 0 442 -100l107 185l114 -66zM587 231l857 1485q-169 82 -373 82
q-354 0 -606 -252.5t-252 -605.5q0 -355 252 -606q58 -59 122 -103zM1558 1649l-858 -1485q169 -82 371 -82q357 0 608.5 251.5t251.5 606.5q0 353 -251 606q-59 58 -122 103z" />
    <glyph glyph-name="Ugrave" unicode="&#xd9;" horiz-adv-x="1383" 
d="M1147 1864h136v-1333h-2q-12 -238 -163 -409q-185 -166 -382 -166h-86q-198 0 -382 166q-151 171 -168 409v1333h135v-1306q6 -200 128 -342q145 -127 290 -127h80q144 0 290 127q113 133 124 316v1332zM721 1979l-276 276l93 93l277 -275z" />
    <glyph glyph-name="Uacute" unicode="&#xda;" horiz-adv-x="1383" 
d="M1147 1864h136v-1333h-2q-12 -238 -163 -409q-185 -166 -382 -166h-86q-198 0 -382 166q-151 171 -168 409v1333h135v-1306q6 -200 128 -342q145 -127 290 -127h80q144 0 290 127q113 133 124 316v1332zM568 2086l277 275l93 -93l-276 -276z" />
    <glyph glyph-name="Ucircumflex" unicode="&#xdb;" horiz-adv-x="1383" 
d="M1147 1864h136v-1333h-2q-12 -238 -163 -409q-185 -166 -382 -166h-86q-198 0 -382 166q-151 171 -168 409v1333h135v-1306q6 -200 128 -342q145 -127 290 -127h80q144 0 290 127q113 133 124 316v1332zM868 1992l-175 148l-178 -148h-189l367 322l364 -322h-189z" />
    <glyph glyph-name="Udieresis" unicode="&#xdc;" horiz-adv-x="1383" 
d="M1147 1864h136v-1333h-2q-12 -238 -163 -409q-185 -166 -382 -166h-86q-198 0 -382 166q-151 171 -168 409v1333h135v-1306q6 -200 128 -342q145 -127 290 -127h80q144 0 290 127q113 133 124 316v1332zM492 2204q29 0 56 -14.5t42.5 -42t15.5 -57.5t-15 -57t-42 -42
t-57 -15t-57 15t-42 42t-15 57t15.5 57.5t42.5 42t56 14.5zM892 2204q29 0 56 -14.5t42.5 -42t15.5 -57.5t-15 -57t-42 -42t-57 -15t-57 15t-42 42t-15 57t15.5 57.5t42.5 42t56 14.5z" />
    <glyph glyph-name="germandbls" unicode="&#xdf;" horiz-adv-x="1345" 
d="M256 0h-136v1864h435v-1q152 -9 241.5 -105.5t89.5 -246.5q0 -160 -103 -267q171 -37 303 -169q184 -184 184 -445q0 -260 -184 -445q-171 -171 -409 -183v-2h-278v136h277q183 11 316 144q145 146 145 350q0 205 -145 350q-142 142 -342 145v3h-191v135h94q83 14 135 65
q70 69 70 179q-5 221 -248 221h-254v-1728z" />
    <glyph glyph-name="agrave" unicode="&#xe0;" horiz-adv-x="1305" 
d="M1029 444v199q-26 109 -111 194q-121 122 -294 122q-171 0 -293 -121.5t-122 -293.5t122 -293.5t293 -121.5q173 0 294 121q85 85 111 194zM1029 907v165h136v-1072h-136v181l-20 -22q-160 -159 -385 -159t-384.5 159.5t-159.5 384.5t159.5 384.5t384.5 159.5t385 -159z
M652 1187l-276 276l93 93l277 -275z" />
    <glyph glyph-name="aacute" unicode="&#xe1;" horiz-adv-x="1305" 
d="M1029 444v199q-26 109 -111 194q-121 122 -294 122q-171 0 -293 -121.5t-122 -293.5t122 -293.5t293 -121.5q173 0 294 121q85 85 111 194zM1029 907v165h136v-1072h-136v181l-20 -22q-160 -159 -385 -159t-384.5 159.5t-159.5 384.5t159.5 384.5t384.5 159.5t385 -159z
M499 1294l277 275l93 -93l-276 -276z" />
    <glyph glyph-name="acircumflex" unicode="&#xe2;" horiz-adv-x="1305" 
d="M1029 444v199q-26 109 -111 194q-121 122 -294 122q-171 0 -293 -121.5t-122 -293.5t122 -293.5t293 -121.5q173 0 294 121q85 85 111 194zM1029 907v165h136v-1072h-136v181l-20 -22q-160 -159 -385 -159t-384.5 159.5t-159.5 384.5t159.5 384.5t384.5 159.5t385 -159z
M799 1200l-175 148l-178 -148h-189l367 322l364 -322h-189z" />
    <glyph glyph-name="atilde" unicode="&#xe3;" horiz-adv-x="1305" 
d="M1029 444v199q-26 109 -111 194q-121 122 -294 122q-171 0 -293 -121.5t-122 -293.5t122 -293.5t293 -121.5q173 0 294 121q85 85 111 194zM1029 907v165h136v-1072h-136v181l-20 -22q-160 -159 -385 -159t-384.5 159.5t-159.5 384.5t159.5 384.5t384.5 159.5t385 -159z
M909 1295q-52 -77 -142 -94q-14 -3 -28 -4q-9 -1 -17 -1q-66 0 -125 41q-60 41 -92 41q-4 0 -8 -1q-41 -8 -64 -42q-10 -16 -15 -32l-114 44q9 28 27 55q51 76 142 95q14 2 28 3q8 1 17 1q64 0 125 -41q60 -41 92 -41q4 0 8 1q40 8 64 43q16 24 17 51l118 -44
q-9 -39 -33 -75z" />
    <glyph glyph-name="adieresis" unicode="&#xe4;" horiz-adv-x="1380" 
d="M1074 444v199q-26 109 -111 194q-121 122 -294 122q-171 0 -293 -121.5t-122 -293.5t122 -293.5t293 -121.5q173 0 294 121q85 85 111 194zM1074 907v165h136v-1072h-136v181l-20 -22q-160 -159 -385 -159t-384.5 159.5t-159.5 384.5t159.5 384.5t384.5 159.5t385 -159z
M468 1412q29 0 56 -14.5t42.5 -42t15.5 -57.5t-15 -57t-42 -42t-57 -15t-57 15t-42 42t-15 57t15.5 57.5t42.5 42t56 14.5zM868 1412q29 0 56 -14.5t42.5 -42t15.5 -57.5t-15 -57t-42 -42t-57 -15t-57 15t-42 42t-15 57t15.5 57.5t42.5 42t56 14.5z" />
    <glyph glyph-name="aring" unicode="&#xe5;" horiz-adv-x="1350" 
d="M1074 444v199q-26 109 -111 194q-121 122 -294 122q-171 0 -293 -121.5t-122 -293.5t122 -293.5t293 -121.5q173 0 294 121q85 85 111 194zM667 1409q-47 0 -81 -34t-34 -82q0 -49 34 -83t81 -34q49 0 83 34t34 83q0 48 -34 82t-83 34zM745 1083q177 -23 309 -154l20 -22
v165h136v-1072h-136v181l-20 -22q-160 -159 -385 -159t-384.5 159.5t-159.5 384.5t160 385q130 130 305 154q-44 16 -80 52q-32 32 -48 71q-17 40 -17 87q0 92 65.5 157.5t157.5 65.5t157.5 -65.5t65.5 -157.5q0 -93 -65 -158q-37 -36 -81 -52z" />
    <glyph glyph-name="ae" unicode="&#xe6;" horiz-adv-x="2213" 
d="M1024 444v199q-26 109 -111 194q-121 122 -294 122q-171 0 -293 -121.5t-122 -293.5t122 -293.5t293 -121.5q173 0 294 121q85 85 111 194zM1956 736q-27 46 -67 87q-124 123 -298 123q-173 0 -296 -123q-41 -41 -68 -87h729zM1160 184v-184h-136v181l-20 -22
q-160 -159 -385 -159t-384.5 159.5t-159.5 384.5t159.5 384.5t384.5 159.5t385 -159l20 -22v165h136v-205q20 25 43 48q161 161 388 161q228 0 389 -161q134 -135 156 -314h-959q-6 -37 -6 -75q0 -174 123.5 -297t296.5 -123q174 0 298 123q101 101 119 236h130
q-19 -189 -158 -328q-161 -161 -389 -161q-227 0 -388 161q-23 23 -43 47z" />
    <glyph glyph-name="ccedilla" unicode="&#xe7;" horiz-adv-x="1339" 
d="M647 -14q-208 12 -358 162q-164 163 -164 393q0 229 163.5 392.5t394.5 163.5q109 0 207 -38l-96 -113q-55 14 -111 14q-171 0 -294 -123t-123 -296q0 -174 123 -296.5t294 -122.5q172 0 295 123q105 104 121 251h140q-16 -202 -162 -348q-125 -126 -292 -155l-47 -80
q95 -26 113 -98q6 -26 6 -49q0 -44 -22 -83q-38 -63 -147 -65h-6q-106 0 -175 68l87 66q44 -33 75 -33h2q40 2 53 34q6 15 6 28q0 15 -7 27q-15 23 -60 28h-9q-70 0 -79 43z" />
    <glyph glyph-name="egrave" unicode="&#xe8;" horiz-adv-x="1292" 
d="M1020 736q-27 46 -67 87q-124 123 -298 123q-173 0 -296 -123q-41 -41 -68 -87h729zM1072 465h130q-19 -189 -158 -328q-161 -161 -389 -161q-227 0 -388.5 161t-161.5 389q0 227 161.5 388.5t388.5 161.5q228 0 389 -161q134 -135 156 -314h-959q-6 -37 -6 -75
q0 -174 123.5 -297t296.5 -123q174 0 298 123q101 101 119 236zM683 1187l-276 276l93 93l277 -275z" />
    <glyph glyph-name="eacute" unicode="&#xe9;" horiz-adv-x="1292" 
d="M1020 736q-27 46 -67 87q-124 123 -298 123q-173 0 -296 -123q-41 -41 -68 -87h729zM1072 465h130q-19 -189 -158 -328q-161 -161 -389 -161q-227 0 -388.5 161t-161.5 389q0 227 161.5 388.5t388.5 161.5q228 0 389 -161q134 -135 156 -314h-959q-6 -37 -6 -75
q0 -174 123.5 -297t296.5 -123q174 0 298 123q101 101 119 236zM530 1294l277 275l93 -93l-276 -276z" />
    <glyph glyph-name="ecircumflex" unicode="&#xea;" horiz-adv-x="1292" 
d="M1020 736q-27 46 -67 87q-124 123 -298 123q-173 0 -296 -123q-41 -41 -68 -87h729zM1072 465h130q-19 -189 -158 -328q-161 -161 -389 -161q-227 0 -388.5 161t-161.5 389q0 227 161.5 388.5t388.5 161.5q228 0 389 -161q134 -135 156 -314h-959q-6 -37 -6 -75
q0 -174 123.5 -297t296.5 -123q174 0 298 123q101 101 119 236zM830 1200l-175 148l-178 -148h-189l367 322l364 -322h-189z" />
    <glyph glyph-name="edieresis" unicode="&#xeb;" horiz-adv-x="1292" 
d="M1020 736q-27 46 -67 87q-124 123 -298 123q-173 0 -296 -123q-41 -41 -68 -87h729zM1072 465h130q-19 -189 -158 -328q-161 -161 -389 -161q-227 0 -388.5 161t-161.5 389q0 227 161.5 388.5t388.5 161.5q228 0 389 -161q134 -135 156 -314h-959q-6 -37 -6 -75
q0 -174 123.5 -297t296.5 -123q174 0 298 123q101 101 119 236zM454 1412q29 0 56 -14.5t42.5 -42t15.5 -57.5t-15 -57t-42 -42t-57 -15t-57 15t-42 42t-15 57t15.5 57.5t42.5 42t56 14.5zM854 1412q29 0 56 -14.5t42.5 -42t15.5 -57.5t-15 -57t-42 -42t-57 -15t-57 15
t-42 42t-15 57t15.5 57.5t42.5 42t56 14.5z" />
    <glyph glyph-name="igrave" unicode="&#xec;" horiz-adv-x="286" 
d="M211 736v-736h-136v736h136zM172 887l-276 276l93 93l277 -275z" />
    <glyph glyph-name="iacute" unicode="&#xed;" horiz-adv-x="286" 
d="M211 736v-736h-136v736h136zM20 994l277 275l93 -93l-276 -276z" />
    <glyph glyph-name="icircumflex" unicode="&#xee;" horiz-adv-x="286" 
d="M211 736v-736h-136v736h136zM250 900l-105 118l-108 -118h-189l297 322l294 -322h-189z" />
    <glyph glyph-name="idieresis" unicode="&#xef;" horiz-adv-x="286" 
d="M211 736v-736h-136v736h136zM-7 1112q29 0 56 -14.5t42.5 -42t15.5 -57.5t-15 -57t-42 -42t-57 -15t-57 15t-42 42t-15 57t15.5 57.5t42.5 42t56 14.5zM293 1112q29 0 56 -14.5t42.5 -42t15.5 -57.5t-15 -57t-42 -42t-57 -15t-57 15t-42 42t-15 57t15.5 57.5t42.5 42
t56 14.5z" />
    <glyph glyph-name="ntilde" unicode="&#xf1;" horiz-adv-x="1281" 
d="M251 905q177 183 402 183q91 0 172 -26q116 -39 211 -132q83 -83 121 -184q34 -81 34 -187v-559h-136v578q-15 144 -120 249q-117 116 -282 116q-164 0 -280 -116q-114 -114 -121 -271v-556h-137v1076h136v-171zM939 1295q-52 -77 -142 -94q-14 -3 -28 -4q-9 -1 -17 -1
q-66 0 -125 41q-60 41 -92 41q-4 0 -8 -1q-41 -8 -64 -42q-10 -16 -15 -32l-114 44q9 28 27 55q51 76 142 95q14 2 28 3q8 1 17 1q64 0 125 -41q60 -41 92 -41q4 0 8 1q40 8 64 43q16 24 17 51l118 -44q-9 -39 -33 -75z" />
    <glyph glyph-name="ograve" unicode="&#xf2;" horiz-adv-x="1293" 
d="M647 951q-179 0 -306 -127.5t-127 -305.5q0 -179 127 -306t306 -127q180 0 306.5 127t126.5 306q0 178 -126.5 305.5t-306.5 127.5zM1213 518q0 -235 -165.5 -401t-400.5 -166q-234 0 -400.5 166t-166.5 401q0 234 166.5 400.5t400.5 166.5q235 0 400.5 -166.5
t165.5 -400.5zM676 1187l-276 276l93 93l277 -275z" />
    <glyph glyph-name="oacute" unicode="&#xf3;" horiz-adv-x="1293" 
d="M647 951q-179 0 -306 -127.5t-127 -305.5q0 -179 127 -306t306 -127q180 0 306.5 127t126.5 306q0 178 -126.5 305.5t-306.5 127.5zM1213 518q0 -235 -165.5 -401t-400.5 -166q-234 0 -400.5 166t-166.5 401q0 234 166.5 400.5t400.5 166.5q235 0 400.5 -166.5
t165.5 -400.5zM523 1294l277 275l93 -93l-276 -276z" />
    <glyph glyph-name="ocircumflex" unicode="&#xf4;" horiz-adv-x="1293" 
d="M647 951q-179 0 -306 -127.5t-127 -305.5q0 -179 127 -306t306 -127q180 0 306.5 127t126.5 306q0 178 -126.5 305.5t-306.5 127.5zM1213 518q0 -235 -165.5 -401t-400.5 -166q-234 0 -400.5 166t-166.5 401q0 234 166.5 400.5t400.5 166.5q235 0 400.5 -166.5
t165.5 -400.5zM823 1200l-175 148l-178 -148h-189l367 322l364 -322h-189z" />
    <glyph glyph-name="otilde" unicode="&#xf5;" horiz-adv-x="1293" 
d="M647 951q-179 0 -306 -127.5t-127 -305.5q0 -179 127 -306t306 -127q180 0 306.5 127t126.5 306q0 178 -126.5 305.5t-306.5 127.5zM1213 518q0 -235 -165.5 -401t-400.5 -166q-234 0 -400.5 166t-166.5 401q0 234 166.5 400.5t400.5 166.5q235 0 400.5 -166.5
t165.5 -400.5zM933 1295q-52 -77 -142 -94q-14 -3 -28 -4q-9 -1 -17 -1q-66 0 -125 41q-60 41 -92 41q-4 0 -8 -1q-41 -8 -64 -42q-10 -16 -15 -32l-114 44q9 28 27 55q51 76 142 95q14 2 28 3q8 1 17 1q64 0 125 -41q60 -41 92 -41q4 0 8 1q40 8 64 43q16 24 17 51l118 -44
q-9 -39 -33 -75z" />
    <glyph glyph-name="odieresis" unicode="&#xf6;" horiz-adv-x="1293" 
d="M647 951q-179 0 -306 -127.5t-127 -305.5q0 -179 127 -306t306 -127q180 0 306.5 127t126.5 306q0 178 -126.5 305.5t-306.5 127.5zM1213 518q0 -235 -165.5 -401t-400.5 -166q-234 0 -400.5 166t-166.5 401q0 234 166.5 400.5t400.5 166.5q235 0 400.5 -166.5
t165.5 -400.5zM447 1412q29 0 56 -14.5t42.5 -42t15.5 -57.5t-15 -57t-42 -42t-57 -15t-57 15t-42 42t-15 57t15.5 57.5t42.5 42t56 14.5zM847 1412q29 0 56 -14.5t42.5 -42t15.5 -57.5t-15 -57t-42 -42t-57 -15t-57 15t-42 42t-15 57t15.5 57.5t42.5 42t56 14.5z" />
    <glyph glyph-name="divide" unicode="&#xf7;" horiz-adv-x="1200" 
d="M1077 799v-130h-955v130h955zM600 594q29 0 56 -14.5t42.5 -42t15.5 -57.5t-15 -57t-42 -42t-57 -15t-57 15t-42 42t-15 57t15.5 57.5t42.5 42t56 14.5zM600 1102q29 0 56 -14.5t42.5 -42t15.5 -57.5t-15 -57t-42 -42t-57 -15t-57 15t-42 42t-15 57t15.5 57.5t42.5 42
t56 14.5z" />
    <glyph glyph-name="oslash" unicode="&#xf8;" horiz-adv-x="1250" 
d="M953 958q32 -24 61 -53q161 -162 161 -389q0 -228 -161 -389t-389 -161q-118 0 -219 44l-114 -199l-114 66l115 200q-29 23 -56 50q-162 161 -162 389q0 227 161.5 388.5t388.5 161.5q116 0 215 -42l113 196l119 -56zM359 191l415 719q-69 26 -149 26
q-173 0 -296.5 -123.5t-123.5 -296.5q0 -174 124 -297q14 -15 30 -28zM888 844l-416 -720q71 -28 153 -28q175 0 298 123t123 297q0 173 -123 297q-17 17 -35 31z" />
    <glyph glyph-name="ugrave" unicode="&#xf9;" horiz-adv-x="1126" 
d="M266 427q0 -125 87.5 -211.5t209.5 -86.5q124 0 211 87q80 79 86 190v670h136v-670q-7 -166 -127 -286q-127 -127 -306 -127t-306 127q-120 120 -127 286v670h136v-649zM592 1187l-276 276l93 93l277 -275z" />
    <glyph glyph-name="uacute" unicode="&#xfa;" horiz-adv-x="1126" 
d="M266 427q0 -125 87.5 -211.5t209.5 -86.5q124 0 211 87q80 79 86 190v670h136v-670q-7 -166 -127 -286q-127 -127 -306 -127t-306 127q-120 120 -127 286v670h136v-649zM440 1294l277 275l93 -93l-276 -276z" />
    <glyph glyph-name="ucircumflex" unicode="&#xfb;" horiz-adv-x="1126" 
d="M266 427q0 -125 87.5 -211.5t209.5 -86.5q124 0 211 87q80 79 86 190v670h136v-670q-7 -166 -127 -286q-127 -127 -306 -127t-306 127q-120 120 -127 286v670h136v-649zM740 1200l-175 148l-178 -148h-189l367 322l364 -322h-189z" />
    <glyph glyph-name="udieresis" unicode="&#xfc;" horiz-adv-x="1126" 
d="M266 427q0 -125 87.5 -211.5t209.5 -86.5q124 0 211 87q80 79 86 190v670h136v-670q-7 -166 -127 -286q-127 -127 -306 -127t-306 127q-120 120 -127 286v670h136v-649zM363 1412q29 0 56 -14.5t42.5 -42t15.5 -57.5t-15 -57t-42 -42t-57 -15t-57 15t-42 42t-15 57
t15.5 57.5t42.5 42t56 14.5zM763 1412q29 0 56 -14.5t42.5 -42t15.5 -57.5t-15 -57t-42 -42t-57 -15t-57 15t-42 42t-15 57t15.5 57.5t42.5 42t56 14.5z" />
    <glyph glyph-name="ydieresis" unicode="&#xff;" horiz-adv-x="1286" 
d="M1039 170q-10 -12 -21 -23q-155 -159 -380 -159q-91 0 -172 26q-116 39 -211 132q-83 83 -121 184q-34 81 -34 187v559h136v-578q15 -144 120 -249q117 -116 282 -116q164 0 280 116q114 114 121 271v556h137l-1 -1303q-3 -224 -157.5 -382.5t-379.5 -158.5
q-91 0 -172 26q-116 39 -211 132q-83 83 -121 184q-28 66 -28 183v16h137q8 -175 113 -280q117 -116 282 -116q164 0 280 116q114 114 121 271v406zM438 1412q29 0 56 -14.5t42.5 -42t15.5 -57.5t-15 -57t-42 -42t-57 -15t-57 15t-42 42t-15 57t15.5 57.5t42.5 42t56 14.5z
M838 1412q29 0 56 -14.5t42.5 -42t15.5 -57.5t-15 -57t-42 -42t-57 -15t-57 15t-42 42t-15 57t15.5 57.5t42.5 42t56 14.5z" />
    <glyph glyph-name="dotlessi" unicode="&#x131;" horiz-adv-x="286" 
d="M211 736v-736h-136v736h136z" />
    <glyph glyph-name="OE" unicode="&#x152;" horiz-adv-x="2581" 
d="M1557 1810v54h1024v-136h-888v-991h275v-136h-275v-465h888v-136h-1024v62q-217 -123 -485 -123q-411 0 -704 292t-293 705q0 412 293 704.5t704 292.5q268 0 485 -123zM1557 237v1398q-211 150 -485 150q-350 0 -599.5 -250t-249.5 -599q0 -351 249.5 -600t599.5 -249
q274 0 485 150z" />
    <glyph glyph-name="oe" unicode="&#x153;" horiz-adv-x="2201" 
d="M617 951q-179 0 -306 -127.5t-127 -305.5q0 -179 127 -306t306 -127q180 0 306.5 127t126.5 306q0 178 -126.5 305.5t-306.5 127.5zM1969 736q-27 46 -67 87q-124 123 -298 123q-173 0 -296 -123q-41 -41 -68 -87h729zM1122 258q-39 -76 -104 -141q-166 -166 -401 -166
q-234 0 -400.5 166t-166.5 401q0 234 166.5 400.5t400.5 166.5q235 0 401 -166q61 -62 100 -134q37 69 98 130q161 161 388 161q228 0 389 -161q134 -135 156 -314h-959q-6 -37 -6 -75q0 -174 123.5 -297t296.5 -123q174 0 298 123q101 101 119 236h130q-19 -189 -158 -328
q-161 -161 -389 -161q-227 0 -388 161q-57 56 -94 121z" />
    <glyph glyph-name="Ydieresis" unicode="&#x178;" horiz-adv-x="1609" 
d="M737 607l-737 1257h157l648 -1120l647 1120h157l-736 -1257l-1 -607h-135v607zM605 2204q29 0 56 -14.5t42.5 -42t15.5 -57.5t-15 -57t-42 -42t-57 -15t-57 15t-42 42t-15 57t15.5 57.5t42.5 42t56 14.5zM1005 2204q29 0 56 -14.5t42.5 -42t15.5 -57.5t-15 -57t-42 -42
t-57 -15t-57 15t-42 42t-15 57t15.5 57.5t42.5 42t56 14.5z" />
    <glyph glyph-name="florin" unicode="&#x192;" horiz-adv-x="580" 
d="M186 1576q0 149 112 225q80 64 179 64q18 0 37 -2q49 -5 91 -24q61 -28 93 -73l-108 -74q-37 37 -91 43q-10 1 -19 1q-52 0 -95 -34q-61 -50 -61 -133v-833h180v-135h-180v-1092q0 -149 -112 -225q-80 -64 -179 -64q-18 0 -37 2q-49 5 -91 24q-61 28 -93 73l108 74
q37 -37 91 -43q10 -1 19 -1q52 0 95 34q61 50 61 133v1085h-86v135h86v840z" />
    <glyph glyph-name="circumflex" unicode="&#x2c6;" horiz-adv-x="881" 
d="M617 1200l-175 148l-178 -148h-189l367 322l364 -322h-189z" />
    <glyph glyph-name="caron" unicode="&#x2c7;" horiz-adv-x="881" 
d="M806 1522l-364 -322l-367 322h189l178 -148l175 148h189z" />
    <glyph glyph-name="breve" unicode="&#x2d8;" horiz-adv-x="926" 
d="M684 1471q1 -13 1 -26q0 -92 -65 -157.5t-158 -65.5q-92 0 -157.5 65.5t-65.5 157.5q0 13 1 26h125q-3 -12 -3 -26q0 -42 29.5 -71.5t70.5 -29.5q42 0 71.5 29.5t29.5 71.5q0 14 -3 26h124z" />
    <glyph glyph-name="dotaccent" unicode="&#x2d9;" horiz-adv-x="378" 
d="M189 1458q29 0 56 -14.5t42.5 -42t15.5 -57.5t-15 -57t-42 -42t-57 -15t-57 15t-42 42t-15 57t15.5 57.5t42.5 42t56 14.5z" />
    <glyph glyph-name="ring" unicode="&#x2da;" horiz-adv-x="596" 
d="M298 1439q-48 0 -82 -34t-34 -82q0 -49 34 -83t82 -34q49 0 83 34t34 83q0 48 -34 82t-83 34zM92 1236q-17 40 -17 87q0 92 65.5 157.5t157.5 65.5t157.5 -65.5t65.5 -157.5q0 -93 -65.5 -158t-157.5 -65q-37 0 -70 10q-49 16 -88 55q-32 32 -48 71z" />
    <glyph glyph-name="ogonek" unicode="&#x2db;" horiz-adv-x="459" 
d="M75 -186q3 159 210 320l61 -63q-140 -92 -141 -221q1 -150 179 -174l-29 -121q-277 51 -280 250v9z" />
    <glyph glyph-name="tilde" unicode="&#x2dc;" horiz-adv-x="788" 
d="M680 1295q-52 -77 -142 -94q-14 -3 -28 -4q-9 -1 -17 -1q-66 0 -125 41q-60 41 -92 41q-4 0 -8 -1q-41 -8 -64 -42q-10 -16 -15 -32l-114 44q9 28 27 55q51 76 142 95q14 2 28 3q8 1 17 1q64 0 125 -41q60 -41 92 -41q4 0 8 1q40 8 64 43q16 24 17 51l118 -44
q-9 -39 -33 -75z" />
    <glyph glyph-name="hungarumlaut" unicode="&#x2dd;" horiz-adv-x="934" 
d="M75 1278l303 273l89 -98l-304 -273zM467 1278l303 273l89 -98l-304 -273z" />
    <glyph glyph-name="pi" unicode="&#x3c0;" horiz-adv-x="1139" 
d="M906 942v-606q0 -123 61 -163q38 -30 82 -33v-140q-95 3 -171 64q-108 76 -112 225v653h-437v-942h-141v942h-138v130h1000v-130h-144z" />
    <glyph glyph-name="endash" unicode="&#x2013;" horiz-adv-x="1426" 
d="M75 1084h1276v-130h-1276v130z" />
    <glyph glyph-name="emdash" unicode="&#x2014;" horiz-adv-x="1891" 
d="M75 1088h1741v-130h-1741v130z" />
    <glyph glyph-name="quoteleft" unicode="&#x2018;" horiz-adv-x="296" 
d="M163 1680q8 -3 16 -7q27 -15 42 -42t15 -57t-15.5 -57.5t-42.5 -42t-56 -14.5t-56 14.5t-46.5 49t-19.5 85.5q25 212 228 395l68 -120q-101 -99 -133 -204z" />
    <glyph glyph-name="quoteright" unicode="&#x2019;" horiz-adv-x="296" 
d="M133 1713q-8 3 -16 7q-27 15 -42 42t-15 57t15.5 57.5t42.5 42t56 14.5t56 -14.5t46.5 -49t19.5 -85.5q-25 -212 -228 -395l-68 120q101 99 133 204z" />
    <glyph glyph-name="quotesinglbase" unicode="&#x201a;" horiz-adv-x="296" 
d="M133 30q-8 3 -16 7q-27 15 -42 42t-15 57t15.5 57.5t42.5 42t56 14.5t56 -14.5t46.5 -49t19.5 -85.5q-25 -212 -228 -395l-68 120q101 99 133 204z" />
    <glyph glyph-name="quotedblleft" unicode="&#x201c;" horiz-adv-x="650" 
d="M163 1680q8 -3 16 -7q27 -15 42 -42t15 -57t-15.5 -57.5t-42.5 -42t-56 -14.5t-56 14.5t-46.5 49t-19.5 85.5q25 212 228 395l68 -120q-101 -99 -133 -204zM517 1680q8 -3 16 -7q27 -15 42 -42t15 -57t-15.5 -57.5t-42.5 -42t-56 -14.5t-56 14.5t-46.5 49t-19.5 85.5
q25 212 228 395l68 -120q-101 -99 -133 -204z" />
    <glyph glyph-name="quotedblright" unicode="&#x201d;" horiz-adv-x="650" 
d="M487 1713q-8 3 -16 7q-27 15 -42 42t-15 57t15.5 57.5t42.5 42t56 14.5t56 -14.5t46.5 -49t19.5 -85.5q-25 -212 -228 -395l-68 120q101 99 133 204zM133 1713q-8 3 -16 7q-27 15 -42 42t-15 57t15.5 57.5t42.5 42t56 14.5t56 -14.5t46.5 -49t19.5 -85.5
q-25 -212 -228 -395l-68 120q101 99 133 204z" />
    <glyph glyph-name="quotedblbase" unicode="&#x201e;" horiz-adv-x="650" 
d="M487 30q-8 3 -16 7q-27 15 -42 42t-15 57t15.5 57.5t42.5 42t56 14.5t56 -14.5t46.5 -49t19.5 -85.5q-25 -212 -228 -395l-68 120q101 99 133 204zM133 30q-8 3 -16 7q-27 15 -42 42t-15 57t15.5 57.5t42.5 42t56 14.5t56 -14.5t46.5 -49t19.5 -85.5q-25 -212 -228 -395
l-68 120q101 99 133 204z" />
    <glyph glyph-name="dagger" unicode="&#x2020;" horiz-adv-x="1124" 
d="M497 1501v399h130v-399h447v-130h-447v-2121h-130v2121h-447v130h447z" />
    <glyph glyph-name="daggerdbl" unicode="&#x2021;" horiz-adv-x="1124" 
d="M497 1371h-447v130h447v399h130v-399h447v-130h-447v-1592h447v-130h-447v-399h-130v399h-447v130h447v1592z" />
    <glyph glyph-name="bullet" unicode="&#x2022;" horiz-adv-x="378" 
d="M189 849q29 0 56 -14.5t42.5 -42t15.5 -57.5t-15 -57t-42 -42t-57 -15t-57 15t-42 42t-15 57t15.5 57.5t42.5 42t56 14.5z" />
    <glyph glyph-name="ellipsis" unicode="&#x2026;" horiz-adv-x="1744" 
d="M189 228q29 0 56 -14.5t42.5 -42t15.5 -57.5t-15 -57t-42 -42t-57 -15t-57 15t-42 42t-15 57t15.5 57.5t42.5 42t56 14.5zM872 228q29 0 56 -14.5t42.5 -42t15.5 -57.5t-15 -57t-42 -42t-57 -15t-57 15t-42 42t-15 57t15.5 57.5t42.5 42t56 14.5zM1555 228q29 0 56 -14.5
t42.5 -42t15.5 -57.5t-15 -57t-42 -42t-57 -15t-57 15t-42 42t-15 57t15.5 57.5t42.5 42t56 14.5z" />
    <glyph glyph-name="perthousand" unicode="&#x2030;" horiz-adv-x="2945" 
d="M1551 1885l148 -31l-1206 -1892l-147 30zM477 1603q-114 0 -195 -81t-81 -193q0 -117 81 -197t195 -80q115 0 196 80t81 197q0 112 -81 193t-196 81zM853 1476q27 -68 27 -148q0 -167 -118 -285t-284 -118q-167 0 -285 118t-118 285q0 166 118 284t285 118q68 0 128 -19
q86 -29 157 -98q61 -62 90 -137zM1567 833q-114 0 -195 -81t-81 -193q0 -117 81 -197t195 -80q115 0 196 80t81 197q0 112 -81 193t-196 81zM1943 706q27 -68 27 -148q0 -167 -118 -285t-284 -118q-167 0 -285 118t-118 285q0 166 118 284t285 118q68 0 128 -19
q86 -29 157 -98q61 -62 90 -137zM2467 833q-114 0 -195 -81t-81 -193q0 -117 81 -197t195 -80q115 0 196 80t81 197q0 112 -81 193t-196 81zM2843 706q27 -68 27 -148q0 -167 -118 -285t-284 -118q-167 0 -285 118t-118 285q0 166 118 284t285 118q68 0 128 -19
q86 -29 157 -98q61 -62 90 -137z" />
    <glyph glyph-name="guilsinglleft" unicode="&#x2039;" horiz-adv-x="472" 
d="M75 190l148 175l-148 178v189l322 -367l-322 -364v189z" />
    <glyph glyph-name="guilsinglright" unicode="&#x203a;" horiz-adv-x="472" 
d="M397 1l-322 364l322 367v-189l-148 -178l148 -175v-189z" />
    <glyph glyph-name="fraction" unicode="&#x2044;" horiz-adv-x="153" 
d="M705 1885l148 -31l-1206 -1892l-147 30z" />
    <glyph glyph-name="fraction" unicode="&#x2215;" horiz-adv-x="153" 
d="M705 1885l148 -31l-1206 -1892l-147 30z" />
    <glyph glyph-name="trademark" unicode="&#x2122;" horiz-adv-x="1360" 
d="M75 1870h498l356 -357l356 357v-788h-138v449l-220 -219l-228 225v-455h-140v648h-164v-648h-140v648h-180v140z" />
    <glyph glyph-name="Omega" unicode="&#x2126;" horiz-adv-x="2003" 
d="M933 0h-712v136h576v7q-248 54 -440 245q-267 266 -267 640q0 372 267 638.5t644 266.5q380 0 646 -266.5t266 -638.5q0 -374 -266 -640q-192 -192 -442 -245v-7h576v-136h-712v275q267 22 463 218q220 220 220 535q0 312 -220.5 534t-531.5 222q-307 0 -528.5 -222
t-221.5 -534q0 -315 222 -535q196 -197 461 -218v-275z" />
    <glyph glyph-name="infinity" unicode="&#x221e;" horiz-adv-x="1490" 
d="M179 672q0 -56 39.5 -96t94.5 -40q58 0 97.5 40t39.5 96t-39.5 96t-97.5 40q-55 0 -94.5 -40t-39.5 -96zM578 672q0 -151 108 -259t259 -108q152 0 259.5 108t107.5 259q0 152 -107.5 259.5t-259.5 107.5q-151 0 -259 -107.5t-108 -259.5zM490 475q-75 -67 -176 -67
q-109 0 -186.5 77.5t-77.5 186.5q0 45 12 84q19 57 65 103q40 40 90 59q44 18 97 18q101 0 175 -67q37 83 106 153q146 145 350 145q205 0 350 -145t145 -350q0 -204 -145 -349.5t-350 -145.5q-204 0 -350 146q-69 69 -105 152z" />
    <glyph glyph-name="integral" unicode="&#x222b;" horiz-adv-x="580" 
d="M186 1576q0 149 112 225q80 64 179 64q18 0 37 -2q49 -5 91 -24q61 -28 93 -73l-108 -74q-37 37 -91 43q-10 1 -19 1q-52 0 -95 -34q-61 -50 -61 -133v-2060q0 -149 -112 -225q-80 -64 -179 -64q-18 0 -37 2q-49 5 -91 24q-61 28 -93 73l108 74q37 -37 91 -43
q10 -1 19 -1q52 0 95 34q61 50 61 133v2060z" />
    <glyph glyph-name="approxequal" unicode="&#x2248;" horiz-adv-x="1168" 
d="M884 855q6 0 10 1q40 8 64 43q16 24 17 51l118 -44q-9 -39 -33 -75q-52 -77 -142 -94q-14 -3 -28 -4q-9 -1 -19 -1q-81 0 -310.5 47.5t-276.5 47.5q-6 0 -10 -1q-40 -8 -64 -43q-16 -24 -17 -51l-118 44q9 39 33 75q52 77 142 94q14 3 28 4q9 1 19 1q81 0 310.5 -47.5
t276.5 -47.5zM884 637q6 0 10 1q40 8 64 43q16 24 17 51l118 -44q-9 -39 -33 -75q-52 -77 -142 -94q-14 -3 -28 -4q-9 -1 -19 -1q-81 0 -310.5 47.5t-276.5 47.5q-6 0 -10 -1q-40 -8 -64 -43q-16 -24 -17 -51l-118 44q9 39 33 75q52 77 142 94q14 3 28 4q9 1 19 1
q81 0 310.5 -47.5t276.5 -47.5z" />
    <glyph glyph-name="notequal" unicode="&#x2260;" horiz-adv-x="1310" 
d="M909 929h224v-130h-346l-121 -130h467v-130h-588l-283 -303l-118 27l257 276h-223v130h344l122 130h-466v130h587l283 304l118 -28z" />
    <glyph glyph-name="lessequal" unicode="&#x2264;" horiz-adv-x="1200" 
d="M1100 279l-1000 466l1000 466v-144l-692 -322l692 -323v-143zM1100 130v-130h-955v130h955z" />
    <glyph glyph-name="greaterequal" unicode="&#x2265;" horiz-adv-x="1200" 
d="M100 422l692 323l-692 322v144l1000 -466l-1000 -466v143zM1055 130v-130h-955v130h955z" />
    <glyph glyph-name="uniFB01" unicode="&#xfb01;" horiz-adv-x="1048" 
d="M814 1076q29 0 56 -14.5t42.5 -42t15.5 -57.5t-15 -57t-42 -42t-57 -15t-57 15t-42 42t-15 57t15.5 57.5t42.5 42t56 14.5zM746 601h-422v-601h-138v601h-86v135h86v840q0 149 112 225q80 64 179 64q18 0 37 -2q49 -5 91 -24q61 -28 93 -73l-108 -74q-37 37 -91 43
q-10 1 -19 1q-52 0 -95 -34q-61 -50 -61 -133v-833h558v-736h-136v601z" />
    <glyph glyph-name="uniFB02" unicode="&#xfb02;" horiz-adv-x="1079" 
d="M581 1865q92 -4 168 -64q103 -70 111 -202h1v-1263q0 -123 61 -163q38 -30 82 -33v-140q-93 3 -169 64q-108 76 -112 225v1280q0 83 -61 133q-43 34 -95 34h-87q-52 0 -95 -34q-61 -50 -61 -133v-833h180v-135h-180v-601h-138v601h-86v135h86v840q0 149 112 225
q80 64 179 64h104z" />
    <glyph glyph-name="glyph216" horiz-adv-x="0" 
 />
    <glyph glyph-name="nonmarkingreturn" horiz-adv-x="508" 
 />
    <glyph glyph-name="brokenbar" unicode="&#xa6;" horiz-adv-x="280" 
d="M75 1900h130v-1139h-130v1139zM75 439h130v-1139h-130v1139z" />
    <glyph glyph-name="uni00B2" unicode="&#xb2;" 
d="M637 1074l-246 -394h354v-122h-590l338 541q65 114 65 137v14q0 51 -40 88q-46 42 -108 42t-109 -43q-8 -7 -34 -41l-95 88q21 23 35 36q83 76 203 76q49 0 92 -13q63 -19 113 -64q44 -41 64 -90q3 -7 6 -15q13 -37 13 -80q-7 -83 -61 -160z" />
    <glyph glyph-name="uni00B3" unicode="&#xb3;" 
d="M408 1226l93 148h-170v122h406l-175 -279q64 -17 136 -83q110 -102 110 -245t-111 -245.5t-271 -102.5q-154 0 -265 98l-3 3q-37 34 -68 80l101 93q31 -58 54 -81l7 -7q74 -68 174 -68q101 0 173.5 66.5t72.5 163.5q0 96 -73 165q-53 48 -122 61q-24 4 -51 4
q-21 0 -90 -9z" />
    <glyph glyph-name="uni00B9" unicode="&#xb9;" 
d="M434 1222h-109l249 396v-1038h-140v642z" />
    <glyph glyph-name="onequarter" unicode="&#xbc;" horiz-adv-x="1951" 
d="M334 1222h-109l249 396v-1038h-140v642zM1554 1885l148 -31l-1206 -1892l-147 30zM1473 192h-388l529 846v-724h103v-122h-103v-192h-141v192zM1473 558l-152 -244h152v244z" />
    <glyph glyph-name="onehalf" unicode="&#xbd;" horiz-adv-x="1951" 
d="M334 1222h-109l249 396v-1038h-140v642zM1554 1885l148 -31l-1206 -1892l-147 30zM1589 515l-246 -393h354v-122h-590l338 540q65 115 65 138v13q0 52 -40 89q-46 41 -108 41t-109 -43q-8 -7 -34 -40l-95 87q21 24 35 36q83 77 203 77q49 0 92 -13q63 -19 113 -65
q44 -40 64 -89q3 -7 6 -15q13 -38 13 -80q-7 -83 -61 -161z" />
    <glyph glyph-name="threequarters" unicode="&#xbe;" horiz-adv-x="1951" 
d="M308 1226l93 148h-170v122h406l-175 -279q64 -17 136 -83q110 -102 110 -245t-111 -245.5t-271 -102.5q-154 0 -265 98l-3 3q-37 34 -68 80l101 93q31 -58 54 -81l7 -7q74 -68 174 -68q101 0 173.5 66.5t72.5 163.5q0 96 -73 165q-53 48 -122 61q-24 4 -51 4
q-21 0 -90 -9zM1554 1885l148 -31l-1206 -1892l-147 30zM1473 192h-388l529 846v-724h103v-122h-103v-192h-141v192zM1473 558l-152 -244h152v244z" />
    <glyph glyph-name="Eth" unicode="&#xd0;" horiz-adv-x="1408" 
d="M394 1028h597v-132h-597v-756q38 1 76 6q338 43 548 312q175 224 175 496q0 54 -7 110q-42 337 -312 547q-217 169 -480 174v-757zM258 896h-183v132h183v889q61 7 120 7h16q311 -5 566 -204q316 -245 365 -638q8 -66 8 -129q0 -317 -205 -580q-245 -315 -642 -365
q-46 -6 -92 -7q-19 -1 -38 -1q-50 0 -98 5v891z" />
    <glyph glyph-name="multiply" unicode="&#xd7;" horiz-adv-x="1200" 
d="M600 826l291 292l92 -92l-291 -291l291 -292l-92 -92l-291 292l-292 -292l-92 91l292 293l-292 292l92 91z" />
    <glyph glyph-name="Yacute" unicode="&#xdd;" horiz-adv-x="1609" 
d="M737 607l-737 1257h157l648 -1120l647 1120h157l-736 -1257l-1 -607h-135v607zM681 2086l277 275l93 -93l-276 -276z" />
    <glyph glyph-name="Thorn" unicode="&#xde;" horiz-adv-x="1402" 
d="M211 1564h523v-2q238 -12 409 -183q184 -185 184 -445q0 -261 -184 -445q-171 -171 -409 -183v-5h-523v-301h-136v1864h136v-300zM211 1428v-992h496v3q200 3 342 145q145 145 145 350q0 204 -145 350q-133 133 -316 144h-522z" />
    <glyph glyph-name="eth" unicode="&#xf0;" horiz-adv-x="1233" 
d="M617 951q-179 0 -306 -127.5t-127 -305.5q0 -179 127 -306t306 -127q180 0 306.5 127t126.5 306q0 178 -126.5 305.5t-306.5 127.5zM774 1297l244 -378q165 -167 165 -401q0 -235 -165.5 -401t-400.5 -166q-234 0 -400.5 166t-166.5 401q0 234 166.5 400.5t400.5 166.5
q68 0 130 -14l-144 226h-299v130h216l-214 336h167l217 -336h269v-130h-185z" />
    <glyph glyph-name="yacute" unicode="&#xfd;" horiz-adv-x="1286" 
d="M1039 170q-10 -12 -21 -23q-155 -159 -380 -159q-91 0 -172 26q-116 39 -211 132q-83 83 -121 184q-34 81 -34 187v559h136v-578q15 -144 120 -249q117 -116 282 -116q164 0 280 116q114 114 121 271v556h137l-1 -1303q-3 -224 -157.5 -382.5t-379.5 -158.5
q-91 0 -172 26q-116 39 -211 132q-83 83 -121 184q-28 66 -28 183v16h137q8 -175 113 -280q117 -116 282 -116q164 0 280 116q114 114 121 271v406zM515 1294l277 275l93 -93l-276 -276z" />
    <glyph glyph-name="thorn" unicode="&#xfe;" horiz-adv-x="1235" 
d="M211 445q26 -109 111 -194q121 -122 294 -122q172 0 293.5 122t121.5 293q0 173 -121.5 294.5t-293.5 121.5q-173 0 -294 -122q-85 -84 -111 -194v-199zM211 -752h-136v2576h136v-916q10 11 20 21q160 159 385 159t384.5 -159t159.5 -385q0 -225 -159.5 -384.5
t-384.5 -159.5t-385 160q-10 10 -20 21v-933z" />
    <glyph glyph-name="Amacron" unicode="&#x100;" horiz-adv-x="1361" 
d="M379 601l-210 -601h-149l660 1884l661 -1884h-149l-211 601h-602zM934 736l-254 724l-253 -724h507zM453 2182h456v-130h-456v130z" />
    <glyph glyph-name="amacron" unicode="&#x101;" horiz-adv-x="1305" 
d="M1029 444v199q-26 109 -111 194q-121 122 -294 122q-171 0 -293 -121.5t-122 -293.5t122 -293.5t293 -121.5q173 0 294 121q85 85 111 194zM1029 907v165h136v-1072h-136v181l-20 -22q-160 -159 -385 -159t-384.5 159.5t-159.5 384.5t159.5 384.5t384.5 159.5t385 -159z
M395 1390h456v-130h-456v130z" />
    <glyph glyph-name="Abreve" unicode="&#x102;" horiz-adv-x="1361" 
d="M379 601l-210 -601h-149l660 1884l661 -1884h-149l-211 601h-602zM934 736l-254 724l-253 -724h507zM903 2263q1 -13 1 -26q0 -92 -65 -157.5t-158 -65.5q-92 0 -157.5 65.5t-65.5 157.5q0 13 1 26h125q-3 -12 -3 -26q0 -42 29.5 -71.5t70.5 -29.5q42 0 71.5 29.5
t29.5 71.5q0 14 -3 26h124z" />
    <glyph glyph-name="abreve" unicode="&#x103;" horiz-adv-x="1305" 
d="M1029 444v199q-26 109 -111 194q-121 122 -294 122q-171 0 -293 -121.5t-122 -293.5t122 -293.5t293 -121.5q173 0 294 121q85 85 111 194zM1029 907v165h136v-1072h-136v181l-20 -22q-160 -159 -385 -159t-384.5 159.5t-159.5 384.5t159.5 384.5t384.5 159.5t385 -159z
M845 1471q1 -13 1 -26q0 -92 -65 -157.5t-158 -65.5q-92 0 -157.5 65.5t-65.5 157.5q0 13 1 26h125q-3 -12 -3 -26q0 -42 29.5 -71.5t70.5 -29.5q42 0 71.5 29.5t29.5 71.5q0 14 -3 26h124z" />
    <glyph glyph-name="Aogonek" unicode="&#x104;" horiz-adv-x="1361" 
d="M934 736l-254 724l-253 -724h507zM1167 70l-186 531h-602l-210 -601h-149l660 1884l661 -1884h-121q-57 -67 -58 -150q1 -150 179 -174l-29 -121q-277 51 -280 250v9q2 127 135 256z" />
    <glyph glyph-name="aogonek" unicode="&#x105;" horiz-adv-x="1350" 
d="M1074 444v199q-26 109 -111 194q-121 122 -294 122q-171 0 -293 -121.5t-122 -293.5t122 -293.5t293 -121.5q173 0 294 121q85 85 111 194zM1074 104v77l-20 -22q-160 -159 -385 -159t-384.5 159.5t-159.5 384.5t159.5 384.5t384.5 159.5t385 -159l20 -22v165h136v-1072
h-121q-57 -67 -58 -150q1 -150 179 -174l-29 -121q-277 51 -280 250v9q3 144 173 290z" />
    <glyph glyph-name="Cacute" unicode="&#x106;" horiz-adv-x="2018" 
d="M1973 736q-74 -333 -344 -545q-256 -200 -570 -200q-63 0 -128 8q-389 49 -630 358q-201 259 -201 570q0 62 8 127q48 386 358 627q257 200 571 200q63 0 128 -8q183 -23 342 -109l-111 -108q-119 56 -250 72q-55 7 -108 7q-265 0 -482 -169q-262 -204 -302 -531
q-7 -54 -7 -107q0 -264 170 -481q203 -261 531 -303q55 -7 109 -7q265 0 482 169q216 169 283 430h151zM913 2086l277 275l93 -93l-276 -276z" />
    <glyph glyph-name="cacute" unicode="&#x107;" horiz-adv-x="1339" 
d="M1099 496h140q-16 -202 -162 -348q-162 -163 -394 -163q-231 0 -394.5 163t-163.5 393q0 229 163.5 392.5t394.5 163.5q109 0 207 -38l-96 -113q-55 14 -111 14q-171 0 -294 -123t-123 -296q0 -174 123 -296.5t294 -122.5q172 0 295 123q105 104 121 251zM559 1294
l277 275l93 -93l-276 -276z" />
    <glyph glyph-name="Ccircumflex" unicode="&#x108;" horiz-adv-x="2018" 
d="M1973 736q-74 -333 -344 -545q-256 -200 -570 -200q-63 0 -128 8q-389 49 -630 358q-201 259 -201 570q0 62 8 127q48 386 358 627q257 200 571 200q63 0 128 -8q183 -23 342 -109l-111 -108q-119 56 -250 72q-55 7 -108 7q-265 0 -482 -169q-262 -204 -302 -531
q-7 -54 -7 -107q0 -264 170 -481q203 -261 531 -303q55 -7 109 -7q265 0 482 169q216 169 283 430h151zM1213 1992l-175 148l-178 -148h-189l367 322l364 -322h-189z" />
    <glyph glyph-name="ccircumflex" unicode="&#x109;" horiz-adv-x="1339" 
d="M1099 496h140q-16 -202 -162 -348q-162 -163 -394 -163q-231 0 -394.5 163t-163.5 393q0 229 163.5 392.5t394.5 163.5q109 0 207 -38l-96 -113q-55 14 -111 14q-171 0 -294 -123t-123 -296q0 -174 123 -296.5t294 -122.5q172 0 295 123q105 104 121 251zM859 1200
l-175 148l-178 -148h-189l367 322l364 -322h-189z" />
    <glyph glyph-name="Cdotaccent" unicode="&#x10a;" horiz-adv-x="2018" 
d="M1973 736q-74 -333 -344 -545q-256 -200 -570 -200q-63 0 -128 8q-389 49 -630 358q-201 259 -201 570q0 62 8 127q48 386 358 627q257 200 571 200q63 0 128 -8q183 -23 342 -109l-111 -108q-119 56 -250 72q-55 7 -108 7q-265 0 -482 -169q-262 -204 -302 -531
q-7 -54 -7 -107q0 -264 170 -481q203 -261 531 -303q55 -7 109 -7q265 0 482 169q216 169 283 430h151zM1037 2250q29 0 56 -14.5t42.5 -42t15.5 -57.5t-15 -57t-42 -42t-57 -15t-57 15t-42 42t-15 57t15.5 57.5t42.5 42t56 14.5z" />
    <glyph glyph-name="cdotaccent" unicode="&#x10b;" horiz-adv-x="1339" 
d="M1099 496h140q-16 -202 -162 -348q-162 -163 -394 -163q-231 0 -394.5 163t-163.5 393q0 229 163.5 392.5t394.5 163.5q109 0 207 -38l-96 -113q-55 14 -111 14q-171 0 -294 -123t-123 -296q0 -174 123 -296.5t294 -122.5q172 0 295 123q105 104 121 251zM682 1458
q29 0 56 -14.5t42.5 -42t15.5 -57.5t-15 -57t-42 -42t-57 -15t-57 15t-42 42t-15 57t15.5 57.5t42.5 42t56 14.5z" />
    <glyph glyph-name="Ccaron" unicode="&#x10c;" horiz-adv-x="2018" 
d="M1973 736q-74 -333 -344 -545q-256 -200 -570 -200q-63 0 -128 8q-389 49 -630 358q-201 259 -201 570q0 62 8 127q48 386 358 627q257 200 571 200q63 0 128 -8q183 -23 342 -109l-111 -108q-119 56 -250 72q-55 7 -108 7q-265 0 -482 -169q-262 -204 -302 -531
q-7 -54 -7 -107q0 -264 170 -481q203 -261 531 -303q55 -7 109 -7q265 0 482 169q216 169 283 430h151zM1402 2314l-364 -322l-367 322h189l178 -148l175 148h189z" />
    <glyph glyph-name="ccaron" unicode="&#x10d;" horiz-adv-x="1339" 
d="M1099 496h140q-16 -202 -162 -348q-162 -163 -394 -163q-231 0 -394.5 163t-163.5 393q0 229 163.5 392.5t394.5 163.5q109 0 207 -38l-96 -113q-55 14 -111 14q-171 0 -294 -123t-123 -296q0 -174 123 -296.5t294 -122.5q172 0 295 123q105 104 121 251zM1048 1522
l-364 -322l-367 322h189l178 -148l175 148h189z" />
    <glyph glyph-name="Dcaron" unicode="&#x10e;" horiz-adv-x="1286" 
d="M236 1725v-1587q332 0 557 233t225 563q0 328 -218 566q-208 226 -531 226q-16 0 -33 -1zM100 5l2 1864h168q402 -27 633 -269q253 -279 253 -666q0 -389 -257 -660q-234 -234 -600 -269h-199zM994 2314l-364 -322l-367 322h189l178 -148l175 148h189z" />
    <glyph glyph-name="dcaron" unicode="&#x10f;" horiz-adv-x="1542" 
d="M1069 444v199q-26 109 -111 194q-121 122 -294 122q-171 0 -293 -121.5t-122 -293.5t122 -293.5t293 -121.5q173 0 294 121q85 85 111 194zM1069 907v957h136v-1864h-136v181l-20 -22q-160 -159 -385 -159t-384.5 159.5t-159.5 384.5t159.5 384.5t384.5 159.5t385 -159z
M1378 1710q-5 2 -11 5q-19 10 -29.5 29t-10.5 40t11 40.5t30 29.5t39 10t39 -10t32.5 -34.5t13.5 -59.5q-17 -149 -159 -277l-48 84q71 70 93 143z" />
    <glyph glyph-name="Dcroat" unicode="&#x110;" horiz-adv-x="1408" 
d="M394 1028h597v-132h-597v-756q38 1 76 6q338 43 548 312q175 224 175 496q0 54 -7 110q-42 337 -312 547q-217 169 -480 174v-757zM258 896h-183v132h183v889q61 7 120 7h16q311 -5 566 -204q316 -245 365 -638q8 -66 8 -129q0 -317 -205 -580q-245 -315 -642 -365
q-46 -6 -92 -7q-19 -1 -38 -1q-50 0 -98 5v891z" />
    <glyph glyph-name="dcroat" unicode="&#x111;" horiz-adv-x="1285" 
d="M1049 444v199q-26 109 -111 194q-121 122 -294 122q-171 0 -293 -121.5t-122 -293.5t122 -293.5t293 -121.5q173 0 294 121q85 85 111 194zM1185 1282v-1282h-136v181l-20 -22q-160 -159 -385 -159t-384.5 159.5t-159.5 384.5t159.5 384.5t384.5 159.5t385 -159l20 -22
v375h-494v130h494v452h136v-452h100v-130h-100z" />
    <glyph glyph-name="Emacron" unicode="&#x112;" horiz-adv-x="1174" 
d="M1124 1864v-136h-888v-991h275v-136h-275v-465h888v-136h-1024v1864h1024zM384 2182h456v-130h-456v130z" />
    <glyph glyph-name="emacron" unicode="&#x113;" horiz-adv-x="1292" 
d="M1020 736q-27 46 -67 87q-124 123 -298 123q-173 0 -296 -123q-41 -41 -68 -87h729zM1072 465h130q-19 -189 -158 -328q-161 -161 -389 -161q-227 0 -388.5 161t-161.5 389q0 227 161.5 388.5t388.5 161.5q228 0 389 -161q134 -135 156 -314h-959q-6 -37 -6 -75
q0 -174 123.5 -297t296.5 -123q174 0 298 123q101 101 119 236zM426 1390h456v-130h-456v130z" />
    <glyph glyph-name="Ebreve" unicode="&#x114;" horiz-adv-x="1174" 
d="M1124 1864v-136h-888v-991h275v-136h-275v-465h888v-136h-1024v1864h1024zM834 2263q1 -13 1 -26q0 -92 -65 -157.5t-158 -65.5q-92 0 -157.5 65.5t-65.5 157.5q0 13 1 26h125q-3 -12 -3 -26q0 -42 29.5 -71.5t70.5 -29.5q42 0 71.5 29.5t29.5 71.5q0 14 -3 26h124z" />
    <glyph glyph-name="ebreve" unicode="&#x115;" horiz-adv-x="1292" 
d="M1020 736q-27 46 -67 87q-124 123 -298 123q-173 0 -296 -123q-41 -41 -68 -87h729zM1072 465h130q-19 -189 -158 -328q-161 -161 -389 -161q-227 0 -388.5 161t-161.5 389q0 227 161.5 388.5t388.5 161.5q228 0 389 -161q134 -135 156 -314h-959q-6 -37 -6 -75
q0 -174 123.5 -297t296.5 -123q174 0 298 123q101 101 119 236zM876 1471q1 -13 1 -26q0 -92 -65 -157.5t-158 -65.5q-92 0 -157.5 65.5t-65.5 157.5q0 13 1 26h125q-3 -12 -3 -26q0 -42 29.5 -71.5t70.5 -29.5q42 0 71.5 29.5t29.5 71.5q0 14 -3 26h124z" />
    <glyph glyph-name="Edotaccent" unicode="&#x116;" horiz-adv-x="1174" 
d="M1124 1864v-136h-888v-991h275v-136h-275v-465h888v-136h-1024v1864h1024zM612 2250q29 0 56 -14.5t42.5 -42t15.5 -57.5t-15 -57t-42 -42t-57 -15t-57 15t-42 42t-15 57t15.5 57.5t42.5 42t56 14.5z" />
    <glyph glyph-name="edotaccent" unicode="&#x117;" horiz-adv-x="1337" 
d="M1035 736q-27 46 -67 87q-124 123 -298 123q-173 0 -296 -123q-41 -41 -68 -87h729zM1087 465h130q-19 -189 -158 -328q-161 -161 -389 -161q-227 0 -388.5 161t-161.5 389q0 227 161.5 388.5t388.5 161.5q228 0 389 -161q134 -135 156 -314h-959q-6 -37 -6 -75
q0 -174 123.5 -297t296.5 -123q174 0 298 123q101 101 119 236zM669 1458q29 0 56 -14.5t42.5 -42t15.5 -57.5t-15 -57t-42 -42t-57 -15t-57 15t-42 42t-15 57t15.5 57.5t42.5 42t56 14.5z" />
    <glyph glyph-name="Eogonek" unicode="&#x118;" horiz-adv-x="1174" 
d="M888 0h-788v1864h1024v-136h-888v-991h275v-136h-275v-465h888v-136h-121q-57 -67 -58 -150q1 -150 179 -174l-29 -121q-277 51 -280 250v9q2 93 73 186z" />
    <glyph glyph-name="eogonek" unicode="&#x119;" horiz-adv-x="1337" 
d="M1035 736q-27 46 -67 87q-124 123 -298 123q-173 0 -296 -123q-41 -41 -68 -87h729zM766 -16q-46 -8 -96 -8q-227 0 -388.5 161t-161.5 389q0 227 161.5 388.5t388.5 161.5q228 0 389 -161q134 -135 156 -314h-959q-6 -37 -6 -75q0 -174 123.5 -297t296.5 -123
q174 0 298 123q101 101 119 236h130q-19 -189 -158 -328q-57 -57 -123 -94q-97 -83 -98 -190q1 -149 179 -173l-29 -121q-277 50 -280 250v9q2 83 58 166z" />
    <glyph glyph-name="Ecaron" unicode="&#x11a;" horiz-adv-x="1174" 
d="M1124 1864v-136h-888v-991h275v-136h-275v-465h888v-136h-1024v1864h1024zM978 2314l-364 -322l-367 322h189l178 -148l175 148h189z" />
    <glyph glyph-name="ecaron" unicode="&#x11b;" horiz-adv-x="1337" 
d="M1035 736q-27 46 -67 87q-124 123 -298 123q-173 0 -296 -123q-41 -41 -68 -87h729zM1087 465h130q-19 -189 -158 -328q-161 -161 -389 -161q-227 0 -388.5 161t-161.5 389q0 227 161.5 388.5t388.5 161.5q228 0 389 -161q134 -135 156 -314h-959q-6 -37 -6 -75
q0 -174 123.5 -297t296.5 -123q174 0 298 123q101 101 119 236zM1034 1522l-364 -322l-367 322h189l178 -148l175 148h189z" />
    <glyph glyph-name="Gcircumflex" unicode="&#x11c;" horiz-adv-x="2043" 
d="M1993 736q-74 -333 -344 -545q-256 -200 -570 -200q-63 0 -128 8q-389 49 -630 358q-201 259 -201 570q0 62 8 127q48 386 358 627q257 200 571 200q63 0 128 -8q183 -23 343 -109l-111 -108q-120 56 -251 72q-55 7 -108 7q-264 0 -482 -169q-261 -204 -302 -531
q-7 -54 -7 -107q0 -264 170 -481q203 -261 531 -303q56 -7 109 -7q266 0 482 169q157 123 235 294h-486v136h685zM1233 1992l-175 148l-178 -148h-189l367 322l364 -322h-189z" />
    <glyph glyph-name="gcircumflex" unicode="&#x11d;" horiz-adv-x="1262" 
d="M642 929q-159 0 -272.5 -114t-113.5 -273t113.5 -272.5t272.5 -113.5q161 0 274.5 113.5t113.5 272.5t-113.5 273t-274.5 114zM470 -76l73 114q-147 26 -262 142q-151 150 -151 362q0 213 150.5 363.5t361.5 150.5q214 0 363 -151q14 -13 23 -25l39 52l95 -90l-55 -79
q48 -100 48 -221q0 -212 -150 -362q-132 -132 -310 -148l-29 -45h10q63 0 128 -23q145 -51 212 -190q37 -79 37 -159q0 -62 -23 -126q-51 -145 -191 -211q-79 -37 -160 -37q-62 0 -125 22q-69 25 -139 86l111 64q36 -25 68 -37q41 -15 83 -15q54 0 108 26q95 45 129 143
q16 44 16 87q0 54 -25 106q-45 94 -141 128q-43 15 -85 15q-55 0 -108 -25zM823 1200l-175 148l-178 -148h-189l367 322l364 -322h-189z" />
    <glyph glyph-name="Gbreve" unicode="&#x11e;" horiz-adv-x="2043" 
d="M1993 736q-74 -333 -344 -545q-256 -200 -570 -200q-63 0 -128 8q-389 49 -630 358q-201 259 -201 570q0 62 8 127q48 386 358 627q257 200 571 200q63 0 128 -8q183 -23 343 -109l-111 -108q-120 56 -251 72q-55 7 -108 7q-264 0 -482 -169q-261 -204 -302 -531
q-7 -54 -7 -107q0 -264 170 -481q203 -261 531 -303q56 -7 109 -7q266 0 482 169q157 123 235 294h-486v136h685zM1279 2263q1 -13 1 -26q0 -92 -65 -157.5t-158 -65.5q-92 0 -157.5 65.5t-65.5 157.5q0 13 1 26h125q-3 -12 -3 -26q0 -42 29.5 -71.5t70.5 -29.5
q42 0 71.5 29.5t29.5 71.5q0 14 -3 26h124z" />
    <glyph glyph-name="gbreve" unicode="&#x11f;" horiz-adv-x="1262" 
d="M642 929q-159 0 -272.5 -114t-113.5 -273t113.5 -272.5t272.5 -113.5q161 0 274.5 113.5t113.5 272.5t-113.5 273t-274.5 114zM470 -76l73 114q-147 26 -262 142q-151 150 -151 362q0 213 150.5 363.5t361.5 150.5q214 0 363 -151q14 -13 23 -25l39 52l95 -90l-55 -79
q48 -100 48 -221q0 -212 -150 -362q-132 -132 -310 -148l-29 -45h10q63 0 128 -23q145 -51 212 -190q37 -79 37 -159q0 -62 -23 -126q-51 -145 -191 -211q-79 -37 -160 -37q-62 0 -125 22q-69 25 -139 86l111 64q36 -25 68 -37q41 -15 83 -15q54 0 108 26q95 45 129 143
q16 44 16 87q0 54 -25 106q-45 94 -141 128q-43 15 -85 15q-55 0 -108 -25zM868 1471q1 -13 1 -26q0 -92 -65 -157.5t-158 -65.5q-92 0 -157.5 65.5t-65.5 157.5q0 13 1 26h125q-3 -12 -3 -26q0 -42 29.5 -71.5t70.5 -29.5q42 0 71.5 29.5t29.5 71.5q0 14 -3 26h124z" />
    <glyph glyph-name="Gdotaccent" unicode="&#x120;" horiz-adv-x="2043" 
d="M1993 736q-74 -333 -344 -545q-256 -200 -570 -200q-63 0 -128 8q-389 49 -630 358q-201 259 -201 570q0 62 8 127q48 386 358 627q257 200 571 200q63 0 128 -8q183 -23 343 -109l-111 -108q-120 56 -251 72q-55 7 -108 7q-264 0 -482 -169q-261 -204 -302 -531
q-7 -54 -7 -107q0 -264 170 -481q203 -261 531 -303q56 -7 109 -7q266 0 482 169q157 123 235 294h-486v136h685zM1057 2250q29 0 56 -14.5t42.5 -42t15.5 -57.5t-15 -57t-42 -42t-57 -15t-57 15t-42 42t-15 57t15.5 57.5t42.5 42t56 14.5z" />
    <glyph glyph-name="gdotaccent" unicode="&#x121;" horiz-adv-x="1262" 
d="M642 929q-159 0 -272.5 -114t-113.5 -273t113.5 -272.5t272.5 -113.5q161 0 274.5 113.5t113.5 272.5t-113.5 273t-274.5 114zM470 -76l73 114q-147 26 -262 142q-151 150 -151 362q0 213 150.5 363.5t361.5 150.5q214 0 363 -151q14 -13 23 -25l39 52l95 -90l-55 -79
q48 -100 48 -221q0 -212 -150 -362q-132 -132 -310 -148l-29 -45h10q63 0 128 -23q145 -51 212 -190q37 -79 37 -159q0 -62 -23 -126q-51 -145 -191 -211q-79 -37 -160 -37q-62 0 -125 22q-69 25 -139 86l111 64q36 -25 68 -37q41 -15 83 -15q54 0 108 26q95 45 129 143
q16 44 16 87q0 54 -25 106q-45 94 -141 128q-43 15 -85 15q-55 0 -108 -25zM646 1458q29 0 56 -14.5t42.5 -42t15.5 -57.5t-15 -57t-42 -42t-57 -15t-57 15t-42 42t-15 57t15.5 57.5t42.5 42t56 14.5z" />
    <glyph glyph-name="Gcommaaccent" unicode="&#x122;" horiz-adv-x="2043" 
d="M1993 736q-74 -333 -344 -545q-256 -200 -570 -200q-63 0 -128 8q-389 49 -630 358q-201 259 -201 570q0 62 8 127q48 386 358 627q257 200 571 200q63 0 128 -8q183 -23 343 -109l-111 -108q-120 56 -251 72q-55 7 -108 7q-264 0 -482 -169q-261 -204 -302 -531
q-7 -54 -7 -107q0 -264 170 -481q203 -261 531 -303q56 -7 109 -7q266 0 482 169q157 123 235 294h-486v136h685zM1046 -262q-5 2 -11 5q-19 11 -29.5 29.5t-10.5 39.5t11 40.5t30 29.5t39 10t39 -10t32.5 -34t13.5 -60q-17 -149 -159 -277l-48 84q71 70 93 143z" />
    <glyph glyph-name="gcommaaccent" unicode="&#x123;" horiz-adv-x="1262" 
d="M642 929q-159 0 -272.5 -114t-113.5 -273t113.5 -272.5t272.5 -113.5q161 0 274.5 113.5t113.5 272.5t-113.5 273t-274.5 114zM470 -76l73 114q-147 26 -262 142q-151 150 -151 362q0 213 150.5 363.5t361.5 150.5q214 0 363 -151q14 -13 23 -25l39 52l95 -90l-55 -79
q48 -100 48 -221q0 -212 -150 -362q-132 -132 -310 -148l-29 -45h10q63 0 128 -23q145 -51 212 -190q37 -79 37 -159q0 -62 -23 -126q-51 -145 -191 -211q-79 -37 -160 -37q-62 0 -125 22q-69 25 -139 86l111 64q36 -25 68 -37q41 -15 83 -15q54 0 108 26q95 45 129 143
q16 44 16 87q0 54 -25 106q-45 94 -141 128q-43 15 -85 15q-55 0 -108 -25zM657 1365q6 -2 11 -5q19 -10 29.5 -29t10.5 -40t-10.5 -40t-29.5 -29.5t-40 -10.5q-20 0 -39 10.5t-32.5 34.5t-13.5 60q18 148 160 276l47 -84q-70 -69 -93 -143z" />
    <glyph glyph-name="Hcircumflex" unicode="&#x124;" horiz-adv-x="1274" 
d="M1149 0h-136v601h-752v-601h-136v1864h136v-1127h752v1127h136v-1864zM814 1992l-175 148l-178 -148h-189l367 322l364 -322h-189z" />
    <glyph glyph-name="hcircumflex" unicode="&#x125;" horiz-adv-x="1326" 
d="M261 905q11 13 23 25q154 158 379 158q91 0 172 -26q116 -39 211 -132q83 -83 121 -184q34 -81 34 -187v-559h-136v578q-15 144 -120 249q-117 116 -282 116q-164 0 -280 -116q-114 -114 -121 -271v-556h-137v1864h136v-959zM840 2039l-175 148l-178 -148h-189l367 322
l364 -322h-189z" />
    <glyph glyph-name="Hbar" unicode="&#x126;" horiz-adv-x="1274" 
d="M1149 1534v-1534h-136v601h-752v-601h-136v1534h-100v130h100v200h136v-200h752v200h136v-200h100v-130h-100zM261 1534v-797h752v797h-752z" />
    <glyph glyph-name="hbar" unicode="&#x127;" horiz-adv-x="1326" 
d="M261 1482v-577q11 13 23 25q154 158 379 158q91 0 172 -26q116 -39 211 -132q83 -83 121 -184q34 -81 34 -187v-559h-136v578q-15 144 -120 249q-117 116 -282 116q-164 0 -280 -116q-114 -114 -121 -271v-556h-137v1482h-110v130h110v252h136v-252h684v-130h-684z" />
    <glyph glyph-name="Itilde" unicode="&#x128;" horiz-adv-x="386" 
d="M125 0v1864h136v-1864h-136zM459 2095q-52 -77 -142 -94q-14 -3 -28 -4q-9 -1 -17 -1q-66 0 -100.5 41t-66.5 41q-4 0 -8 -1q-41 -8 -64 -42q-10 -16 -15 -32l-114 44q9 28 27 55q51 76 142 95q14 2 28 3q8 1 17 1q64 0 99.5 -41t67.5 -41q4 0 8 1q40 8 64 43
q16 24 17 51l118 -44q-9 -39 -33 -75z" />
    <glyph glyph-name="itilde" unicode="&#x129;" horiz-adv-x="336" 
d="M236 736v-736h-136v736h136zM429 995q-52 -77 -142 -94q-14 -3 -28 -4q-9 -1 -17 -1q-66 0 -100.5 41t-66.5 41q-4 0 -8 -1q-41 -8 -64 -42q-10 -16 -15 -32l-114 44q9 28 27 55q51 76 142 95q14 2 28 3q8 1 17 1q64 0 99.5 -41t67.5 -41q4 0 8 1q40 8 64 43q16 24 17 51
l118 -44q-9 -39 -33 -75z" />
    <glyph glyph-name="Imacron" unicode="&#x12a;" horiz-adv-x="386" 
d="M125 0v1864h136v-1864h-136zM-34 2182h456v-130h-456v130z" />
    <glyph glyph-name="imacron" unicode="&#x12b;" horiz-adv-x="286" 
d="M211 736v-736h-136v736h136zM-35 1090h356v-130h-356v130z" />
    <glyph glyph-name="Ibreve" unicode="&#x12c;" horiz-adv-x="386" 
d="M125 0v1864h136v-1864h-136zM416 2263q1 -13 1 -26q0 -92 -65 -157.5t-158 -65.5q-92 0 -157.5 65.5t-65.5 157.5q0 13 1 26h125q-3 -12 -3 -26q0 -42 29.5 -71.5t70.5 -29.5q42 0 71.5 29.5t29.5 71.5q0 14 -3 26h124z" />
    <glyph glyph-name="ibreve" unicode="&#x12d;" horiz-adv-x="286" 
d="M211 736v-736h-136v736h136zM365 1171q1 -13 1 -26q0 -92 -65 -157.5t-158 -65.5q-92 0 -157.5 65.5t-65.5 157.5q0 13 1 26h125q-3 -12 -3 -26q0 -42 29.5 -71.5t70.5 -29.5q42 0 71.5 29.5t29.5 71.5q0 14 -3 26h124z" />
    <glyph glyph-name="Iogonek" unicode="&#x12e;" horiz-adv-x="386" 
d="M125 104v1760h136v-1864h-121q-57 -67 -58 -150q1 -150 179 -174l-29 -121q-277 51 -280 250v9q3 144 173 290z" />
    <glyph glyph-name="iogonek" unicode="&#x12f;" horiz-adv-x="468" 
d="M234 1076q29 0 56 -14.5t42.5 -42t15.5 -57.5t-15 -57t-42 -42t-57 -15t-57 15t-42 42t-15 57t15.5 57.5t42.5 42t56 14.5zM166 71v665h136v-736h-85q-57 -67 -58 -150q1 -150 179 -174l-29 -121q-277 51 -280 250v9q2 128 137 257z" />
    <glyph glyph-name="Idotaccent" unicode="&#x130;" horiz-adv-x="386" 
d="M125 0v1864h136v-1864h-136zM193 2250q29 0 56 -14.5t42.5 -42t15.5 -57.5t-15 -57t-42 -42t-57 -15t-57 15t-42 42t-15 57t15.5 57.5t42.5 42t56 14.5z" />
    <glyph glyph-name="IJ" unicode="&#x132;" horiz-adv-x="910" 
d="M125 0v1864h136v-1864h-136zM196 -152q36 -27 78 -38q40 -11 78 -11q71 0 136 39q99 60 99 218v1808h138v-1814q0 -214 -142 -314q-100 -71 -223 -71q-52 0 -107 12q-71 16 -127 52z" />
    <glyph glyph-name="ij" unicode="&#x133;" horiz-adv-x="905" 
d="M324 736v-736h-136v736h136zM256 1076q29 0 56 -14.5t42.5 -42t15.5 -57.5t-15 -57t-42 -42t-57 -15t-57 15t-42 42t-15 57t15.5 57.5t42.5 42t56 14.5zM691 1076q29 0 56 -14.5t42.5 -42t15.5 -57.5t-15 -57t-42 -42t-57 -15t-57 15t-42 42t-15 57t15.5 57.5t42.5 42
t56 14.5zM619 -387v1123h138v-1141q-17 -172 -137 -267q-107 -85 -241 -85q-18 0 -37 2q-65 5 -120 30q-60 25 -117 81l100 86q66 -61 149 -69q11 -1 22 -1q86 0 156 57q78 64 87 184z" />
    <glyph glyph-name="Jcircumflex" unicode="&#x134;" horiz-adv-x="524" 
d="M-190 -152q36 -27 78 -38q40 -11 78 -11q71 0 136 39q99 60 99 218v1808h138v-1814q0 -214 -142 -314q-100 -71 -223 -71q-52 0 -107 12q-71 16 -127 52zM360 2000l-105 118l-108 -118h-189l297 322l294 -322h-189z" />
    <glyph glyph-name="jcircumflex" unicode="&#x135;" horiz-adv-x="430" 
d="M144 -387v1123h138v-1141h-2v-5q-15 -167 -135 -262q-107 -85 -241 -85q-18 0 -37 2q-65 5 -120 30q-60 25 -117 81l100 86q66 -61 149 -69q11 -1 22 -1q86 0 156 57q78 64 86 161q0 12 1 23zM320 900l-105 118l-108 -118h-189l297 322l294 -322h-189z" />
    <glyph glyph-name="Kcommaaccent" unicode="&#x136;" horiz-adv-x="1615" 
d="M810 925l-534 -925h-136v1864h136v-1591l919 1591h157l-470 -815q232 -68 416 -251q292 -293 292 -705v-93h-137v93q0 353 -251 606q-171 171 -392 226zM855 -262q-5 2 -11 5q-19 11 -29.5 29.5t-10.5 39.5t11 40.5t30 29.5t39 10t39 -10t32.5 -34t13.5 -60
q-17 -149 -159 -277l-48 84q71 70 93 143z" />
    <glyph glyph-name="kcommaaccent" unicode="&#x137;" horiz-adv-x="1154" 
d="M540 518l-299 -518h-136v1864h136v-1591l464 803h157l-253 -438q149 -33 264 -148q161 -162 161 -389v-101h-129v101q0 173 -123 297q-103 103 -242 120zM559 -262q-5 2 -11 5q-19 11 -29.5 29.5t-10.5 39.5t11 40.5t30 29.5t39 10t39 -10t32.5 -34t13.5 -60
q-17 -149 -159 -277l-48 84q71 70 93 143z" />
    <glyph glyph-name="kgreenlandic" unicode="&#x138;" horiz-adv-x="1154" 
d="M540 518l-299 -518h-136v1864h136v-1591l464 803h157l-253 -438q149 -33 264 -148q161 -162 161 -389v-101h-129v101q0 173 -123 297q-103 103 -242 120z" />
    <glyph glyph-name="Lacute" unicode="&#x139;" horiz-adv-x="836" 
d="M306 136h530v-136h-666v1864h136v-1728zM380 2086l277 275l93 -93l-276 -276z" />
    <glyph glyph-name="lacute" unicode="&#x13a;" horiz-adv-x="506" 
d="M432 0q-93 3 -169 64q-108 76 -112 225v1575h138v-1528q0 -123 61 -163q38 -30 82 -33v-140zM106 2086l277 275l93 -93l-276 -276z" />
    <glyph glyph-name="Lcommaaccent" unicode="&#x13b;" horiz-adv-x="836" 
d="M306 136h530v-136h-666v1864h136v-1728zM493 -262q-5 2 -11 5q-19 11 -29.5 29.5t-10.5 39.5t11 40.5t30 29.5t39 10t39 -10t32.5 -34t13.5 -60q-17 -149 -159 -277l-48 84q71 70 93 143z" />
    <glyph glyph-name="lcommaaccent" unicode="&#x13c;" horiz-adv-x="506" 
d="M431 0q-93 3 -169 64q-108 76 -112 225v1575h138v-1528q0 -123 61 -163q38 -30 82 -33v-140zM280 -262q-5 2 -11 5q-19 11 -29.5 29.5t-10.5 39.5t11 40.5t30 29.5t39 10t39 -10t32.5 -34t13.5 -60q-17 -149 -159 -277l-48 84q71 70 93 143z" />
    <glyph glyph-name="Lcaron" unicode="&#x13d;" horiz-adv-x="836" 
d="M306 136h530v-136h-666v1864h136v-1728zM622 1710q-5 2 -11 5q-19 10 -29.5 29t-10.5 40t11 40.5t30 29.5t39 10t39 -10t32.5 -34.5t13.5 -59.5q-17 -149 -159 -277l-48 84q71 70 93 143z" />
    <glyph glyph-name="lcaron" unicode="&#x13e;" horiz-adv-x="713" 
d="M431 0q-93 3 -169 64q-108 76 -112 225v1575h138v-1528q0 -123 61 -163q38 -30 82 -33v-140zM549 1710q-5 2 -11 5q-19 10 -29.5 29t-10.5 40t11 40.5t30 29.5t39 10t39 -10t32.5 -34.5t13.5 -59.5q-17 -149 -159 -277l-48 84q71 70 93 143z" />
    <glyph glyph-name="Ldot" unicode="&#x13f;" horiz-adv-x="836" 
d="M306 136h530v-136h-666v1864h136v-1728zM654 1046q29 0 56 -14.5t42.5 -42t15.5 -57.5t-15 -57t-42 -42t-57 -15t-57 15t-42 42t-15 57t15.5 57.5t42.5 42t56 14.5z" />
    <glyph glyph-name="ldot" unicode="&#x140;" horiz-adv-x="734" 
d="M431 0q-93 3 -169 64q-108 76 -112 225v1575h138v-1528q0 -123 61 -163q38 -30 82 -33v-140zM545 1046q29 0 56 -14.5t42.5 -42t15.5 -57.5t-15 -57t-42 -42t-57 -15t-57 15t-42 42t-15 57t15.5 57.5t42.5 42t56 14.5z" />
    <glyph glyph-name="Lslash" unicode="&#x141;" horiz-adv-x="836" 
d="M306 558v-422h530v-136h-666v518l-170 -51v130l170 51v1216h136v-1176l524 157v-130z" />
    <glyph glyph-name="lslash" unicode="&#x142;" horiz-adv-x="506" 
d="M288 553v-257l2 -20q9 -63 59 -103q38 -30 82 -33v-140q-93 3 -169 64q-95 76 -110 196q-1 8 -1 15t1 14h-2v223l-150 -45v130l150 45v1222h138v-1181l134 40v-130z" />
    <glyph glyph-name="Nacute" unicode="&#x143;" horiz-adv-x="1284" 
d="M1096 0l-830 1437v-1437h-136v1853h53l835 -1447v1458h136v-1864h-58zM519 2086l277 275l93 -93l-276 -276z" />
    <glyph glyph-name="nacute" unicode="&#x144;" horiz-adv-x="1281" 
d="M251 905q177 183 402 183q91 0 172 -26q116 -39 211 -132q83 -83 121 -184q34 -81 34 -187v-559h-136v578q-15 144 -120 249q-117 116 -282 116q-164 0 -280 -116q-114 -114 -121 -271v-556h-137v1076h136v-171zM530 1294l277 275l93 -93l-276 -276z" />
    <glyph glyph-name="Ncommaaccent" unicode="&#x145;" horiz-adv-x="1284" 
d="M1096 0l-830 1437v-1437h-136v1853h53l835 -1447v1458h136v-1864h-58zM632 -262q-5 2 -11 5q-19 11 -29.5 29.5t-10.5 39.5t11 40.5t30 29.5t39 10t39 -10t32.5 -34t13.5 -60q-17 -149 -159 -277l-48 84q71 70 93 143z" />
    <glyph glyph-name="ncommaaccent" unicode="&#x146;" horiz-adv-x="1281" 
d="M251 905q177 183 402 183q91 0 172 -26q116 -39 211 -132q83 -83 121 -184q34 -81 34 -187v-559h-136v578q-15 144 -120 249q-117 116 -282 116q-164 0 -280 -116q-114 -114 -121 -271v-556h-137v1076h136v-171zM643 -262q-5 2 -11 5q-19 11 -29.5 29.5t-10.5 39.5
t11 40.5t30 29.5t39 10t39 -10t32.5 -34t13.5 -60q-17 -149 -159 -277l-48 84q71 70 93 143z" />
    <glyph glyph-name="Ncaron" unicode="&#x147;" horiz-adv-x="1284" 
d="M1096 0l-830 1437v-1437h-136v1853h53l835 -1447v1458h136v-1864h-58zM1008 2314l-364 -322l-367 322h189l178 -148l175 148h189z" />
    <glyph glyph-name="ncaron" unicode="&#x148;" horiz-adv-x="1281" 
d="M251 905q177 183 402 183q91 0 172 -26q116 -39 211 -132q83 -83 121 -184q34 -81 34 -187v-559h-136v578q-15 144 -120 249q-117 116 -282 116q-164 0 -280 -116q-114 -114 -121 -271v-556h-137v1076h136v-171zM1019 1522l-364 -322l-367 322h189l178 -148l175 148h189z
" />
    <glyph glyph-name="napostrophe" unicode="&#x149;" horiz-adv-x="1488" 
d="M243 1438q-5 2 -11 5q-19 11 -29.5 29.5t-10.5 39.5t11 40.5t30 29.5t39 10t39 -10t32.5 -34t13.5 -60q-17 -149 -159 -277l-48 84q71 70 93 143zM458 905q177 183 402 183q91 0 172 -26q116 -39 211 -132q83 -83 121 -184q34 -81 34 -187v-559h-136v578
q-15 144 -120 249q-117 116 -282 116q-164 0 -280 -116q-114 -114 -121 -271v-556h-137v1076h136v-171z" />
    <glyph glyph-name="Eng" unicode="&#x14a;" horiz-adv-x="1284" 
d="M1018 736v1128h136v-2269q-17 -172 -136 -267q-107 -85 -241 -85q-18 0 -37 2q-65 5 -120 30q-60 25 -117 81l100 86q66 -61 149 -69q11 -1 22 -1q86 0 156 57q78 64 87 184v524l-751 1300v-1437h-136v1853h53l834 -1445v328h1z" />
    <glyph glyph-name="eng" unicode="&#x14b;" horiz-adv-x="1281" 
d="M1055 578q-15 144 -120 249q-117 116 -282 116q-164 0 -280 -116q-114 -114 -121 -271v-556h-137v1076h136v-171q177 183 402 183q91 0 172 -26q116 -39 211 -132q83 -83 121 -184q34 -81 34 -187v-964q-17 -172 -135 -267q-107 -85 -241 -85q-18 0 -37 2q-65 5 -120 30
q-60 25 -117 81l100 86q66 -61 149 -69q11 -1 22 -1q86 0 156 57q78 64 87 184v965z" />
    <glyph glyph-name="Omacron" unicode="&#x14c;" horiz-adv-x="2194" 
d="M1097 1785q-350 0 -599.5 -250t-249.5 -599q0 -351 249.5 -600t599.5 -249q353 0 602 249t249 600q0 349 -249 599t-602 250zM2094 936q0 -413 -292 -705t-705 -292q-411 0 -704 292t-293 705q0 412 293 704.5t704 292.5q413 0 705 -292.5t292 -704.5zM869 2182h456v-130
h-456v130z" />
    <glyph glyph-name="omacron" unicode="&#x14d;" horiz-adv-x="1293" 
d="M647 951q-179 0 -306 -127.5t-127 -305.5q0 -179 127 -306t306 -127q180 0 306.5 127t126.5 306q0 178 -126.5 305.5t-306.5 127.5zM1213 518q0 -235 -165.5 -401t-400.5 -166q-234 0 -400.5 166t-166.5 401q0 234 166.5 400.5t400.5 166.5q235 0 400.5 -166.5
t165.5 -400.5zM419 1390h456v-130h-456v130z" />
    <glyph glyph-name="Obreve" unicode="&#x14e;" horiz-adv-x="2194" 
d="M1097 1785q-350 0 -599.5 -250t-249.5 -599q0 -351 249.5 -600t599.5 -249q353 0 602 249t249 600q0 349 -249 599t-602 250zM2094 936q0 -413 -292 -705t-705 -292q-411 0 -704 292t-293 705q0 412 293 704.5t704 292.5q413 0 705 -292.5t292 -704.5zM1319 2263
q1 -13 1 -26q0 -92 -65 -157.5t-158 -65.5q-92 0 -157.5 65.5t-65.5 157.5q0 13 1 26h125q-3 -12 -3 -26q0 -42 29.5 -71.5t70.5 -29.5q42 0 71.5 29.5t29.5 71.5q0 14 -3 26h124z" />
    <glyph glyph-name="obreve" unicode="&#x14f;" horiz-adv-x="1293" 
d="M647 951q-179 0 -306 -127.5t-127 -305.5q0 -179 127 -306t306 -127q180 0 306.5 127t126.5 306q0 178 -126.5 305.5t-306.5 127.5zM1213 518q0 -235 -165.5 -401t-400.5 -166q-234 0 -400.5 166t-166.5 401q0 234 166.5 400.5t400.5 166.5q235 0 400.5 -166.5
t165.5 -400.5zM869 1471q1 -13 1 -26q0 -92 -65 -157.5t-158 -65.5q-92 0 -157.5 65.5t-65.5 157.5q0 13 1 26h125q-3 -12 -3 -26q0 -42 29.5 -71.5t70.5 -29.5q42 0 71.5 29.5t29.5 71.5q0 14 -3 26h124z" />
    <glyph glyph-name="Ohungarumlaut" unicode="&#x150;" horiz-adv-x="2194" 
d="M1097 1785q-350 0 -599.5 -250t-249.5 -599q0 -351 249.5 -600t599.5 -249q353 0 602 249t249 600q0 349 -249 599t-602 250zM2094 936q0 -413 -292 -705t-705 -292q-411 0 -704 292t-293 705q0 412 293 704.5t704 292.5q413 0 705 -292.5t292 -704.5zM705 2070l303 273
l89 -98l-304 -273zM1097 2070l303 273l89 -98l-304 -273z" />
    <glyph glyph-name="ohungarumlaut" unicode="&#x151;" horiz-adv-x="1293" 
d="M647 951q-179 0 -306 -127.5t-127 -305.5q0 -179 127 -306t306 -127q180 0 306.5 127t126.5 306q0 178 -126.5 305.5t-306.5 127.5zM1213 518q0 -235 -165.5 -401t-400.5 -166q-234 0 -400.5 166t-166.5 401q0 234 166.5 400.5t400.5 166.5q235 0 400.5 -166.5
t165.5 -400.5zM255 1278l303 273l89 -98l-304 -273zM647 1278l303 273l89 -98l-304 -273z" />
    <glyph glyph-name="Racute" unicode="&#x154;" horiz-adv-x="1425" 
d="M730 736v3q200 3 342 145q145 145 145 350q0 204 -145 350q-133 133 -316 144h-520v-992h494zM801 610q-22 -3 -44 -4v-5h-521v-601h-136v1864h657v-2q238 -12 409 -183q184 -185 184 -445q0 -261 -184 -445q-101 -101 -226 -147l370 -642h-157zM602 2086l277 275l93 -93
l-276 -276z" />
    <glyph glyph-name="racute" unicode="&#x155;" horiz-adv-x="688" 
d="M286 905q177 183 402 183v-145q-164 0 -280 -116q-114 -114 -121 -271v-556h-137v1076h136v-171zM296 1294l277 275l93 -93l-276 -276z" />
    <glyph glyph-name="Rcommaaccent" unicode="&#x156;" horiz-adv-x="1425" 
d="M730 736v3q200 3 342 145q145 145 145 350q0 204 -145 350q-133 133 -316 144h-520v-992h494zM801 610q-22 -3 -44 -4v-5h-521v-601h-136v1864h657v-2q238 -12 409 -183q184 -185 184 -445q0 -261 -184 -445q-101 -101 -226 -147l370 -642h-157zM715 -262q-5 2 -11 5
q-19 11 -29.5 29.5t-10.5 39.5t11 40.5t30 29.5t39 10t39 -10t32.5 -34t13.5 -60q-17 -149 -159 -277l-48 84q71 70 93 143z" />
    <glyph glyph-name="rcommaaccent" unicode="&#x157;" horiz-adv-x="688" 
d="M286 905q177 183 402 183v-145q-164 0 -280 -116q-114 -114 -121 -271v-556h-137v1076h136v-171zM309 -262q-5 2 -11 5q-19 11 -29.5 29.5t-10.5 39.5t11 40.5t30 29.5t39 10t39 -10t32.5 -34t13.5 -60q-17 -149 -159 -277l-48 84q71 70 93 143z" />
    <glyph glyph-name="Rcaron" unicode="&#x158;" horiz-adv-x="1425" 
d="M730 736v3q200 3 342 145q145 145 145 350q0 204 -145 350q-133 133 -316 144h-520v-992h494zM801 610q-22 -3 -44 -4v-5h-521v-601h-136v1864h657v-2q238 -12 409 -183q184 -185 184 -445q0 -261 -184 -445q-101 -101 -226 -147l370 -642h-157zM1091 2314l-364 -322
l-367 322h189l178 -148l175 148h189z" />
    <glyph glyph-name="rcaron" unicode="&#x159;" horiz-adv-x="688" 
d="M286 905q177 183 402 183v-145q-164 0 -280 -116q-114 -114 -121 -271v-556h-137v1076h136v-171zM785 1522l-364 -322l-367 322h189l178 -148l175 148h189z" />
    <glyph glyph-name="Sacute" unicode="&#x15a;" horiz-adv-x="1029" 
d="M925 1683q-81 78 -182 78h-10q-113 -5 -190.5 -86t-77.5 -192q0 -41 28 -173l187 -754q27 -127 28 -168q-2 -170 -122.5 -295.5t-290.5 -132.5h-18q-158 0 -277 116l103 106q80 -78 182 -78h10q113 5 190 86t78 192q-1 39 -27 165q-216 816 -216 930q1 170 121.5 295.5
t290.5 132.5h18q159 0 279 -116zM491 2086l277 275l93 -93l-276 -276z" />
    <glyph glyph-name="sacute" unicode="&#x15b;" horiz-adv-x="631" 
d="M532 860q-58 55 -99 55q-40 -2 -70.5 -34.5t-31.5 -84.5q0 -20 12 -79l92 -388q13 -68 13 -91q-2 -98 -74.5 -174t-186.5 -82q-99 0 -187 85l100 104q57 -55 93 -55q46 2 76.5 34t31.5 80q0 18 -12 79q-106 418 -106 484q2 97 74 173t188 82q98 0 186 -85zM292 1294
l277 275l93 -93l-276 -276z" />
    <glyph glyph-name="Scircumflex" unicode="&#x15c;" horiz-adv-x="1029" 
d="M925 1683q-81 78 -182 78h-10q-113 -5 -190.5 -86t-77.5 -192q0 -41 28 -173l187 -754q27 -127 28 -168q-2 -170 -122.5 -295.5t-290.5 -132.5h-18q-158 0 -277 116l103 106q80 -78 182 -78h10q113 5 190 86t78 192q-1 39 -27 165q-216 816 -216 930q1 170 121.5 295.5
t290.5 132.5h18q159 0 279 -116zM891 1992l-175 148l-178 -148h-189l367 322l364 -322h-189z" />
    <glyph glyph-name="scircumflex" unicode="&#x15d;" horiz-adv-x="631" 
d="M532 860q-58 55 -99 55q-40 -2 -70.5 -34.5t-31.5 -84.5q0 -20 12 -79l92 -388q13 -68 13 -91q-2 -98 -74.5 -174t-186.5 -82q-99 0 -187 85l100 104q57 -55 93 -55q46 2 76.5 34t31.5 80q0 18 -12 79q-106 418 -106 484q2 97 74 173t188 82q98 0 186 -85zM592 1200
l-175 148l-178 -148h-189l367 322l364 -322h-189z" />
    <glyph glyph-name="Scedilla" unicode="&#x15e;" horiz-adv-x="1029" 
d="M262 -40q-149 5 -262 116l103 106q80 -78 182 -78h10q113 5 190 86t78 192q-1 39 -27 165q-216 816 -216 930q1 170 121.5 295.5t290.5 132.5h18q159 0 279 -116l-104 -106q-81 78 -182 78h-10q-113 -5 -190.5 -86t-77.5 -192q0 -41 28 -173l187 -754q27 -127 28 -168
q-2 -170 -122 -295q-78 -81 -176 -113l-39 -67q95 -26 113 -98q6 -26 6 -49q0 -44 -22 -83q-38 -63 -147 -65h-6q-106 0 -175 68l87 66q44 -33 75 -33h2q40 2 53 34q6 15 6 28q0 15 -7 27q-15 23 -60 28h-9q-70 0 -79 43z" />
    <glyph glyph-name="scedilla" unicode="&#x15f;" horiz-adv-x="631" 
d="M132 -11q-69 17 -132 78l100 104q57 -55 93 -55q46 2 76.5 34t31.5 80q0 18 -12 79q-106 418 -106 484q2 97 74 173t188 82q98 0 186 -85l-99 -103q-58 55 -99 55q-40 -2 -70.5 -34.5t-31.5 -84.5q0 -20 12 -79l92 -388q13 -68 13 -91q-2 -98 -74 -174q-44 -45 -102 -66
l-50 -85q95 -26 113 -98q6 -26 6 -49q0 -44 -22 -83q-38 -63 -147 -65h-6q-106 0 -175 68l87 66q44 -33 75 -33h2q40 2 53 34q6 15 6 28q0 15 -7 27q-15 23 -60 28h-9q-70 0 -79 43z" />
    <glyph glyph-name="Scaron" unicode="&#x160;" horiz-adv-x="1029" 
d="M925 1683q-81 78 -182 78h-10q-113 -5 -190.5 -86t-77.5 -192q0 -41 28 -173l187 -754q27 -127 28 -168q-2 -170 -122.5 -295.5t-290.5 -132.5h-18q-158 0 -277 116l103 106q80 -78 182 -78h10q113 5 190 86t78 192q-1 39 -27 165q-216 816 -216 930q1 170 121.5 295.5
t290.5 132.5h18q159 0 279 -116zM980 2314l-364 -322l-367 322h189l178 -148l175 148h189z" />
    <glyph glyph-name="scaron" unicode="&#x161;" horiz-adv-x="631" 
d="M532 860q-58 55 -99 55q-40 -2 -70.5 -34.5t-31.5 -84.5q0 -20 12 -79l92 -388q13 -68 13 -91q-2 -98 -74.5 -174t-186.5 -82q-99 0 -187 85l100 104q57 -55 93 -55q46 2 76.5 34t31.5 80q0 18 -12 79q-106 418 -106 484q2 97 74 173t188 82q98 0 186 -85zM781 1522
l-364 -322l-367 322h189l178 -148l175 148h189z" />
    <glyph glyph-name="Tcommaaccent" unicode="&#x162;" horiz-adv-x="768" 
d="M316 8v1720h-266v136h668v-136h-266v-1728h-8l-51 -87q95 -26 113 -98q6 -26 6 -49q0 -44 -22 -83q-38 -63 -147 -65h-6q-106 0 -175 68l87 66q44 -33 75 -33h2q40 2 53 34q6 15 6 28q0 15 -7 27q-15 23 -60 28h-9q-70 0 -79 43z" />
    <glyph glyph-name="tcommaaccent" unicode="&#x163;" horiz-adv-x="673" 
d="M365 14q-49 15 -92 50q-95 76 -97 225v312h-86v135h86v1128h138v-1128h180v-135h-180v-305q0 -83 46 -123q43 -34 95 -34q9 0 19 1q54 6 91 43l108 -84q-32 -45 -93 -73q-41 -19 -90 -24l-52 -89q95 -26 113 -98q6 -26 6 -49q0 -44 -22 -83q-38 -63 -147 -65h-6
q-106 0 -175 68l87 66q44 -33 75 -33h2q40 2 53 34q6 15 6 28q0 15 -7 27q-15 23 -60 28h-9q-70 0 -79 43z" />
    <glyph glyph-name="Tcaron" unicode="&#x164;" horiz-adv-x="768" 
d="M453 1728v-1728h-136v1728h-266v136h668v-136h-266zM751 2314l-364 -322l-367 322h189l178 -148l175 148h189z" />
    <glyph glyph-name="tcaron" unicode="&#x165;" horiz-adv-x="880" 
d="M360 173q43 -34 95 -34q9 0 19 1q54 6 91 43l108 -84q-32 -45 -93 -73q-42 -19 -91 -24q-19 -2 -37 -2q-99 0 -179 64q-95 76 -97 225v312h-86v135h86v1128h138v-1128h180v-135h-180v-305q0 -83 46 -123zM666 1710q-5 2 -11 5q-19 10 -29.5 29t-10.5 40t11 40.5t30 29.5
t39 10t39 -10t32.5 -34.5t13.5 -59.5q-17 -149 -159 -277l-48 84q71 70 93 143z" />
    <glyph glyph-name="Tbar" unicode="&#x166;" horiz-adv-x="768" 
d="M316 1111v617h-266v136h668v-136h-266v-617h134v-130h-134v-981h-136v981h-134v130h134z" />
    <glyph glyph-name="tbar" unicode="&#x167;" horiz-adv-x="648" 
d="M274 981v-245h180v-135h-180v-305l2 -20q9 -63 59 -103q43 -34 95 -34q9 0 19 1q54 6 91 43l108 -84q-32 -45 -93 -73q-42 -19 -91 -24q-19 -2 -37 -2q-99 0 -179 64q-95 76 -110 196q-1 8 -1 15t1 14h-2v312h-86v135h86v245h-86v130h86v753h138v-753h180v-130h-180z" />
    <glyph glyph-name="Utilde" unicode="&#x168;" horiz-adv-x="1383" 
d="M1147 1864h136v-1333h-2q-12 -238 -163 -409q-185 -166 -382 -166h-86q-198 0 -382 166q-151 171 -168 409v1333h135v-1306q6 -200 128 -342q145 -127 290 -127h80q144 0 290 127q113 133 124 316v1332zM978 2087q-52 -77 -142 -94q-14 -3 -28 -4q-9 -1 -17 -1
q-66 0 -125 41q-60 41 -92 41q-4 0 -8 -1q-41 -8 -64 -42q-10 -16 -15 -32l-114 44q9 28 27 55q51 76 142 95q14 2 28 3q8 1 17 1q64 0 125 -41q60 -41 92 -41q4 0 8 1q40 8 64 43q16 24 17 51l118 -44q-9 -39 -33 -75z" />
    <glyph glyph-name="utilde" unicode="&#x169;" horiz-adv-x="1126" 
d="M266 427q0 -125 87.5 -211.5t209.5 -86.5q124 0 211 87q80 79 86 190v670h136v-670q-7 -166 -127 -286q-127 -127 -306 -127t-306 127q-120 120 -127 286v670h136v-649zM849 1295q-52 -77 -142 -94q-14 -3 -28 -4q-9 -1 -17 -1q-66 0 -125 41q-60 41 -92 41q-4 0 -8 -1
q-41 -8 -64 -42q-10 -16 -15 -32l-114 44q9 28 27 55q51 76 142 95q14 2 28 3q8 1 17 1q64 0 125 -41q60 -41 92 -41q4 0 8 1q40 8 64 43q16 24 17 51l118 -44q-9 -39 -33 -75z" />
    <glyph glyph-name="Umacron" unicode="&#x16a;" horiz-adv-x="1383" 
d="M1147 1864h136v-1333h-2q-12 -238 -163 -409q-185 -166 -382 -166h-86q-198 0 -382 166q-151 171 -168 409v1333h135v-1306q6 -200 128 -342q145 -127 290 -127h80q144 0 290 127q113 133 124 316v1332zM464 2182h456v-130h-456v130z" />
    <glyph glyph-name="umacron" unicode="&#x16b;" horiz-adv-x="1126" 
d="M266 427q0 -125 87.5 -211.5t209.5 -86.5q124 0 211 87q80 79 86 190v670h136v-670q-7 -166 -127 -286q-127 -127 -306 -127t-306 127q-120 120 -127 286v670h136v-649zM335 1390h456v-130h-456v130z" />
    <glyph glyph-name="Ubreve" unicode="&#x16c;" horiz-adv-x="1383" 
d="M1147 1864h136v-1333h-2q-12 -238 -163 -409q-185 -166 -382 -166h-86q-198 0 -382 166q-151 171 -168 409v1333h135v-1306q6 -200 128 -342q145 -127 290 -127h80q144 0 290 127q113 133 124 316v1332zM914 2263q1 -13 1 -26q0 -92 -65 -157.5t-158 -65.5
q-92 0 -157.5 65.5t-65.5 157.5q0 13 1 26h125q-3 -12 -3 -26q0 -42 29.5 -71.5t70.5 -29.5q42 0 71.5 29.5t29.5 71.5q0 14 -3 26h124z" />
    <glyph glyph-name="ubreve" unicode="&#x16d;" horiz-adv-x="1126" 
d="M266 427q0 -125 87.5 -211.5t209.5 -86.5q124 0 211 87q80 79 86 190v670h136v-670q-7 -166 -127 -286q-127 -127 -306 -127t-306 127q-120 120 -127 286v670h136v-649zM785 1471q1 -13 1 -26q0 -92 -65 -157.5t-158 -65.5q-92 0 -157.5 65.5t-65.5 157.5q0 13 1 26h125
q-3 -12 -3 -26q0 -42 29.5 -71.5t70.5 -29.5q42 0 71.5 29.5t29.5 71.5q0 14 -3 26h124z" />
    <glyph glyph-name="Uring" unicode="&#x16e;" horiz-adv-x="1383" 
d="M1147 1864h136v-1333h-2q-12 -238 -163 -409q-185 -166 -382 -166h-86q-198 0 -382 166q-151 171 -168 409v1333h135v-1306q6 -200 128 -342q145 -127 290 -127h80q144 0 290 127q113 133 124 316v1332zM692 2231q-48 0 -82 -34t-34 -82q0 -49 34 -83t82 -34q49 0 83 34
t34 83q0 48 -34 82t-83 34zM486 2028q-17 40 -17 87q0 92 65.5 157.5t157.5 65.5t157.5 -65.5t65.5 -157.5q0 -93 -65.5 -158t-157.5 -65q-37 0 -70 10q-49 16 -88 55q-32 32 -48 71z" />
    <glyph glyph-name="uring" unicode="&#x16f;" horiz-adv-x="1126" 
d="M266 427q0 -125 87.5 -211.5t209.5 -86.5q124 0 211 87q80 79 86 190v670h136v-670q-7 -166 -127 -286q-127 -127 -306 -127t-306 127q-120 120 -127 286v670h136v-649zM563 1439q-48 0 -82 -34t-34 -82q0 -49 34 -83t82 -34q49 0 83 34t34 83q0 48 -34 82t-83 34z
M357 1236q-17 40 -17 87q0 92 65.5 157.5t157.5 65.5t157.5 -65.5t65.5 -157.5q0 -93 -65.5 -158t-157.5 -65q-37 0 -70 10q-49 16 -88 55q-32 32 -48 71z" />
    <glyph glyph-name="Uhungarumlaut" unicode="&#x170;" horiz-adv-x="1383" 
d="M1147 1864h136v-1333h-2q-12 -238 -163 -409q-185 -166 -382 -166h-86q-198 0 -382 166q-151 171 -168 409v1333h135v-1306q6 -200 128 -342q145 -127 290 -127h80q144 0 290 127q113 133 124 316v1332zM300 2070l303 273l89 -98l-304 -273zM692 2070l303 273l89 -98
l-304 -273z" />
    <glyph glyph-name="uhungarumlaut" unicode="&#x171;" horiz-adv-x="1126" 
d="M266 427q0 -125 87.5 -211.5t209.5 -86.5q124 0 211 87q80 79 86 190v670h136v-670q-7 -166 -127 -286q-127 -127 -306 -127t-306 127q-120 120 -127 286v670h136v-649zM171 1278l303 273l89 -98l-304 -273zM563 1278l303 273l89 -98l-304 -273z" />
    <glyph glyph-name="Uogonek" unicode="&#x172;" horiz-adv-x="1383" 
d="M836 -33q-50 -11 -100 -11h-86q-198 0 -382 166q-151 171 -168 409v1333h135v-1306q6 -200 128 -342q145 -127 290 -127h80q144 0 290 127q113 133 124 316v1332h136v-1333h-2q-12 -238 -163 -409q-46 -41 -92 -72q-106 -85 -107 -197q1 -149 179 -173l-29 -121
q-278 50 -280 250v9q1 74 47 149z" />
    <glyph glyph-name="uogonek" unicode="&#x173;" horiz-adv-x="1126" 
d="M617 -4q-26 -3 -54 -3q-179 0 -306 127q-120 120 -127 286v670h136v-649q0 -125 87.5 -211.5t209.5 -86.5q124 0 211 87q80 79 86 190v670h136v-670q-7 -166 -127 -286q-26 -26 -54 -46l3 -3q-140 -92 -141 -221q1 -150 179 -174l-29 -121q-277 51 -280 250v9
q2 91 70 182z" />
    <glyph glyph-name="Wcircumflex" unicode="&#x174;" horiz-adv-x="2376" 
d="M2365 1864l-802 -1723l-75 -161l-75 161l-224 481l-224 -481l-75 -161l-76 161l-804 1723h151l728 -1562l225 481l-505 1081h151l429 -920l75 -161l224 -481l727 1562h150zM1364 1992l-175 148l-178 -148h-189l367 322l364 -322h-189z" />
    <glyph glyph-name="wcircumflex" unicode="&#x175;" horiz-adv-x="1793" 
d="M1787 1076l-628 -1089l-262 454l-262 -454l-629 1089h158l471 -816l183 317l-288 499h158l471 -816l471 816h157zM1073 1200l-175 148l-178 -148h-189l367 322l364 -322h-189z" />
    <glyph glyph-name="Ycircumflex" unicode="&#x176;" horiz-adv-x="1609" 
d="M737 607l-737 1257h157l648 -1120l647 1120h157l-736 -1257l-1 -607h-135v607zM981 1992l-175 148l-178 -148h-189l367 322l364 -322h-189z" />
    <glyph glyph-name="ycircumflex" unicode="&#x177;" horiz-adv-x="1286" 
d="M1039 170q-10 -12 -21 -23q-155 -159 -380 -159q-91 0 -172 26q-116 39 -211 132q-83 83 -121 184q-34 81 -34 187v559h136v-578q15 -144 120 -249q117 -116 282 -116q164 0 280 116q114 114 121 271v556h137l-1 -1303q-3 -224 -157.5 -382.5t-379.5 -158.5
q-91 0 -172 26q-116 39 -211 132q-83 83 -121 184q-28 66 -28 183v16h137q8 -175 113 -280q117 -116 282 -116q164 0 280 116q114 114 121 271v406zM815 1200l-175 148l-178 -148h-189l367 322l364 -322h-189z" />
    <glyph glyph-name="Zacute" unicode="&#x179;" horiz-adv-x="1306" 
d="M1002 1728h-927v136h1155l-929 -1727h930v-136h-1156v4zM530 2086l277 275l93 -93l-276 -276z" />
    <glyph glyph-name="zacute" unicode="&#x17a;" horiz-adv-x="950" 
d="M77 1076h798l-550 -944h547l1 -132h-798l550 944h-547zM352 1294l277 275l93 -93l-276 -276z" />
    <glyph glyph-name="Zdotaccent" unicode="&#x17b;" horiz-adv-x="1306" 
d="M1002 1728h-927v136h1155l-929 -1727h930v-136h-1156v4zM653 2250q29 0 56 -14.5t42.5 -42t15.5 -57.5t-15 -57t-42 -42t-57 -15t-57 15t-42 42t-15 57t15.5 57.5t42.5 42t56 14.5z" />
    <glyph glyph-name="zdotaccent" unicode="&#x17c;" horiz-adv-x="950" 
d="M77 1076h798l-550 -944h547l1 -132h-798l550 944h-547zM475 1458q29 0 56 -14.5t42.5 -42t15.5 -57.5t-15 -57t-42 -42t-57 -15t-57 15t-42 42t-15 57t15.5 57.5t42.5 42t56 14.5z" />
    <glyph glyph-name="Zcaron" unicode="&#x17d;" horiz-adv-x="1306" 
d="M1002 1728h-927v136h1155l-929 -1727h930v-136h-1156v4zM1019 2314l-364 -322l-367 322h189l178 -148l175 148h189z" />
    <glyph glyph-name="zcaron" unicode="&#x17e;" horiz-adv-x="950" 
d="M77 1076h798l-550 -944h547l1 -132h-798l550 944h-547zM841 1522l-364 -322l-367 322h189l178 -148l175 148h189z" />
    <glyph glyph-name="longs" unicode="&#x17f;" horiz-adv-x="580" 
d="M324 1569v-1569h-138v601h-86v135h86v840q0 149 112 225q80 64 179 64q18 0 37 -2q49 -5 91 -24q61 -28 93 -73l-108 -74q-37 37 -91 43q-10 1 -19 1q-52 0 -95 -34q-61 -50 -61 -133z" />
    <glyph glyph-name="Aringacute" unicode="&#x1fa;" horiz-adv-x="1361" 
d="M934 736l-254 724l-253 -724h507zM674 2007q-24 0 -41.5 -17.5t-17.5 -41.5t17.5 -41.5t41.5 -17.5t41 17.5t17 41.5t-17 41.5t-41 17.5zM718 1775l623 -1775h-149l-211 601h-602l-210 -601h-149l621 1773q-12 2 -24 5q-39 13 -70 44q-26 26 -38 57q-14 32 -14 69
q0 74 53 127q38 38 87 48l-41 41l167 165l84 -102l-3 -3l-107 -107q35 -13 65 -42q52 -53 52 -127t-52 -126q-36 -35 -82 -47z" />
    <glyph glyph-name="aringacute" unicode="&#x1fb;" horiz-adv-x="1350" 
d="M1074 444v199q-26 109 -111 194q-121 122 -294 122q-171 0 -293 -121.5t-122 -293.5t122 -293.5t293 -121.5q173 0 294 121q85 85 111 194zM664 1207q-24 0 -41.5 -17.5t-17.5 -41.5t17.5 -41.5t41.5 -17.5t41 17.5t17 41.5t-17 41.5t-41 17.5zM823 1067
q129 -36 231 -138l20 -22v165h136v-1072h-136v181l-20 -22q-160 -159 -385 -159t-384.5 159.5t-159.5 384.5t160 385q98 98 221 135q-4 8 -7 15q-14 32 -14 69q0 74 53 127q38 38 87 48l-41 41l167 165l84 -102l-3 -3l-107 -107q35 -13 65 -42q52 -53 52 -127q0 -44 -19 -81
z" />
    <glyph glyph-name="AEacute" unicode="&#x1fc;" horiz-adv-x="1544" 
d="M783 601h-348l-211 -601h-149l706 1864l2 -8v8h686v-136h-550v-992h275v-135h-275v-465h550v-136h-686v601zM783 1516l-14 40l-286 -820h300v780zM649 2086l277 275l93 -93l-276 -276z" />
    <glyph glyph-name="aeacute" unicode="&#x1fd;" horiz-adv-x="2213" 
d="M1024 444v199q-26 109 -111 194q-121 122 -294 122q-171 0 -293 -121.5t-122 -293.5t122 -293.5t293 -121.5q173 0 294 121q85 85 111 194zM1956 736q-27 46 -67 87q-124 123 -298 123q-173 0 -296 -123q-41 -41 -68 -87h729zM1160 184v-184h-136v181l-20 -22
q-160 -159 -385 -159t-384.5 159.5t-159.5 384.5t159.5 384.5t384.5 159.5t385 -159l20 -22v165h136v-205q20 25 43 48q161 161 388 161q228 0 389 -161q134 -135 156 -314h-959q-6 -37 -6 -75q0 -174 123.5 -297t296.5 -123q174 0 298 123q101 101 119 236h130
q-19 -189 -158 -328q-161 -161 -389 -161q-227 0 -388 161q-23 23 -43 47zM983 1294l277 275l93 -93l-276 -276z" />
    <glyph glyph-name="Oslashacute" unicode="&#x1fe;" horiz-adv-x="2144" 
d="M1627 1770q79 -54 150 -125q292 -293 292 -705q0 -413 -292 -705t-705 -292q-241 0 -441 100l-107 -185l-114 66l108 186q-79 54 -150 125q-293 292 -293 705q0 412 293 704.5t704 292.5q242 0 442 -100l107 185l114 -66zM587 231l857 1485q-169 82 -373 82
q-354 0 -606 -252.5t-252 -605.5q0 -355 252 -606q58 -59 122 -103zM1558 1649l-858 -1485q169 -82 371 -82q357 0 608.5 251.5t251.5 606.5q0 353 -251 606q-59 58 -122 103zM949 2086l277 275l93 -93l-276 -276z" />
    <glyph glyph-name="oslashacute" unicode="&#x1ff;" horiz-adv-x="1250" 
d="M953 958q32 -24 61 -53q161 -162 161 -389q0 -228 -161 -389t-389 -161q-118 0 -219 44l-114 -199l-114 66l115 200q-29 23 -56 50q-162 161 -162 389q0 227 161.5 388.5t388.5 161.5q116 0 215 -42l113 196l119 -56zM359 191l415 719q-69 26 -149 26
q-173 0 -296.5 -123.5t-123.5 -296.5q0 -174 124 -297q14 -15 30 -28zM888 844l-416 -720q71 -28 153 -28q175 0 298 123t123 297q0 173 -123 297q-17 17 -35 31zM502 1294l277 275l93 -93l-276 -276z" />
    <glyph glyph-name="uni0237" unicode="&#x237;" horiz-adv-x="430" 
d="M144 -387v1123h138v-1141h-2v-5q-15 -167 -135 -262q-107 -85 -241 -85q-18 0 -37 2q-65 5 -120 30q-60 25 -117 81l100 86q66 -61 149 -69q11 -1 22 -1q86 0 156 57q78 64 86 161q0 12 1 23z" />
    <glyph glyph-name="uni02BB" unicode="&#x2bb;" horiz-adv-x="207" 
d="M114 1365q6 -2 11 -5q19 -10 29.5 -29t10.5 -40t-10.5 -40t-29.5 -29.5t-40 -10.5q-20 0 -39 10.5t-32.5 34.5t-13.5 60q18 148 160 276l47 -84q-70 -69 -93 -143z" />
    <glyph glyph-name="afii57929" unicode="&#x2bc;" horiz-adv-x="207" 
d="M93 1438q-5 2 -11 5q-19 11 -29.5 29.5t-10.5 39.5t11 40.5t30 29.5t39 10t39 -10t32.5 -34t13.5 -60q-17 -149 -159 -277l-48 84q71 70 93 143z" />
    <glyph glyph-name="uni02C9" unicode="&#x2c9;" horiz-adv-x="606" 
d="M75 1390h456v-130h-456v130z" />
    <glyph glyph-name="uni02CA" unicode="&#x2ca;" horiz-adv-x="520" 
d="M75 1294l277 275l93 -93l-276 -276z" />
    <glyph glyph-name="uni02CB" unicode="&#x2cb;" horiz-adv-x="520" 
d="M351 1187l-276 276l93 93l277 -275z" />
    <glyph glyph-name="uni02CD" unicode="&#x2cd;" horiz-adv-x="606" 
d="M75 -210h456v-130h-456v130z" />
    <glyph glyph-name="uni02F7" unicode="&#x2f7;" horiz-adv-x="788" 
d="M680 -305q-52 -77 -142 -94q-14 -3 -28 -4q-9 -1 -17 -1q-66 0 -125 41q-60 41 -92 41q-4 0 -8 -1q-41 -8 -64 -42q-10 -16 -15 -32l-114 44q9 28 27 55q51 76 142 95q14 2 28 3q8 1 17 1q64 0 125 -41q60 -41 92 -41q4 0 8 1q40 8 64 43q16 24 17 51l118 -44
q-9 -39 -33 -75z" />
    <glyph glyph-name="gravecomb" unicode="&#x300;" horiz-adv-x="520" 
d="M351 1187l-276 276l93 93l277 -275z" />
    <glyph glyph-name="acutecomb" unicode="&#x301;" horiz-adv-x="520" 
d="M75 1294l277 275l93 -93l-276 -276z" />
    <glyph glyph-name="uni0302" unicode="&#x302;" horiz-adv-x="901" 
d="M627 1200l-175 148l-178 -148h-189l367 322l364 -322h-189z" />
    <glyph glyph-name="tildecomb" unicode="&#x303;" horiz-adv-x="788" 
d="M680 1295q-52 -77 -142 -94q-14 -3 -28 -4q-9 -1 -17 -1q-66 0 -125 41q-60 41 -92 41q-4 0 -8 -1q-41 -8 -64 -42q-10 -16 -15 -32l-114 44q9 28 27 55q51 76 142 95q14 2 28 3q8 1 17 1q64 0 125 -41q60 -41 92 -41q4 0 8 1q40 8 64 43q16 24 17 51l118 -44
q-9 -39 -33 -75z" />
    <glyph glyph-name="uni0304" unicode="&#x304;" horiz-adv-x="606" 
d="M75 1390h456v-130h-456v130z" />
    <glyph glyph-name="uni0305" unicode="&#x305;" horiz-adv-x="1300" 
d="M85 -75h1130v-130h-1130v130z" />
    <glyph glyph-name="uni0306" unicode="&#x306;" horiz-adv-x="926" 
d="M453 1230q-169 3 -300 110l91 89q94 -68 214 -69q119 1 213 69l91 -89q-131 -107 -300 -110h-9z" />
    <glyph glyph-name="uni0307" unicode="&#x307;" horiz-adv-x="398" 
d="M199 1458q29 0 56 -14.5t42.5 -42t15.5 -57.5t-15 -57t-42 -42t-57 -15t-57 15t-42 42t-15 57t15.5 57.5t42.5 42t56 14.5z" />
    <glyph glyph-name="uni0308" unicode="&#x308;" horiz-adv-x="798" 
d="M199 1412q29 0 56 -14.5t42.5 -42t15.5 -57.5t-15 -57t-42 -42t-57 -15t-57 15t-42 42t-15 57t15.5 57.5t42.5 42t56 14.5zM599 1412q29 0 56 -14.5t42.5 -42t15.5 -57.5t-15 -57t-42 -42t-57 -15t-57 15t-42 42t-15 57t15.5 57.5t42.5 42t56 14.5z" />
    <glyph glyph-name="uni0310" unicode="&#x310;" horiz-adv-x="759" 
d="M380 1739q29 0 56 -14.5t42.5 -42t15.5 -57.5t-15 -57t-42 -42t-57 -15t-57 15t-42 42t-15 57t15.5 57.5t42.5 42t56 14.5zM375 1230q-169 3 -300 110l91 89q94 -68 214 -69q119 1 213 69l91 -89q-131 -107 -300 -110h-9z" />
    <glyph glyph-name="uni0315" unicode="&#x315;" horiz-adv-x="207" 
d="M143 1710q-5 2 -11 5q-19 10 -29.5 29t-10.5 40t11 40.5t30 29.5t39 10t39 -10t32.5 -34.5t13.5 -59.5q-17 -149 -159 -277l-48 84q71 70 93 143z" />
    <glyph glyph-name="dotbelowcomb" unicode="&#x323;" horiz-adv-x="398" 
d="M199 -117q29 0 56 -14.5t42.5 -42t15.5 -57.5t-15 -57t-42 -42t-57 -15t-57 15t-42 42t-15 57t15.5 57.5t42.5 42t56 14.5z" />
    <glyph glyph-name="uni0324" unicode="&#x324;" horiz-adv-x="798" 
d="M199 -117q29 0 56 -14.5t42.5 -42t15.5 -57.5t-15 -57t-42 -42t-57 -15t-57 15t-42 42t-15 57t15.5 57.5t42.5 42t56 14.5zM599 -117q29 0 56 -14.5t42.5 -42t15.5 -57.5t-15 -57t-42 -42t-57 -15t-57 15t-42 42t-15 57t15.5 57.5t42.5 42t56 14.5z" />
    <glyph glyph-name="uni0325" unicode="&#x325;" horiz-adv-x="596" 
d="M298 -261q-48 0 -82 -34t-34 -82q0 -49 34 -83t82 -34q49 0 83 34t34 83q0 48 -34 82t-83 34zM92 -464q-17 40 -17 87q0 92 65.5 157.5t157.5 65.5t157.5 -65.5t65.5 -157.5q0 -93 -65.5 -158t-157.5 -65q-37 0 -70 10q-49 16 -88 55q-32 32 -48 71z" />
    <glyph glyph-name="uni0326" unicode="&#x326;" horiz-adv-x="377" 
d="M178 -262q-5 2 -11 5q-19 11 -29.5 29.5t-10.5 39.5t11 40.5t30 29.5t39 10t39 -10t32.5 -34t13.5 -60q-17 -149 -159 -277l-48 84q71 70 93 143z" />
    <glyph glyph-name="tonos" unicode="&#x384;" horiz-adv-x="280" 
d="M75 1276v588h130v-588h-130z" />
    <glyph glyph-name="dieresistonos" unicode="&#x385;" horiz-adv-x="928" 
d="M189 1472q29 0 56 -14.5t42.5 -42t15.5 -57.5t-15 -57t-42 -42t-57 -15t-57 15t-42 42t-15 57t15.5 57.5t42.5 42t56 14.5zM739 1472q29 0 56 -14.5t42.5 -42t15.5 -57.5t-15 -57t-42 -42t-57 -15t-57 15t-42 42t-15 57t15.5 57.5t42.5 42t56 14.5zM399 1276v588h130
v-588h-130z" />
    <glyph glyph-name="Alphatonos" unicode="&#x386;" horiz-adv-x="1521" 
d="M75 1276v588h130v-588h-130zM459 601l-210 -601h-149l660 1884l661 -1884h-149l-211 601h-602zM1014 736l-254 724l-253 -724h507z" />
    <glyph glyph-name="anoteleia" unicode="&#x387;" horiz-adv-x="378" 
d="M189 1300q29 0 56 -14.5t42.5 -42t15.5 -57.5t-15 -57t-42 -42t-57 -15t-57 15t-42 42t-15 57t15.5 57.5t42.5 42t56 14.5z" />
    <glyph glyph-name="Epsilontonos" unicode="&#x388;" horiz-adv-x="1444" 
d="M75 1276v588h130v-588h-130zM1394 1864v-136h-888v-991h275v-136h-275v-465h888v-136h-1024v1864h1024z" />
    <glyph glyph-name="Etatonos" unicode="&#x389;" horiz-adv-x="1544" 
d="M75 1276v588h130v-588h-130zM1419 0h-136v601h-752v-601h-136v1864h136v-1127h752v1127h136v-1864z" />
    <glyph glyph-name="Iotatonos" unicode="&#x38a;" horiz-adv-x="656" 
d="M75 1276v588h130v-588h-130zM395 0v1864h136v-1864h-136z" />
    <glyph glyph-name="Omicrontonos" unicode="&#x38c;" horiz-adv-x="2334" 
d="M75 1276v588h130v-588h-130zM1237 1785q-350 0 -599.5 -250t-249.5 -599q0 -351 249.5 -600t599.5 -249q353 0 602 249t249 600q0 349 -249 599t-602 250zM2234 936q0 -413 -292 -705t-705 -292q-411 0 -704 292t-293 705q0 412 293 704.5t704 292.5q413 0 705 -292.5
t292 -704.5z" />
    <glyph glyph-name="Upsilontonos" unicode="&#x38e;" horiz-adv-x="1879" 
d="M75 1276v588h130v-588h-130zM1007 607l-737 1257h157l648 -1120l647 1120h157l-736 -1257l-1 -607h-135v607z" />
    <glyph glyph-name="Omegatonos" unicode="&#x38f;" horiz-adv-x="2210" 
d="M75 1276v588h130v-588h-130zM1140 0h-712v136h576v7q-248 54 -440 245q-267 266 -267 640q0 372 267 638.5t644 266.5q380 0 646 -266.5t266 -638.5q0 -374 -266 -640q-192 -192 -442 -245v-7h576v-136h-712v275q267 22 463 218q220 220 220 535q0 312 -220.5 534
t-531.5 222q-307 0 -528.5 -222t-221.5 -534q0 -315 222 -535q196 -197 461 -218v-275z" />
    <glyph glyph-name="iotadieresistonos" unicode="&#x390;" horiz-adv-x="506" 
d="M432 0q-93 3 -169 64q-95 76 -110 196q-1 8 -1 15t1 14h-2v775h138v-768l2 -20q9 -63 59 -103q38 -30 82 -33v-140zM-4 1472q29 0 56 -14.5t42.5 -42t15.5 -57.5t-15 -57t-42 -42t-57 -15t-57 15t-42 42t-15 57t15.5 57.5t42.5 42t56 14.5zM466 1472q29 0 56 -14.5
t42.5 -42t15.5 -57.5t-15 -57t-42 -42t-57 -15t-57 15t-42 42t-15 57t15.5 57.5t42.5 42t56 14.5zM166 1276v588h130v-588h-130z" />
    <glyph glyph-name="Alpha" unicode="&#x391;" horiz-adv-x="1521" 
d="M459 601l-210 -601h-149l660 1884l661 -1884h-149l-211 601h-602zM1014 736l-254 724l-253 -724h507z" />
    <glyph glyph-name="Beta" unicode="&#x392;" horiz-adv-x="1455" 
d="M261 1128v-992h520q183 11 316 144q145 146 145 350q0 205 -145 350q-142 142 -342 145v3h-494zM658 1263q83 14 135 65q70 69 70 179q-5 221 -248 221h-354v-465h397zM660 1863q152 -9 241.5 -105.5t89.5 -246.5q0 -160 -103 -267q171 -37 303 -169q184 -184 184 -445
q0 -260 -184 -445q-171 -171 -409 -183v-2h-657v1864h535v-1z" />
    <glyph glyph-name="Gamma" unicode="&#x393;" horiz-adv-x="746" 
d="M286 0h-136v1864h666v-136h-530v-1728z" />
    <glyph glyph-name="uni0394" unicode="&#x394;" horiz-adv-x="1341" 
d="M10 0l660 1884l661 -1884h-1321zM1134 136l-464 1324l-463 -1324h927z" />
    <glyph glyph-name="Epsilon" unicode="&#x395;" horiz-adv-x="1174" 
d="M1124 1864v-136h-888v-991h275v-136h-275v-465h888v-136h-1024v1864h1024z" />
    <glyph glyph-name="Zeta" unicode="&#x396;" horiz-adv-x="1306" 
d="M1002 1728h-927v136h1155l-929 -1727h930v-136h-1156v4z" />
    <glyph glyph-name="Eta" unicode="&#x397;" horiz-adv-x="1274" 
d="M1149 0h-136v601h-752v-601h-136v1864h136v-1127h752v1127h136v-1864z" />
    <glyph glyph-name="Theta" unicode="&#x398;" horiz-adv-x="2194" 
d="M1096 1785q-350 0 -599.5 -250t-249.5 -599q0 -351 249.5 -600t599.5 -249q353 0 602 249t249 600q0 349 -249 599t-602 250zM2094 936q0 -413 -292 -705t-705 -292q-411 0 -704 292t-293 705q0 412 293 704.5t704 292.5q413 0 705 -292.5t292 -704.5zM712 737h771v-136
h-771v136z" />
    <glyph glyph-name="Iota" unicode="&#x399;" horiz-adv-x="386" 
d="M125 0v1864h136v-1864h-136z" />
    <glyph glyph-name="Kappa" unicode="&#x39a;" horiz-adv-x="1615" 
d="M810 925l-534 -925h-136v1864h136v-1591l919 1591h157l-470 -815q232 -68 416 -251q292 -293 292 -705v-93h-137v93q0 353 -251 606q-171 171 -392 226z" />
    <glyph glyph-name="Lambda" unicode="&#x39b;" horiz-adv-x="1342" 
d="M1182 0l-176 504h-2l-45 130h1l-289 826l-289 -826h1l-45 -130h-2l-176 -504h-149l660 1884l660 -1884h-149z" />
    <glyph glyph-name="Mu" unicode="&#x39c;" horiz-adv-x="1801" 
d="M1671 1864v-1864h-136v1459l-621 -1076l-648 1076v-1459h-136v1864h60l724 -1209l699 1209h58z" />
    <glyph glyph-name="Nu" unicode="&#x39d;" horiz-adv-x="1284" 
d="M1096 0l-830 1437v-1437h-136v1853h53l835 -1447v1458h136v-1864h-58z" />
    <glyph glyph-name="Xi" unicode="&#x39e;" horiz-adv-x="1084" 
d="M157 737h771v-136h-771v136zM50 136h984v-136h-984v136zM50 1864h984v-136h-984v136z" />
    <glyph glyph-name="Omicron" unicode="&#x39f;" horiz-adv-x="2194" 
d="M1097 1785q-350 0 -599.5 -250t-249.5 -599q0 -351 249.5 -600t599.5 -249q353 0 602 249t249 600q0 349 -249 599t-602 250zM2094 936q0 -413 -292 -705t-705 -292q-411 0 -704 292t-293 705q0 412 293 704.5t704 292.5q413 0 705 -292.5t292 -704.5z" />
    <glyph glyph-name="Pi" unicode="&#x3a0;" horiz-adv-x="1384" 
d="M1204 1728v-1728h-136v1728h-752v-1728h-136v1728h-80v136h1184v-136h-80z" />
    <glyph glyph-name="Rho" unicode="&#x3a1;" horiz-adv-x="1415" 
d="M750 736v3q200 3 342 145q145 145 145 350q0 204 -145 350q-133 133 -316 144h-520v-992h494zM777 606v-5h-521v-601h-136v1864h657v-2q238 -12 409 -183q184 -185 184 -445q0 -261 -184 -445q-171 -171 -409 -183z" />
    <glyph glyph-name="Sigma" unicode="&#x3a3;" horiz-adv-x="1174" 
d="M1124 1864v-136h-838l250 -991l-250 -601h838v-136h-1024l300 737l-300 1127h1024z" />
    <glyph glyph-name="Tau" unicode="&#x3a4;" horiz-adv-x="768" 
d="M452 1728v-1728h-136v1728h-266v136h668v-136h-266z" />
    <glyph glyph-name="Upsilon" unicode="&#x3a5;" horiz-adv-x="1609" 
d="M737 607l-737 1257h157l648 -1120l647 1120h157l-736 -1257l-1 -607h-135v607z" />
    <glyph glyph-name="Phi" unicode="&#x3a6;" horiz-adv-x="1585" 
d="M861 494h153v2q159 13 278 126q128 124 131 305v10q-3 181 -131 305q-119 113 -278 126v2h-153v-876zM725 1370h-146v-2q-165 -10 -286 -126q-128 -124 -131 -305v-10q3 -181 131 -305q121 -116 286 -126v-2h146v876zM725 365h-190v2q-200 14 -345 164q-155 160 -160 394
v14q5 234 160 394q145 150 345 164v2h190v365h136v-365h199v-3q192 -16 335 -163q155 -160 160 -394v-14q-5 -234 -160 -394q-143 -147 -335 -163v-3h-199v-365h-136v365z" />
    <glyph glyph-name="Chi" unicode="&#x3a7;" horiz-adv-x="1609" 
d="M376 0l350 607l-726 1257h157l648 -1120l647 1120h157l-726 -1257l351 -607h-157l-272 470l-272 -470h-157z" />
    <glyph glyph-name="Psi" unicode="&#x3a8;" horiz-adv-x="1860" 
d="M998 665v-665h-136v665h-190v2q-200 14 -345 164q-155 160 -160 394v227h-2q-8 171 -131 290q-16 16 -34 29l96 101q21 -18 41 -39q151 -156 160 -381h2v-225q3 -181 131 -305q121 -116 286 -126v-2h146v1070h136v-1070h146v2q165 10 286 126q128 124 131 305v225h2
q9 225 160 381q20 21 41 39l96 -101q-18 -13 -34 -29q-123 -119 -131 -290h-2v-227q-5 -234 -160 -394q-145 -150 -345 -164v-2h-190z" />
    <glyph glyph-name="uni03A9" unicode="&#x3a9;" horiz-adv-x="2003" 
d="M933 0h-712v136h576v7q-248 54 -440 245q-267 266 -267 640q0 372 267 638.5t644 266.5q380 0 646 -266.5t266 -638.5q0 -374 -266 -640q-192 -192 -442 -245v-7h576v-136h-712v275q267 22 463 218q220 220 220 535q0 312 -220.5 534t-531.5 222q-307 0 -528.5 -222
t-221.5 -534q0 -315 222 -535q196 -197 461 -218v-275z" />
    <glyph glyph-name="Iotadieresis" unicode="&#x3aa;" horiz-adv-x="386" 
d="M125 0v1864h136v-1864h-136zM43 2212q29 0 56 -14.5t42.5 -42t15.5 -57.5t-15 -57t-42 -42t-57 -15t-57 15t-42 42t-15 57t15.5 57.5t42.5 42t56 14.5zM343 2212q29 0 56 -14.5t42.5 -42t15.5 -57.5t-15 -57t-42 -42t-57 -15t-57 15t-42 42t-15 57t15.5 57.5t42.5 42
t56 14.5z" />
    <glyph glyph-name="Upsilondieresis" unicode="&#x3ab;" horiz-adv-x="1609" 
d="M737 607l-737 1257h157l648 -1120l647 1120h157l-736 -1257l-1 -607h-135v607zM605 2204q29 0 56 -14.5t42.5 -42t15.5 -57.5t-15 -57t-42 -42t-57 -15t-57 15t-42 42t-15 57t15.5 57.5t42.5 42t56 14.5zM1005 2204q29 0 56 -14.5t42.5 -42t15.5 -57.5t-15 -57t-42 -42
t-57 -15t-57 15t-42 42t-15 57t15.5 57.5t42.5 42t56 14.5z" />
    <glyph glyph-name="alphatonos" unicode="&#x3ac;" horiz-adv-x="1464" 
d="M1089 447l17 71l-14 58h-6q-17 141 -122 248q-127 127 -307 127q-179 0 -306 -127.5t-127 -305.5q0 -179 127 -306t306 -127q180 0 307 127q100 101 121 235h4zM1168 270q-40 -83 -110 -153q-166 -166 -401 -166q-234 0 -400.5 166t-166.5 401q0 234 166.5 400.5
t400.5 166.5q235 0 401 -166q70 -71 110 -153l76 306l130 -23l-131 -531l131 -531l-130 -23zM689 1276v588h130v-588h-130z" />
    <glyph glyph-name="epsilontonos" unicode="&#x3ad;" horiz-adv-x="1032" 
d="M938 941q-133 5 -218 5q-223 0 -346 -123q-41 -41 -68 -87h632v-135h-682q-6 -37 -6 -75q0 -174 123.5 -297t356.5 -123q75 0 208 5v-131q-133 -4 -208 -4q-287 0 -448.5 161t-161.5 389q0 227 161.5 388.5t438.5 161.5q85 0 218 -4v-131zM486 1276v588h130v-588h-130z
" />
    <glyph glyph-name="etatonos" unicode="&#x3ae;" horiz-adv-x="1281" 
d="M251 905q177 183 402 183q91 0 172 -26q116 -39 211 -132q83 -83 121 -184q34 -81 34 -187v-1339h-136v1358q-15 144 -120 249q-117 116 -282 116q-164 0 -280 -116q-114 -114 -121 -271v-556h-137v1076h136v-171zM610 1276v588h130v-588h-130z" />
    <glyph glyph-name="iotatonos" unicode="&#x3af;" horiz-adv-x="506" 
d="M431 0q-93 3 -169 64q-95 76 -110 196q-1 8 -1 15t1 14h-2v775h138v-768l2 -20q9 -63 59 -103q38 -30 82 -33v-140zM160 1276v588h130v-588h-130z" />
    <glyph glyph-name="upsilondieresistonos" unicode="&#x3b0;" horiz-adv-x="1058" 
d="M112 69v1003h137v-906l3 4q80 -41 178 -41q165 0 282 116q105 105 120 249v578h136v-559q0 -106 -34 -187q-38 -101 -121 -184q-95 -93 -211 -132q-81 -26 -172 -26q-198 0 -318 85zM265 1472q29 0 56 -14.5t42.5 -42t15.5 -57.5t-15 -57t-42 -42t-57 -15t-57 15t-42 42
t-15 57t15.5 57.5t42.5 42t56 14.5zM815 1472q29 0 56 -14.5t42.5 -42t15.5 -57.5t-15 -57t-42 -42t-57 -15t-57 15t-42 42t-15 57t15.5 57.5t42.5 42t56 14.5zM475 1276v588h130v-588h-130z" />
    <glyph glyph-name="alpha" unicode="&#x3b1;" horiz-adv-x="1464" 
d="M1089 447l17 71l-14 58h-6q-17 141 -122 248q-127 127 -307 127q-179 0 -306 -127.5t-127 -305.5q0 -179 127 -306t306 -127q180 0 307 127q100 101 121 235h4zM1168 270q-40 -83 -110 -153q-166 -166 -401 -166q-234 0 -400.5 166t-166.5 401q0 234 166.5 400.5
t400.5 166.5q235 0 401 -166q70 -71 110 -153l76 306l130 -23l-131 -531l131 -531l-130 -23z" />
    <glyph glyph-name="beta" unicode="&#x3b2;" horiz-adv-x="1345" 
d="M241 136h420q183 11 316 144q145 146 145 350q0 205 -145 350q-142 142 -342 145v3h-191v135h94q83 14 135 65q70 69 70 179q-5 221 -248 221h-254v-1592zM241 0v-786h-136v2650h435v-1q152 -9 241.5 -105.5t89.5 -246.5q0 -160 -103 -267q171 -37 303 -169
q184 -184 184 -445q0 -260 -184 -445q-171 -171 -409 -183v-2h-421z" />
    <glyph glyph-name="gamma" unicode="&#x3b3;" horiz-adv-x="1267" 
d="M572 95l-567 981h158l471 -816l471 816h157l-566 -981h6v-887h-136v887h6z" />
    <glyph glyph-name="delta" unicode="&#x3b4;" horiz-adv-x="1293" 
d="M647 951q-179 0 -306 -127.5t-127 -305.5q0 -179 127 -306t306 -127q180 0 306.5 127t126.5 306q0 178 -126.5 305.5t-306.5 127.5zM742 1078q174 -28 306 -159q165 -167 165 -401q0 -235 -165.5 -401t-400.5 -166q-234 0 -400.5 166t-166.5 401q0 234 167 401
q136 136 318 161l-1 1q-277 330 -311 404q-19 39 -19 84q0 42 16 90q31 99 156 159q50 24 109 24q87 0 193 -53l-45 -136q-82 45 -139 45q-37 0 -63 -19q-64 -48 -64 -101v-3q2 -55 38 -103l252 -309q41 -56 51 -77z" />
    <glyph glyph-name="epsilon" unicode="&#x3b5;" horiz-adv-x="1032" 
d="M938 941q-133 5 -218 5q-223 0 -346 -123q-41 -41 -68 -87h632v-135h-682q-6 -37 -6 -75q0 -174 123.5 -297t356.5 -123q75 0 208 5v-131q-133 -4 -208 -4q-287 0 -448.5 161t-161.5 389q0 227 161.5 388.5t438.5 161.5q85 0 218 -4v-131z" />
    <glyph glyph-name="zeta" unicode="&#x3b6;" horiz-adv-x="1061" 
d="M998 1728l1 -4q-808 -689 -808 -1094q0 -204 145 -350q133 -133 316 -144h112q122 -10 212 -106q82 -90 89 -224v-16q-7 -134 -89 -224q-90 -96 -242 -105v-1h-232v136h187q232 0 247 202q-15 202 -217 202l-68 2q-238 12 -409 183q-184 185 -184 445q0 461 756 1098
h-719v136h910v-136h-7z" />
    <glyph glyph-name="eta" unicode="&#x3b7;" horiz-adv-x="1281" 
d="M251 905q177 183 402 183q91 0 172 -26q116 -39 211 -132q83 -83 121 -184q34 -81 34 -187v-1339h-136v1358q-15 144 -120 249q-117 116 -282 116q-164 0 -280 -116q-114 -114 -121 -271v-556h-137v1076h136v-171z" />
    <glyph glyph-name="theta" unicode="&#x3b8;" horiz-adv-x="1274" 
d="M199 601v-79h2q10 -165 126 -286q124 -128 305 -131h10q181 3 305 131q116 121 126 286h2v79h-876zM1075 737v220h-2q-13 159 -126 278q-124 128 -305 131h-10q-181 -3 -305 -131q-113 -119 -126 -278h-2v-220h876zM630 -27q-234 5 -394 160q-150 145 -164 345h-2v525h3
q16 192 163 335q160 155 394 160h14q234 -5 394 -160q147 -143 163 -335h3v-525h-2q-14 -200 -164 -345q-160 -155 -394 -160h-14z" />
    <glyph glyph-name="iota" unicode="&#x3b9;" horiz-adv-x="506" 
d="M431 0q-93 3 -169 64q-95 76 -110 196q-1 8 -1 15t1 14h-2v775h138v-768l2 -20q9 -63 59 -103q38 -30 82 -33v-140z" />
    <glyph glyph-name="kappa" unicode="&#x3ba;" horiz-adv-x="1124" 
d="M540 518l-299 -518h-136v1076h136v-803l464 803h157l-253 -438q149 -33 264 -148q161 -162 161 -389v-101h-129v101q0 173 -123 297q-103 103 -242 120z" />
    <glyph glyph-name="lambda" unicode="&#x3bb;" horiz-adv-x="1267" 
d="M634 1087l1 2l628 -1089h-157l-471 816l-471 -816h-158l550 952l-530 912h157z" />
    <glyph glyph-name="uni03BC" unicode="&#x3bc;" horiz-adv-x="1226" 
d="M1015 162q-9 -10 -19 -20q-95 -93 -211 -132q-81 -26 -172 -26q-225 0 -379 158q-12 12 -23 25v-959h-136v1864h137v-556q7 -157 121 -271q116 -116 280 -116q165 0 282 116q105 105 120 249v578h136v-1072h-136v162z" />
    <glyph glyph-name="nu" unicode="&#x3bd;" horiz-adv-x="1267" 
d="M1262 1076l-628 -1089l-629 1089h158l471 -816l471 816h157z" />
    <glyph glyph-name="xi" unicode="&#x3be;" horiz-adv-x="1152" 
d="M883 1728q-241 -1 -246 -221q0 -110 70 -179q52 -51 135 -65h230v-135h-327v-3q-200 -3 -342 -145q-145 -145 -145 -350q0 -204 145 -350q133 -133 316 -144h382q152 -10 242 -106q82 -90 89 -224v-16q-7 -134 -89 -224q-90 -96 -242 -105v-1h-232v136h187q232 0 247 202
q-15 202 -247 202l-338 2q-238 12 -409 183q-184 185 -184 445q0 261 184 445q132 132 303 169q-103 107 -103 267q0 128 65 217h-412v136h910v-136h-189z" />
    <glyph glyph-name="omicron" unicode="&#x3bf;" horiz-adv-x="1293" 
d="M647 951q-179 0 -306 -127.5t-127 -305.5q0 -179 127 -306t306 -127q180 0 306.5 127t126.5 306q0 178 -126.5 305.5t-306.5 127.5zM1213 518q0 -235 -165.5 -401t-400.5 -166q-234 0 -400.5 166t-166.5 401q0 234 166.5 400.5t400.5 166.5q235 0 400.5 -166.5
t165.5 -400.5z" />
    <glyph glyph-name="rho" unicode="&#x3c1;" horiz-adv-x="1282" 
d="M246 628v-199q26 -109 111 -194q121 -122 294 -122q171 0 293 121.5t122 293.5t-122 293.5t-293 121.5q-173 0 -294 -121q-85 -85 -111 -194zM246 165v-957h-136v1364q6 161 161 330.5t380 169.5t384.5 -159.5t159.5 -384.5t-159.5 -384.5t-384.5 -159.5t-385 159z" />
    <glyph glyph-name="sigma1" unicode="&#x3c2;" horiz-adv-x="1222" 
d="M1117 1072v-135l-467 -1q-200 -5 -323.5 -125.5t-123.5 -275.5q0 -154 119 -271t302 -128h132q152 -10 242 -106q82 -90 89 -224v-16q-7 -134 -89 -224q-90 -96 -242 -105v-1h-232v136h187q232 0 247 202q-15 202 -247 202l-88 2q-238 12 -395.5 167.5t-157.5 365.5
q0 211 137.5 356t339.5 181h570z" />
    <glyph glyph-name="sigma" unicode="&#x3c3;" horiz-adv-x="1293" 
d="M647 951q-179 0 -306 -127.5t-127 -305.5q0 -179 127 -306t306 -127q180 0 306.5 127t126.5 306q0 178 -126.5 305.5t-306.5 127.5zM1014 950q17 -15 34 -31q165 -167 165 -401q0 -235 -165.5 -401t-400.5 -166q-234 0 -400.5 166t-166.5 401q0 234 166.5 400.5
t400.5 166.5q66 0 126 -13h486v-122h-245z" />
    <glyph glyph-name="tau" unicode="&#x3c4;" horiz-adv-x="1180" 
d="M666 942v-606q0 -123 61 -163q38 -30 82 -33v-140q-95 3 -171 64q-108 76 -112 225v653h-436v130h1000v-130h-424z" />
    <glyph glyph-name="upsilon" unicode="&#x3c5;" horiz-adv-x="1058" 
d="M112 69v1003h137v-906l3 4q80 -41 178 -41q165 0 282 116q105 105 120 249v578h136v-559q0 -106 -34 -187q-38 -101 -121 -184q-95 -93 -211 -132q-81 -26 -172 -26q-198 0 -318 85z" />
    <glyph glyph-name="phi" unicode="&#x3c6;" horiz-adv-x="1293" 
d="M579 -45q-191 21 -332 162q-167 166 -167 401q0 234 166.5 400.5t400.5 166.5q235 0 400.5 -166.5t165.5 -400.5q0 -235 -165 -401q-142 -141 -333 -162v-747h-136v747zM579 90v856q-136 -20 -238 -122q-127 -128 -127 -306q0 -179 127 -306q102 -102 238 -122zM715 946
v-856q137 20 239 122q126 127 126 306q0 178 -126 306q-102 102 -239 122z" />
    <glyph glyph-name="chi" unicode="&#x3c7;" horiz-adv-x="1609" 
d="M376 -790l350 607l-726 1257h157l648 -1120l647 1120h157l-726 -1257l351 -607h-157l-272 470l-272 -470h-157z" />
    <glyph glyph-name="psi" unicode="&#x3c8;" horiz-adv-x="1293" 
d="M214 1068v-550q0 -179 127 -306q102 -102 238 -122v978h136v-978q137 20 239 122q126 127 126 306v550h133v-550q0 -235 -165 -401q-142 -141 -333 -162v-747h-136v747q-191 21 -332 162q-167 166 -167 401v550h134z" />
    <glyph glyph-name="omega" unicode="&#x3c9;" horiz-adv-x="1856" 
d="M928 192q-25 -38 -59 -72q-127 -127 -306 -127t-306 127q-120 120 -127 286v670h136v-649q0 -125 87.5 -211.5t209.5 -86.5q124 0 211 87q80 79 86 190v670h136v-649q0 -125 87.5 -211.5t209.5 -86.5q124 0 211 87q80 79 86 190v670h136v-670q-7 -166 -127 -286
q-127 -127 -306 -127t-306 127q-34 34 -59 72z" />
    <glyph glyph-name="iotadieresis" unicode="&#x3ca;" horiz-adv-x="506" 
d="M432 0q-93 3 -169 64q-95 76 -110 196q-1 8 -1 15t1 14h-2v775h138v-768l2 -20q9 -63 59 -103q38 -30 82 -33v-140zM61 1412q29 0 56 -14.5t42.5 -42t15.5 -57.5t-15 -57t-42 -42t-57 -15t-57 15t-42 42t-15 57t15.5 57.5t42.5 42t56 14.5zM401 1412q29 0 56 -14.5
t42.5 -42t15.5 -57.5t-15 -57t-42 -42t-57 -15t-57 15t-42 42t-15 57t15.5 57.5t42.5 42t56 14.5z" />
    <glyph glyph-name="upsilondieresis" unicode="&#x3cb;" horiz-adv-x="1058" 
d="M112 69v1003h137v-906l3 4q80 -41 178 -41q165 0 282 116q105 105 120 249v578h136v-559q0 -106 -34 -187q-38 -101 -121 -184q-95 -93 -211 -132q-81 -26 -172 -26q-198 0 -318 85zM340 1412q29 0 56 -14.5t42.5 -42t15.5 -57.5t-15 -57t-42 -42t-57 -15t-57 15t-42 42
t-15 57t15.5 57.5t42.5 42t56 14.5zM740 1412q29 0 56 -14.5t42.5 -42t15.5 -57.5t-15 -57t-42 -42t-57 -15t-57 15t-42 42t-15 57t15.5 57.5t42.5 42t56 14.5z" />
    <glyph glyph-name="omicrontonos" unicode="&#x3cc;" horiz-adv-x="1373" 
d="M727 951q-179 0 -306 -127.5t-127 -305.5q0 -179 127 -306t306 -127q180 0 306.5 127t126.5 306q0 178 -126.5 305.5t-306.5 127.5zM1293 518q0 -235 -165.5 -401t-400.5 -166q-234 0 -400.5 166t-166.5 401q0 234 166.5 400.5t400.5 166.5q235 0 400.5 -166.5
t165.5 -400.5zM37 1276v588h130v-588h-130z" />
    <glyph glyph-name="upsilontonos" unicode="&#x3cd;" horiz-adv-x="1058" 
d="M112 69v1003h137v-906l3 4q80 -41 178 -41q165 0 282 116q105 105 120 249v578h136v-559q0 -106 -34 -187q-38 -101 -121 -184q-95 -93 -211 -132q-81 -26 -172 -26q-198 0 -318 85zM497 1276v588h130v-588h-130z" />
    <glyph glyph-name="omegatonos" unicode="&#x3ce;" horiz-adv-x="1856" 
d="M928 192q-25 -38 -59 -72q-127 -127 -306 -127t-306 127q-120 120 -127 286v670h136v-649q0 -125 87.5 -211.5t209.5 -86.5q124 0 211 87q80 79 86 190v670h136v-649q0 -125 87.5 -211.5t209.5 -86.5q124 0 211 87q80 79 86 190v670h136v-670q-7 -166 -127 -286
q-127 -127 -306 -127t-306 127q-34 34 -59 72zM885 1276v588h130v-588h-130z" />
    <glyph glyph-name="afii10023" unicode="&#x401;" horiz-adv-x="1174" 
d="M1124 1864v-136h-888v-991h275v-136h-275v-465h888v-136h-1024v1864h1024zM412 2204q29 0 56 -14.5t42.5 -42t15.5 -57.5t-15 -57t-42 -42t-57 -15t-57 15t-42 42t-15 57t15.5 57.5t42.5 42t56 14.5zM812 2204q29 0 56 -14.5t42.5 -42t15.5 -57.5t-15 -57t-42 -42
t-57 -15t-57 15t-42 42t-15 57t15.5 57.5t42.5 42t56 14.5z" />
    <glyph glyph-name="afii10051" unicode="&#x402;" horiz-adv-x="1461" 
d="M678 917q-74 -29 -135 -90q-96 -96 -116 -222v-605h-141l5 34v1694h-266v136h668v-136h-266v-816q8 9 17 18q83 85 187 125q88 33 192 33q91 0 172 -26q116 -39 211 -132q83 -83 121 -184q29 -70 33 -158h1v-102h-1q-4 -88 -33 -158q-38 -101 -121 -184
q-95 -93 -211 -132q-81 -26 -172 -26q-104 0 -192 33l47 138q67 -26 145 -26q165 0 282 116q105 105 120 249v82q-15 144 -120 249q-117 116 -282 116q-78 0 -145 -26z" />
    <glyph glyph-name="afii10052" unicode="&#x403;" horiz-adv-x="986" 
d="M436 0h-136v1864h666v-136h-530v-1728zM27 2086l277 275l93 -93l-276 -276z" />
    <glyph glyph-name="afii10053" unicode="&#x404;" horiz-adv-x="1356" 
d="M1056 737v-136h-753q62 -144 183 -265q249 -249 602 -249q87 0 168 15v-150q-82 -13 -169 -13q-413 0 -705 292t-292 705q0 412 292 704.5t705 292.5q87 0 169 -13v-150q-81 15 -168 15q-353 0 -602 -250t-249 -599q0 -104 22 -199h797z" />
    <glyph glyph-name="afii10054" unicode="&#x405;" horiz-adv-x="1029" 
d="M925 1683q-81 78 -182 78h-10q-113 -5 -190.5 -86t-77.5 -192q0 -41 28 -173l187 -754q27 -127 28 -168q-2 -170 -122.5 -295.5t-290.5 -132.5h-18q-158 0 -277 116l103 106q80 -78 182 -78h10q113 5 190 86t78 192q-1 39 -27 165q-216 816 -216 930q1 170 121.5 295.5
t290.5 132.5h18q159 0 279 -116z" />
    <glyph glyph-name="afii10055" unicode="&#x406;" horiz-adv-x="386" 
d="M125 0v1864h136v-1864h-136z" />
    <glyph glyph-name="afii10056" unicode="&#x407;" horiz-adv-x="386" 
d="M125 0v1864h136v-1864h-136zM43 2212q29 0 56 -14.5t42.5 -42t15.5 -57.5t-15 -57t-42 -42t-57 -15t-57 15t-42 42t-15 57t15.5 57.5t42.5 42t56 14.5zM343 2212q29 0 56 -14.5t42.5 -42t15.5 -57.5t-15 -57t-42 -42t-57 -15t-57 15t-42 42t-15 57t15.5 57.5t42.5 42
t56 14.5z" />
    <glyph glyph-name="afii10057" unicode="&#x408;" horiz-adv-x="524" 
d="M-190 -152q36 -27 78 -38q40 -11 78 -11q71 0 136 39q99 60 99 218v1808h138v-1814q0 -214 -142 -314q-100 -71 -223 -71q-52 0 -107 12q-71 16 -127 52z" />
    <glyph glyph-name="afii10058" unicode="&#x409;" horiz-adv-x="2013" 
d="M1193 601v-465h354q243 0 248 221q0 110 -70 179q-52 51 -135 65h-397zM1193 1864v-1128h399q152 -17 241.5 -125.5t89.5 -257.5q0 -150 -89.5 -246.5t-241.5 -105.5v-1h-535v1728h-652v-1348q0 -214 -142 -314q-84 -60 -186 -69l-27 133q62 4 118 38q99 60 99 218v1478
h926z" />
    <glyph glyph-name="afii10059" unicode="&#x40a;" horiz-adv-x="1929" 
d="M1149 601v-465h354q243 0 248 221q0 110 -70 179q-52 51 -135 65h-397zM1013 601h-752v-601h-136v1864h136v-1127h752v1127h136v-1128h399q152 -17 241.5 -125.5t89.5 -257.5q0 -150 -89.5 -246.5t-241.5 -105.5v-1h-535v601z" />
    <glyph glyph-name="afii10060" unicode="&#x40b;" horiz-adv-x="1461" 
d="M291 34v1694h-266v136h668v-136h-266v-816q8 9 17 18q154 158 379 158q91 0 172 -26q116 -39 211 -132q83 -83 121 -184q34 -81 34 -187v-559h-136v578q-15 144 -120 249q-117 116 -282 116q-164 0 -280 -116q-96 -96 -116 -222v-605h-141z" />
    <glyph glyph-name="afii10061" unicode="&#x40c;" horiz-adv-x="1745" 
d="M950 925l-534 -925h-136v1864h136v-1591l919 1591h157l-470 -815q232 -68 416 -251q292 -293 292 -705v-93h-137v93q0 353 -251 606q-171 171 -392 226zM17 2086l277 275l93 -93l-276 -276z" />
    <glyph glyph-name="afii10062" unicode="&#x40e;" horiz-adv-x="1609" 
d="M376 0l350 607l-726 1257h157l648 -1120l647 1120h157l-1076 -1864h-157zM1027 2263q1 -13 1 -26q0 -92 -65 -157.5t-158 -65.5q-92 0 -157.5 65.5t-65.5 157.5q0 13 1 26h125q-3 -12 -3 -26q0 -42 29.5 -71.5t70.5 -29.5q42 0 71.5 29.5t29.5 71.5q0 14 -3 26h124z" />
    <glyph glyph-name="afii10145" unicode="&#x40f;" horiz-adv-x="1274" 
d="M702 136h311v1728h136v-1864h-447v-784h-130v784h-447v1864h136v-1728h311v1h130v-1z" />
    <glyph glyph-name="afii10017" unicode="&#x410;" horiz-adv-x="1361" 
d="M379 601l-210 -601h-149l660 1884l661 -1884h-149l-211 601h-602zM934 736l-254 724l-253 -724h507z" />
    <glyph glyph-name="afii10018" unicode="&#x411;" horiz-adv-x="1041" 
d="M261 601v-465h354q243 0 248 221q0 110 -70 179q-52 51 -135 65h-397zM261 1728v-992h399q152 -17 241.5 -125.5t89.5 -257.5q0 -150 -89.5 -246.5t-241.5 -105.5v-1h-535v1864h727v-136h-591z" />
    <glyph glyph-name="afii10019" unicode="&#x412;" horiz-adv-x="1455" 
d="M261 1128v-992h520q183 11 316 144q145 146 145 350q0 205 -145 350q-142 142 -342 145v3h-494zM658 1263q83 14 135 65q70 69 70 179q-5 221 -248 221h-354v-465h397zM660 1863q152 -9 241.5 -105.5t89.5 -246.5q0 -160 -103 -267q171 -37 303 -169q184 -184 184 -445
q0 -260 -184 -445q-171 -171 -409 -183v-2h-657v1864h535v-1z" />
    <glyph glyph-name="afii10020" unicode="&#x413;" horiz-adv-x="826" 
d="M286 0h-136v1864h666v-136h-530v-1728z" />
    <glyph glyph-name="afii10021" unicode="&#x414;" horiz-adv-x="1293" 
d="M1057 137v1591h-652v-1348q0 -149 -69 -243h721zM174 0v-784h-130v921h51q38 10 73 31q99 60 99 218v1478h926v-1727h69v-921h-130v784h-958z" />
    <glyph glyph-name="afii10022" unicode="&#x415;" horiz-adv-x="1174" 
d="M1124 1864v-136h-888v-991h275v-136h-275v-465h888v-136h-1024v1864h1024z" />
    <glyph glyph-name="afii10024" unicode="&#x416;" horiz-adv-x="2810" 
d="M1475 280l915 1584h157l-470 -815q232 -68 416 -251q292 -293 292 -705v-93h-137v93q0 353 -251 606q-171 171 -392 226l-530 -918v-7h-140v7l-530 918q-221 -55 -392 -226q-251 -253 -251 -606v-93h-137v93q0 412 292 705q184 183 416 251l-470 815h157l915 -1584v1584
h140v-1584z" />
    <glyph glyph-name="afii10025" unicode="&#x417;" horiz-adv-x="1152" 
d="M125 136h353q183 11 316 144q145 146 145 350q0 205 -145 350q-142 142 -342 145v3h-327v135h230q83 14 135 65q70 69 70 179q-5 221 -248 221h-187v136h232v-1q152 -9 241.5 -105.5t89.5 -246.5q0 -160 -103 -267q171 -37 303 -169q184 -184 184 -445q0 -260 -184 -445
q-171 -171 -409 -183v-2h-354v136z" />
    <glyph glyph-name="afii10026" unicode="&#x418;" horiz-adv-x="1224" 
d="M100 0v1864h136v-1458l835 1447h53v-1853h-136v1437l-830 -1437h-58z" />
    <glyph glyph-name="afii10027" unicode="&#x419;" horiz-adv-x="1224" 
d="M100 0v1864h136v-1458l835 1447h53v-1853h-136v1437l-830 -1437h-58zM834 2263q1 -13 1 -26q0 -92 -65 -157.5t-158 -65.5q-92 0 -157.5 65.5t-65.5 157.5q0 13 1 26h125q-3 -12 -3 -26q0 -42 29.5 -71.5t70.5 -29.5q42 0 71.5 29.5t29.5 71.5q0 14 -3 26h124z" />
    <glyph glyph-name="afii10028" unicode="&#x41a;" horiz-adv-x="1615" 
d="M810 925l-534 -925h-136v1864h136v-1591l919 1591h157l-470 -815q232 -68 416 -251q292 -293 292 -705v-93h-137v93q0 353 -251 606q-171 171 -392 226z" />
    <glyph glyph-name="afii10029" unicode="&#x41b;" horiz-adv-x="1293" 
d="M1193 1864v-1864h-136v1728h-652v-1348q0 -214 -142 -314q-84 -60 -186 -69l-27 133q62 4 118 38q99 60 99 218v1478h926z" />
    <glyph glyph-name="afii10030" unicode="&#x41c;" horiz-adv-x="1801" 
d="M1671 1864v-1864h-136v1459l-621 -1076l-648 1076v-1459h-136v1864h60l724 -1209l699 1209h58z" />
    <glyph glyph-name="afii10031" unicode="&#x41d;" horiz-adv-x="1274" 
d="M1149 0h-136v601h-752v-601h-136v1864h136v-1127h752v1127h136v-1864z" />
    <glyph glyph-name="afii10032" unicode="&#x41e;" horiz-adv-x="2194" 
d="M1097 1785q-350 0 -599.5 -250t-249.5 -599q0 -351 249.5 -600t599.5 -249q353 0 602 249t249 600q0 349 -249 599t-602 250zM2094 936q0 -413 -292 -705t-705 -292q-411 0 -704 292t-293 705q0 412 293 704.5t704 292.5q413 0 705 -292.5t292 -704.5z" />
    <glyph glyph-name="afii10033" unicode="&#x41f;" horiz-adv-x="1274" 
d="M1149 0h-136v1728h-752v-1728h-136v1864h1024v-1864z" />
    <glyph glyph-name="afii10034" unicode="&#x420;" horiz-adv-x="1415" 
d="M750 736v3q200 3 342 145q145 145 145 350q0 204 -145 350q-133 133 -316 144h-520v-992h494zM777 606v-5h-521v-601h-136v1864h657v-2q238 -12 409 -183q184 -185 184 -445q0 -261 -184 -445q-171 -171 -409 -183z" />
    <glyph glyph-name="afii10035" unicode="&#x421;" horiz-adv-x="2018" 
d="M1973 736q-74 -333 -344 -545q-256 -200 -570 -200q-63 0 -128 8q-389 49 -630 358q-201 259 -201 570q0 62 8 127q48 386 358 627q257 200 571 200q63 0 128 -8q183 -23 342 -109l-111 -108q-119 56 -250 72q-55 7 -108 7q-265 0 -482 -169q-262 -204 -302 -531
q-7 -54 -7 -107q0 -264 170 -481q203 -261 531 -303q55 -7 109 -7q265 0 482 169q216 169 283 430h151z" />
    <glyph glyph-name="afii10036" unicode="&#x422;" horiz-adv-x="768" 
d="M452 1728v-1728h-136v1728h-266v136h668v-136h-266z" />
    <glyph glyph-name="afii10037" unicode="&#x423;" horiz-adv-x="1609" 
d="M376 0l350 607l-726 1257h157l648 -1120l647 1120h157l-1076 -1864h-157z" />
    <glyph glyph-name="afii10038" unicode="&#x424;" horiz-adv-x="1585" 
d="M861 494h153v2q159 13 278 126q128 124 131 305v10q-3 181 -131 305q-119 113 -278 126v2h-153v-876zM725 1370h-146v-2q-165 -10 -286 -126q-128 -124 -131 -305v-10q3 -181 131 -305q121 -116 286 -126v-2h146v876zM725 365h-190v2q-200 14 -345 164q-155 160 -160 394
v14q5 234 160 394q145 150 345 164v2h190v365h136v-365h199v-3q192 -16 335 -163q155 -160 160 -394v-14q-5 -234 -160 -394q-143 -147 -335 -163v-3h-199v-365h-136v365z" />
    <glyph glyph-name="afii10039" unicode="&#x425;" horiz-adv-x="1609" 
d="M376 0l350 607l-726 1257h157l648 -1120l647 1120h157l-726 -1257l351 -607h-157l-272 470l-272 -470h-157z" />
    <glyph glyph-name="afii10040" unicode="&#x426;" horiz-adv-x="1274" 
d="M1132 0h-1007v1864h136v-1728h752v1728h136v-1727h113v-921h-130v784z" />
    <glyph glyph-name="afii10041" unicode="&#x427;" horiz-adv-x="1326" 
d="M1191 1864v-1864h-137v556q-7 157 -121 271q-116 116 -280 116q-165 0 -282 -116q-105 -105 -120 -249v-578h-136v559q0 106 34 187q38 101 121 184q95 93 211 132q81 26 172 26q225 0 379 -158q12 -12 23 -25v959h136z" />
    <glyph glyph-name="afii10042" unicode="&#x428;" horiz-adv-x="1960" 
d="M1049 136h650v1728h136v-1864h-1710v1864h136v-1728h650v1728h138v-1728z" />
    <glyph glyph-name="afii10043" unicode="&#x429;" horiz-adv-x="1960" 
d="M1835 137h113v-921h-130v784h-1693v1864h136v-1728h650v1728h138v-1728h650v1728h136v-1727z" />
    <glyph glyph-name="afii10044" unicode="&#x42a;" horiz-adv-x="1517" 
d="M737 601v-465h354q243 0 248 221q0 110 -70 179q-52 51 -135 65h-397zM737 1864v-1128h399q152 -17 241.5 -125.5t89.5 -257.5q0 -150 -89.5 -246.5t-241.5 -105.5v-1h-535v1728h-591v136h727z" />
    <glyph glyph-name="afii10045" unicode="&#x42b;" horiz-adv-x="1466" 
d="M261 1864v-1128h399q152 -17 241.5 -125.5t89.5 -257.5q0 -150 -89.5 -246.5t-241.5 -105.5v-1h-535v1864h136zM261 601v-465h354q243 0 248 221q0 110 -70 179q-52 51 -135 65h-397zM1341 1864v-1864h-136v1864h136z" />
    <glyph glyph-name="afii10046" unicode="&#x42c;" horiz-adv-x="1041" 
d="M261 1864v-1128h399q152 -17 241.5 -125.5t89.5 -257.5q0 -150 -89.5 -246.5t-241.5 -105.5v-1h-535v1864h136zM261 601v-465h354q243 0 248 221q0 110 -70 179q-52 51 -135 65h-397z" />
    <glyph glyph-name="afii10047" unicode="&#x42d;" horiz-adv-x="1356" 
d="M1087 737q22 95 22 199q0 349 -249 599t-602 250q-87 0 -168 -15v150q82 13 169 13q413 0 705 -292.5t292 -704.5q0 -413 -292 -705t-705 -292q-87 0 -169 13v150q81 -15 168 -15q353 0 602 249q121 121 183 265h-753v136h797z" />
    <glyph glyph-name="afii10048" unicode="&#x42e;" horiz-adv-x="2794" 
d="M1696 1785q-350 0 -599.5 -250t-249.5 -599q0 -351 249.5 -600t599.5 -249q353 0 602 249t249 600q0 349 -249 599t-602 250zM718 737q-18 96 -18 199q0 412 293 704.5t704 292.5q413 0 705 -292.5t292 -704.5q0 -413 -292 -705t-705 -292q-411 0 -704 292
q-166 166 -238 370h-494v-601h-136v1864h136v-1127h457z" />
    <glyph glyph-name="afii10049" unicode="&#x42f;" horiz-adv-x="1425" 
d="M1214 736v992h-520q-183 -11 -316 -144q-145 -146 -145 -350q0 -205 145 -350q142 -142 342 -145v-3h494zM297 0h-157l370 642q-125 46 -226 147q-184 184 -184 445q0 260 184 445q171 171 409 183v2h657v-1864h-136v601h-521v5q-22 1 -44 4z" />
    <glyph glyph-name="afii10065" unicode="&#x430;" horiz-adv-x="1305" 
d="M1029 444v199q-26 109 -111 194q-121 122 -294 122q-171 0 -293 -121.5t-122 -293.5t122 -293.5t293 -121.5q173 0 294 121q85 85 111 194zM1029 907v165h136v-1072h-136v181l-20 -22q-160 -159 -385 -159t-384.5 159.5t-159.5 384.5t159.5 384.5t384.5 159.5t385 -159z
" />
    <glyph glyph-name="afii10066" unicode="&#x431;" horiz-adv-x="1293" 
d="M647 951q-179 0 -306 -127.5t-127 -305.5q0 -179 127 -306t306 -127q180 0 306.5 127t126.5 306q0 178 -126.5 305.5t-306.5 127.5zM502 1698q-11 1 -22 1q-86 0 -156 -57q-78 -64 -87 -184v-549l10 10q166 166 400 166q235 0 400.5 -166.5t165.5 -400.5
q0 -235 -165.5 -401t-400.5 -166q-234 0 -400.5 166t-166.5 401q0 83 21 158v800q17 172 135 267q107 85 241 85q18 0 37 -2q63 -5 127 -43.5t147 -46.5q11 -1 22 -1q86 0 156 57q20 16 35 36l110 -79q-25 -32 -57 -58q-107 -85 -241 -85q-18 0 -37 2q-63 5 -127 43.5
t-147 46.5z" />
    <glyph glyph-name="afii10067" unicode="&#x432;" horiz-adv-x="1060" 
d="M255 596v-475h312q107 6 190.5 73.5t83.5 163.5t-86.5 165.5t-229.5 71.5v1h-270zM485 717q43 7 71 32q39 36 39 95q-3 112 -135 112h-205v-239h230zM515 1076q86 -5 150.5 -69t64.5 -161q0 -103 -48 -148q80 -16 189 -106.5t109 -233.5t-122.5 -246t-263.5 -110v-2h-479
v1078h400v-2z" />
    <glyph glyph-name="afii10068" unicode="&#x433;" horiz-adv-x="903" 
d="M265 950v-950h-140v1072h718v-122h-578z" />
    <glyph glyph-name="afii10069" unicode="&#x434;" horiz-adv-x="1093" 
d="M941 122h72v-593h-136v471h-661v-471h-136v611q44 3 82 33q61 40 61 163v736h718v-950zM800 122v828h-437v-661q-3 -100 -52 -167h489z" />
    <glyph glyph-name="afii10070" unicode="&#x435;" horiz-adv-x="1292" 
d="M1020 736q-27 46 -67 87q-124 123 -298 123q-173 0 -296 -123q-41 -41 -68 -87h729zM1072 465h130q-19 -189 -158 -328q-161 -161 -389 -161q-227 0 -388.5 161t-161.5 389q0 227 161.5 388.5t388.5 161.5q228 0 389 -161q134 -135 156 -314h-959q-6 -37 -6 -75
q0 -174 123.5 -297t296.5 -123q174 0 298 123q101 101 119 236z" />
    <glyph glyph-name="afii10072" unicode="&#x436;" horiz-adv-x="1819" 
d="M979 278l461 798h157l-253 -438q149 -33 264 -148q161 -162 161 -389v-101h-129v101q0 173 -123 297q-103 103 -242 120l-296 -513v-5h-139v5l-296 513q-139 -17 -242 -120q-123 -124 -123 -297v-101h-129v101q0 227 161 389q115 115 264 148l-253 438h157l461 -798v798
h139v-798z" />
    <glyph glyph-name="afii10073" unicode="&#x437;" horiz-adv-x="1060" 
d="M255 596v-475h312q107 6 190.5 73.5t83.5 163.5t-86.5 165.5t-229.5 71.5v1h-270zM485 717q43 7 71 32q39 36 39 95q-3 112 -135 112h-205v-239h230zM515 1076q86 -5 150.5 -69t64.5 -161q0 -103 -48 -148q80 -16 189 -106.5t109 -233.5t-122.5 -246t-263.5 -110v-2h-479
v1078h400v-2z" />
    <glyph glyph-name="afii10074" unicode="&#x438;" horiz-adv-x="940" 
d="M111 0v1078h140v-727l501 720h77v-1071h-141v714l-497 -714h-80z" />
    <glyph glyph-name="afii10075" unicode="&#x439;" horiz-adv-x="948" 
d="M115 0v1078h140v-727l501 720h77v-1071h-141v714l-497 -714h-80zM696 1471q1 -13 1 -26q0 -92 -65 -157.5t-158 -65.5q-92 0 -157.5 65.5t-65.5 157.5q0 13 1 26h125q-3 -12 -3 -26q0 -42 29.5 -71.5t70.5 -29.5q42 0 71.5 29.5t29.5 71.5q0 14 -3 26h124z" />
    <glyph glyph-name="afii10076" unicode="&#x43a;" horiz-adv-x="1124" 
d="M550 518l-299 -518h-136v1076h136v-803l464 803h157l-253 -438q149 -33 264 -148q161 -162 161 -389v-101h-129v101q0 173 -123 297q-103 103 -242 120z" />
    <glyph glyph-name="afii10077" unicode="&#x43b;" horiz-adv-x="1036" 
d="M203 1072h718v-1072h-141v950h-437v-661q-4 -149 -112 -225q-76 -61 -171 -64v140q44 3 82 33q61 40 61 163v736z" />
    <glyph glyph-name="afii10078" unicode="&#x43c;" horiz-adv-x="1284" 
d="M1169 1070v-1070h-141v720l-377 -602l-396 605v-723h-140v1070h81l454 -698l439 698h80z" />
    <glyph glyph-name="afii10079" unicode="&#x43d;" horiz-adv-x="948" 
d="M833 0h-141v360h-437v-360h-140v1072h140v-590h437v590h141v-1072z" />
    <glyph glyph-name="afii10080" unicode="&#x43e;" horiz-adv-x="1293" 
d="M647 951q-179 0 -306 -127.5t-127 -305.5q0 -179 127 -306t306 -127q180 0 306.5 127t126.5 306q0 178 -126.5 305.5t-306.5 127.5zM1213 518q0 -235 -165.5 -401t-400.5 -166q-234 0 -400.5 166t-166.5 401q0 234 166.5 400.5t400.5 166.5q235 0 400.5 -166.5
t165.5 -400.5z" />
    <glyph glyph-name="afii10081" unicode="&#x43f;" horiz-adv-x="948" 
d="M833 0h-141v950h-437v-950h-140v1072h718v-1072z" />
    <glyph glyph-name="afii10082" unicode="&#x440;" horiz-adv-x="1282" 
d="M246 628v-199q26 -109 111 -194q121 -122 294 -122q171 0 293 121.5t122 293.5t-122 293.5t-293 121.5q-173 0 -294 -121q-85 -85 -111 -194zM246 165v-957h-136v1864h136v-181l20 22q160 159 385 159t384.5 -159.5t159.5 -384.5t-159.5 -384.5t-384.5 -159.5t-385 159z
" />
    <glyph glyph-name="afii10083" unicode="&#x441;" horiz-adv-x="1299" 
d="M1079 496h140q-16 -202 -162 -348q-162 -163 -394 -163q-231 0 -394.5 163t-163.5 393q0 229 163.5 392.5t394.5 163.5q109 0 207 -38l-96 -113q-55 14 -111 14q-171 0 -294 -123t-123 -296q0 -174 123 -296.5t294 -122.5q172 0 295 123q105 104 121 251z" />
    <glyph glyph-name="afii10084" unicode="&#x442;" horiz-adv-x="586" 
d="M363 950v-950h-140v950h-173v122h486v-122h-173z" />
    <glyph glyph-name="afii10085" unicode="&#x443;" horiz-adv-x="1286" 
d="M1039 170q-10 -12 -21 -23q-155 -159 -380 -159q-91 0 -172 26q-116 39 -211 132q-83 83 -121 184q-34 81 -34 187v559h136v-578q15 -144 120 -249q117 -116 282 -116q164 0 280 116q114 114 121 271v556h137l-1 -1303q-3 -224 -157.5 -382.5t-379.5 -158.5
q-91 0 -172 26q-116 39 -211 132q-83 83 -121 184q-28 66 -28 183v16h137q8 -175 113 -280q117 -116 282 -116q164 0 280 116q114 114 121 271v406z" />
    <glyph glyph-name="afii10086" unicode="&#x444;" horiz-adv-x="2201" 
d="M1165 628v-199q26 -109 111 -194q121 -122 294 -122q171 0 293 121.5t122 293.5t-122 293.5t-293 121.5q-173 0 -294 -121q-85 -85 -111 -194zM1029 898v174h136v-181l20 22q160 159 385 159t384.5 -159.5t159.5 -384.5t-159.5 -384.5t-384.5 -159.5t-385 159l-20 22
v-957h-136v950q-7 -9 -13 -15q-160 -159 -385 -159t-384.5 159.5t-159.5 384.5t159.5 384.5t384.5 159.5t385 -159q6 -6 13 -15zM1029 403v251q-29 93 -104 168q-121 121 -294 121q-171 0 -293 -121.5t-122 -293.5t122 -293.5t293 -121.5q173 0 294 122q75 75 104 168z" />
    <glyph glyph-name="afii10087" unicode="&#x445;" horiz-adv-x="965" 
d="M157 1072l325 -563l325 563h158l-404 -699l215 -373h-157l-137 237l-137 -237h-157l216 373l-404 699h157z" />
    <glyph glyph-name="afii10088" unicode="&#x446;" horiz-adv-x="971" 
d="M770 0h-655v1072h140v-951h437v951h141v-950h73v-593h-136v471z" />
    <glyph glyph-name="afii10089" unicode="&#x447;" horiz-adv-x="971" 
d="M716 476q-77 -97 -235 -97q-64 0 -121 17q-82 25 -148 85q-57 53 -84 117q-23 52 -23 119v355h140v-366q9 -80 72 -137q68 -63 164 -63q94 0 164 64q66 61 70 149v353h141v-1072h-140v476z" />
    <glyph glyph-name="afii10090" unicode="&#x448;" horiz-adv-x="1394" 
d="M768 121h370v951h141v-1072h-1164v1072h140v-951h371v951h142v-951z" />
    <glyph glyph-name="afii10091" unicode="&#x449;" horiz-adv-x="1404" 
d="M115 0v1072h140v-951h371v951h142v-951h370v951h141v-953l3 3h59v-593h-136v471h-1090z" />
    <glyph glyph-name="afii10092" unicode="&#x44a;" horiz-adv-x="1169" 
d="M614 361v-239h205q132 0 135 112q0 59 -39 95q-28 25 -71 32h-230zM614 1072v-590h220q255 -12 255 -250q0 -97 -64.5 -161t-150.5 -69v-2h-400v950h-444v122h584z" />
    <glyph glyph-name="afii10093" unicode="&#x44b;" horiz-adv-x="1120" 
d="M255 482h220q255 -12 255 -250q0 -97 -64.5 -161t-150.5 -69v-2h-400v1072h140v-590zM255 361v-239h205q132 0 135 112q0 59 -39 95q-28 25 -71 32h-230zM865 0v1072h140v-1072h-140z" />
    <glyph glyph-name="afii10094" unicode="&#x44c;" horiz-adv-x="810" 
d="M255 482h220q255 -12 255 -250q0 -97 -64.5 -161t-150.5 -69v-2h-400v1072h140v-590zM255 361v-239h205q132 0 135 112q0 59 -39 95q-28 25 -71 32h-230z" />
    <glyph glyph-name="afii10095" unicode="&#x44d;" horiz-adv-x="1032" 
d="M120 1006q121 70 272 70q227 0 388.5 -161.5t161.5 -388.5q0 -228 -161.5 -389t-388.5 -161q-151 0 -272 70v159q116 -99 272 -99q173 0 296.5 123t123.5 297q0 38 -6 75h-486v135h436q-27 46 -68 87q-123 123 -296 123q-156 0 -272 -99v159z" />
    <glyph glyph-name="afii10096" unicode="&#x44e;" horiz-adv-x="1747" 
d="M1101 951q-179 0 -306 -127.5t-127 -305.5q0 -179 127 -306t306 -127q180 0 306.5 127t126.5 306q0 178 -126.5 305.5t-306.5 127.5zM555 360h-300v-360h-140v1072h140v-590h280q-1 18 -1 36q0 234 166.5 400.5t400.5 166.5q235 0 400.5 -166.5t165.5 -400.5
q0 -235 -165.5 -401t-400.5 -166q-234 0 -400 166q-108 107 -146 243z" />
    <glyph glyph-name="afii10097" unicode="&#x44f;" horiz-adv-x="1070" 
d="M814 481v469h-311q-107 -6 -191 -62t-84 -171q0 -116 86.5 -174t230.5 -60v-2h269zM486 360l-226 -360h-159l247 395q-63 21 -160.5 89.5t-97.5 232.5q0 163 122 254.5t263 100.5h480v-1072h-141v360h-328z" />
    <glyph glyph-name="afii10071" unicode="&#x451;" horiz-adv-x="1292" 
d="M1020 736q-27 46 -67 87q-124 123 -298 123q-173 0 -296 -123q-41 -41 -68 -87h729zM1072 465h130q-19 -189 -158 -328q-161 -161 -389 -161q-227 0 -388.5 161t-161.5 389q0 227 161.5 388.5t388.5 161.5q228 0 389 -161q134 -135 156 -314h-959q-6 -37 -6 -75
q0 -174 123.5 -297t296.5 -123q174 0 298 123q101 101 119 236zM454 1412q29 0 56 -14.5t42.5 -42t15.5 -57.5t-15 -57t-42 -42t-57 -15t-57 15t-42 42t-15 57t15.5 57.5t42.5 42t56 14.5zM854 1412q29 0 56 -14.5t42.5 -42t15.5 -57.5t-15 -57t-42 -42t-57 -15t-57 15
t-42 42t-15 57t15.5 57.5t42.5 42t56 14.5z" />
    <glyph glyph-name="afii10099" unicode="&#x452;" horiz-adv-x="1281" 
d="M251 905q177 183 402 183q91 0 172 -26q116 -39 211 -132q83 -83 121 -184q34 -81 34 -187v-964q-17 -172 -135 -267q-107 -85 -241 -85q-18 0 -37 2q-65 5 -120 30q-60 25 -117 81l100 86q66 -61 149 -69q11 -1 22 -1q86 0 156 57q78 64 87 184v965q-15 144 -120 249
q-117 116 -282 116q-164 0 -280 -116q-114 -114 -121 -271v-556h-137v1482h-110v130h110v252h136v-252h684v-130h-684v-577z" />
    <glyph glyph-name="afii10100" unicode="&#x453;" horiz-adv-x="903" 
d="M265 950v-950h-140v1072h718v-122h-578zM361 1294l277 275l93 -93l-276 -276z" />
    <glyph glyph-name="afii10101" unicode="&#x454;" horiz-adv-x="1032" 
d="M942 847q-116 99 -272 99q-173 0 -296 -123q-41 -41 -68 -87h436v-135h-486q-6 -37 -6 -75q0 -174 123.5 -297t296.5 -123q156 0 272 99v-159q-121 -70 -272 -70q-227 0 -388.5 161t-161.5 389q0 227 161.5 388.5t388.5 161.5q151 0 272 -70v-159z" />
    <glyph glyph-name="afii10102" unicode="&#x455;" horiz-adv-x="631" 
d="M532 860q-58 55 -99 55q-40 -2 -70.5 -34.5t-31.5 -84.5q0 -20 12 -79l92 -388q13 -68 13 -91q-2 -98 -74.5 -174t-186.5 -82q-99 0 -187 85l100 104q57 -55 93 -55q46 2 76.5 34t31.5 80q0 18 -12 79q-106 418 -106 484q2 97 74 173t188 82q98 0 186 -85z" />
    <glyph glyph-name="afii10103" unicode="&#x456;" horiz-adv-x="438" 
d="M287 736v-736h-136v736h136zM219 1076q29 0 56 -14.5t42.5 -42t15.5 -57.5t-15 -57t-42 -42t-57 -15t-57 15t-42 42t-15 57t15.5 57.5t42.5 42t56 14.5z" />
    <glyph glyph-name="afii10104" unicode="&#x457;" horiz-adv-x="286" 
d="M211 736v-736h-136v736h136zM-7 1112q29 0 56 -14.5t42.5 -42t15.5 -57.5t-15 -57t-42 -42t-57 -15t-57 15t-42 42t-15 57t15.5 57.5t42.5 42t56 14.5zM293 1112q29 0 56 -14.5t42.5 -42t15.5 -57.5t-15 -57t-42 -42t-57 -15t-57 15t-42 42t-15 57t15.5 57.5t42.5 42
t56 14.5z" />
    <glyph glyph-name="afii10105" unicode="&#x458;" horiz-adv-x="430" 
d="M216 1076q29 0 56 -14.5t42.5 -42t15.5 -57.5t-15 -57t-42 -42t-57 -15t-57 15t-42 42t-15 57t15.5 57.5t42.5 42t56 14.5zM144 -387v1123h138v-1141q-17 -172 -137 -267q-107 -85 -241 -85q-18 0 -37 2q-65 5 -120 30q-60 25 -117 81l100 86q66 -61 149 -69q11 -1 22 -1
q86 0 156 57q78 64 87 184z" />
    <glyph glyph-name="afii10106" unicode="&#x459;" horiz-adv-x="1502" 
d="M951 1072v-590h216q255 -12 255 -250q0 -97 -64.5 -161t-150.5 -69v-2h-400v950h-434v-661q-4 -149 -112 -225q-76 -61 -171 -64v140q44 3 82 33q61 40 61 163v736h718zM951 361v-239h201q132 0 135 112q0 59 -39 95q-28 25 -71 32h-226z" />
    <glyph glyph-name="afii10107" unicode="&#x45a;" horiz-adv-x="1384" 
d="M829 1072h4v-590h216q255 -12 255 -250q0 -97 -64.5 -161t-150.5 -69v-2h-400v360h-434v-360h-140v1072h140v-590h434v596h140v-6zM833 361v-239h201q132 0 135 112q0 59 -39 95q-28 25 -71 32h-226z" />
    <glyph glyph-name="afii10108" unicode="&#x45b;" horiz-adv-x="1326" 
d="M261 1482v-577q11 13 23 25q154 158 379 158q91 0 172 -26q116 -39 211 -132q83 -83 121 -184q34 -81 34 -187v-559h-136v578q-15 144 -120 249q-117 116 -282 116q-164 0 -280 -116q-114 -114 -121 -271v-556h-137v1482h-110v130h110v252h136v-252h684v-130h-684z" />
    <glyph glyph-name="afii10109" unicode="&#x45c;" horiz-adv-x="1124" 
d="M540 518l-299 -518h-136v1076h136v-803l464 803h157l-253 -438q149 -33 264 -148q161 -162 161 -389v-101h-129v101q0 173 -123 297q-103 103 -242 120zM446 1294l277 275l93 -93l-276 -276z" />
    <glyph glyph-name="afii10110" unicode="&#x45e;" horiz-adv-x="1286" 
d="M1039 170q-10 -12 -21 -23q-155 -159 -380 -159q-91 0 -172 26q-116 39 -211 132q-83 83 -121 184q-34 81 -34 187v559h136v-578q15 -144 120 -249q117 -116 282 -116q164 0 280 116q114 114 121 271v556h137l-1 -1303q-3 -224 -157.5 -382.5t-379.5 -158.5
q-91 0 -172 26q-116 39 -211 132q-83 83 -121 184q-28 66 -28 183v16h137q8 -175 113 -280q117 -116 282 -116q164 0 280 116q114 114 121 271v406zM860 1471q1 -13 1 -26q0 -92 -65 -157.5t-158 -65.5q-92 0 -157.5 65.5t-65.5 157.5q0 13 1 26h125q-3 -12 -3 -26
q0 -42 29.5 -71.5t70.5 -29.5q42 0 71.5 29.5t29.5 71.5q0 14 -3 26h124z" />
    <glyph glyph-name="afii10193" unicode="&#x45f;" horiz-adv-x="928" 
d="M532 121h150v951h141v-1072h-291v-471h-136v471h-291v1072h140v-951h151v1h136v-1z" />
    <glyph glyph-name="afii10050" unicode="&#x490;" horiz-adv-x="866" 
d="M816 1728h-530v-1728h-136v1864h530v443h136v-579z" />
    <glyph glyph-name="afii10098" unicode="&#x491;" horiz-adv-x="903" 
d="M843 950h-578v-950h-140v1072h578v428h140v-550z" />
    <glyph glyph-name="Wgrave" unicode="&#x1e80;" horiz-adv-x="2375" 
d="M2365 1864l-877 -1884l-299 642l-299 -642l-880 1884h151l728 -1562l225 481l-505 1081h151l728 -1562l727 1562h150zM1217 1979l-276 276l93 93l277 -275z" />
    <glyph glyph-name="wgrave" unicode="&#x1e81;" horiz-adv-x="1791" 
d="M1786 1076l-628 -1089l-262 454l-262 -454l-629 1089h158l471 -816l183 317l-288 499h158l471 -816l471 816h157zM925 1187l-276 276l93 93l277 -275z" />
    <glyph glyph-name="Wacute" unicode="&#x1e82;" horiz-adv-x="2375" 
d="M2365 1864l-877 -1884l-299 642l-299 -642l-880 1884h151l728 -1562l225 481l-505 1081h151l728 -1562l727 1562h150zM1064 2086l277 275l93 -93l-276 -276z" />
    <glyph glyph-name="wacute" unicode="&#x1e83;" horiz-adv-x="1791" 
d="M1786 1076l-628 -1089l-262 454l-262 -454l-629 1089h158l471 -816l183 317l-288 499h158l471 -816l471 816h157zM772 1294l277 275l93 -93l-276 -276z" />
    <glyph glyph-name="Wdieresis" unicode="&#x1e84;" horiz-adv-x="2375" 
d="M2365 1864l-877 -1884l-299 642l-299 -642l-880 1884h151l728 -1562l225 481l-505 1081h151l728 -1562l727 1562h150zM988 2204q29 0 56 -14.5t42.5 -42t15.5 -57.5t-15 -57t-42 -42t-57 -15t-57 15t-42 42t-15 57t15.5 57.5t42.5 42t56 14.5zM1388 2204q29 0 56 -14.5
t42.5 -42t15.5 -57.5t-15 -57t-42 -42t-57 -15t-57 15t-42 42t-15 57t15.5 57.5t42.5 42t56 14.5z" />
    <glyph glyph-name="wdieresis" unicode="&#x1e85;" horiz-adv-x="1791" 
d="M1786 1076l-628 -1089l-262 454l-262 -454l-629 1089h158l471 -816l183 317l-288 499h158l471 -816l471 816h157zM696 1412q29 0 56 -14.5t42.5 -42t15.5 -57.5t-15 -57t-42 -42t-57 -15t-57 15t-42 42t-15 57t15.5 57.5t42.5 42t56 14.5zM1096 1412q29 0 56 -14.5
t42.5 -42t15.5 -57.5t-15 -57t-42 -42t-57 -15t-57 15t-42 42t-15 57t15.5 57.5t42.5 42t56 14.5z" />
    <glyph glyph-name="Ygrave" unicode="&#x1ef2;" horiz-adv-x="1609" 
d="M737 607l-737 1257h157l648 -1120l647 1120h157l-736 -1257l-1 -607h-135v607zM834 1979l-276 276l93 93l277 -275z" />
    <glyph glyph-name="ygrave" unicode="&#x1ef3;" horiz-adv-x="1286" 
d="M1039 170q-10 -12 -21 -23q-155 -159 -380 -159q-91 0 -172 26q-116 39 -211 132q-83 83 -121 184q-34 81 -34 187v559h136v-578q15 -144 120 -249q117 -116 282 -116q164 0 280 116q114 114 121 271v556h137l-1 -1303q-3 -224 -157.5 -382.5t-379.5 -158.5
q-91 0 -172 26q-116 39 -211 132q-83 83 -121 184q-28 66 -28 183v16h137q8 -175 113 -280q117 -116 282 -116q164 0 280 116q114 114 121 271v406zM667 1187l-276 276l93 93l277 -275z" />
    <glyph glyph-name="figuredash" unicode="&#x2012;" horiz-adv-x="1200" 
d="M11 998h1276v-130h-1276v130z" />
    <glyph glyph-name="afii00208" unicode="&#x2015;" horiz-adv-x="3072" 
d="M0 1088h2612v-130h-2612v130z" />
    <glyph glyph-name="underscoredbl" unicode="&#x2017;" horiz-adv-x="1030" 
d="M-50 -400h1130v-130h-1130v130zM-50 -75h1130v-130h-1130v130z" />
    <glyph glyph-name="quotereversed" unicode="&#x201b;" horiz-adv-x="296" 
d="M296 1509l-68 -120q-203 183 -228 395q0 51 19.5 85.5t46.5 49t56 14.5t56 -14.5t42.5 -42t15.5 -57.5t-15 -57t-42 -42q-8 -4 -16 -7q32 -105 133 -204z" />
    <glyph glyph-name="twodotenleader" unicode="&#x2025;" horiz-adv-x="1365" 
d="M189 228q29 0 56 -14.5t42.5 -42t15.5 -57.5t-15 -57t-42 -42t-57 -15t-57 15t-42 42t-15 57t15.5 57.5t42.5 42t56 14.5zM872 228q29 0 56 -14.5t42.5 -42t15.5 -57.5t-15 -57t-42 -42t-57 -15t-57 15t-42 42t-15 57t15.5 57.5t42.5 42t56 14.5z" />
    <glyph glyph-name="minute" unicode="&#x2032;" horiz-adv-x="280" 
d="M75 1276v588h130z" />
    <glyph glyph-name="second" unicode="&#x2033;" horiz-adv-x="540" 
d="M75 1276v588h130zM335 1276v588h130z" />
    <glyph glyph-name="exclamdbl" unicode="&#x203c;" horiz-adv-x="756" 
d="M257 1864v-1544h-136v1544h136zM189 228q29 0 56 -14.5t42.5 -42t15.5 -57.5t-15 -57t-42 -42t-57 -15t-57 15t-42 42t-15 57t15.5 57.5t42.5 42t56 14.5zM635 1864v-1544h-136v1544h136zM567 228q29 0 56 -14.5t42.5 -42t15.5 -57.5t-15 -57t-42 -42t-57 -15t-57 15
t-42 42t-15 57t15.5 57.5t42.5 42t56 14.5z" />
    <glyph glyph-name="uni203D" unicode="&#x203d;" horiz-adv-x="1114" 
d="M549 228q29 0 56 -14.5t42.5 -42t15.5 -57.5t-15 -57t-42 -42t-57 -15t-57 15t-42 42t-15 57t15.5 57.5t42.5 42t56 14.5zM481 1564h136v-720l238 401q33 68 33 140q0 54 -18 110q-45 129 -168 189q-70 34 -143 34q-54 0 -108 -19q-130 -44 -190 -165q-34 -71 -34 -145
q0 -28 5 -57l-144 -52q-13 55 -13 107q0 108 52 212q41 86 105 144q70 66 168 101q81 26 159 26q30 0 61 -4q75 -11 148 -46q178 -87 243 -275q28 -82 28 -160q0 -106 -49 -206l-345 -569q-24 -46 -28 -88v-202h-136v1244z" />
    <glyph glyph-name="uni203E" unicode="&#x203e;" horiz-adv-x="1030" 
d="M-50 2114h1130v-130h-1130v130z" />
    <glyph glyph-name="uni204C" unicode="&#x204c;" horiz-adv-x="378" 
d="M189 849q29 0 56 -14.5t42.5 -42t15.5 -57.5t-15 -57t-42 -42t-57 -15t-57 15t-42 42t-15 57t15.5 57.5t42.5 42t56 14.5z" />
    <glyph glyph-name="uni204D" unicode="&#x204d;" horiz-adv-x="378" 
d="M949 735q0 -30 -15 -57t-42 -42t-57 -15t-57 15t-42 42t-15 57t15.5 57.5t42.5 42t56 14.5t56 -14.5t42.5 -42t15.5 -57.5z" />
    <glyph glyph-name="uni2053" unicode="&#x2053;" horiz-adv-x="1668" 
d="M1384 781q6 0 10 1q40 8 64 43q16 24 17 51l118 -44q-9 -39 -33 -75q-52 -77 -142 -94q-14 -3 -28 -4q-9 -1 -19 -1q-81 0 -560.5 47.5t-526.5 47.5q-6 0 -10 -1q-40 -8 -64 -43q-16 -24 -17 -51l-118 44q9 39 33 75q52 77 142 94q14 3 28 4q9 1 19 1q81 0 560.5 -47.5
t526.5 -47.5z" />
    <glyph glyph-name="uni2070" unicode="&#x2070;" horiz-adv-x="742" 
d="M658 1235v-415q0 -107 -83.5 -184.5t-203.5 -77.5t-204 77.5t-84 184.5v415q0 106 84 183.5t204 77.5q49 0 92 -13q62 -19 113 -64q43 -41 63 -90q19 -43 19 -94zM524 1237q0 59 -44 100q-47 43 -110 43q-62 0 -109 -43q-43 -41 -43 -100v-2l-1 -414q0 -63 45.5 -104.5
t107.5 -41.5q63 0 108.5 41.5t45.5 104.5v416z" />
    <glyph glyph-name="uni2074" unicode="&#x2074;" 
d="M521 772h-388l529 846v-724h103v-122h-103v-192h-141v192zM521 1138l-152 -244h152v244z" />
    <glyph glyph-name="uni2075" unicode="&#x2075;" 
d="M397 1496h286v-122h-197l-83 -134l-4 -1q0 -2 29 -2q159 0 270 -102.5t111 -245.5t-111 -245.5t-270 -102.5t-269 101q-37 35 -69 83l104 87q33 -60 60 -85q73 -68 174 -68t173.5 66.5t72.5 163.5q0 96 -72.5 163t-173.5 67q-62 0 -130 -33l-100 84z" />
    <glyph glyph-name="uni2076" unicode="&#x2076;" 
d="M322 903q-26 -36 -26 -84q0 -60 46 -102t108 -42t108 42t46 102q0 63 -46 104.5t-108 41.5t-109 -42zM195 944l346 552h159l-257 -410q-10 -2 -10 -3q0 -2 17 -2q120 0 204 -77t84 -184t-84 -184.5t-204 -77.5q-49 0 -92 13q-63 19 -113 65q-44 40 -64 89q-19 44 -19 95
q0 78 33 124z" />
    <glyph glyph-name="uni2077" unicode="&#x2077;" 
d="M587 1374h-345v122h581l-586 -938h-160z" />
    <glyph glyph-name="uni2078" unicode="&#x2078;" 
d="M449 1380q-62 0 -107.5 -42t-45.5 -103q0 -63 45.5 -104.5t107.5 -41.5q63 0 108.5 41.5t45.5 104.5q0 61 -45.5 103t-108.5 42zM449 965q-62 0 -107.5 -42t-45.5 -102q0 -63 45.5 -104.5t107.5 -41.5q63 0 108.5 41.5t45.5 104.5q0 60 -45.5 102t-108.5 42zM271 1027
q-1 1 -24 22q-85 79 -85 186q0 106 84 183.5t204 77.5q49 0 92 -13q62 -19 113 -64q43 -41 63 -90q19 -43 19 -94q0 -107 -85 -186q-23 -21 -23 -22l26 -23q43 -41 63 -89q19 -44 19 -95q0 -107 -83.5 -184.5t-203.5 -77.5t-204 77.5t-84 184.5t85 185q23 22 24 22z" />
    <glyph glyph-name="uni2079" unicode="&#x2079;" 
d="M558 1131l20 21q26 35 26 83q0 61 -46 103t-108 42t-108 -42t-46 -103q0 -63 46 -104.5t108 -41.5t108 41v1zM705 1111l-346 -553h-159l257 411q10 2 10 3t-17 1q-120 0 -204 77.5t-84 184.5q0 106 84 183.5t204 77.5q49 0 92 -13q63 -19 113 -64q44 -41 63 -90
q20 -43 20 -94q0 -79 -33 -124z" />
    <glyph glyph-name="uni207A" unicode="&#x207a;" 
d="M518 964h268v-118h-268v-247h-137v247h-268v118h268v248h137v-248z" />
    <glyph glyph-name="uni207B" unicode="&#x207b;" 
d="M786 959v-118h-673v118h673z" />
    <glyph glyph-name="uni207C" unicode="&#x207c;" 
d="M786 1029v-118h-673v118h673zM786 873v-118h-673v118h673z" />
    <glyph glyph-name="uni207F" unicode="&#x207f;" 
d="M222 1791q77 73 236 73q63 0 121 -17q81 -25 147 -85q58 -53 84 -117q23 -52 23 -118v-356h-140v366q-9 80 -72 138q-68 62 -163 62t-165 -64q-66 -61 -70 -149v-353h-141v686h140v-66z" />
    <glyph glyph-name="uni2080" unicode="&#x2080;" horiz-adv-x="742" 
d="M658 209v-415q0 -107 -83.5 -184.5t-203.5 -77.5t-204 77.5t-84 184.5v415q0 106 84 183.5t204 77.5q49 0 92 -13q62 -19 113 -64q43 -41 63 -90q19 -43 19 -94zM524 211q0 59 -44 100q-47 43 -110 43q-62 0 -109 -43q-43 -41 -43 -100v-2l-1 -414q0 -63 45.5 -104.5
t107.5 -41.5q63 0 108.5 41.5t45.5 104.5v416z" />
    <glyph glyph-name="uni2081" unicode="&#x2081;" 
d="M434 124h-109l249 396v-1038h-140v642z" />
    <glyph glyph-name="uni2082" unicode="&#x2082;" 
d="M637 48l-246 -394h354v-122h-590l338 541q65 114 65 137v14q0 51 -40 88q-46 42 -108 42t-109 -43q-8 -7 -34 -41l-95 88q21 23 35 36q83 76 203 76q49 0 92 -13q63 -19 113 -64q44 -41 64 -90q3 -7 6 -15q13 -37 13 -80q-7 -83 -61 -160z" />
    <glyph glyph-name="uni2083" unicode="&#x2083;" 
d="M408 209l93 148h-170v122h406l-175 -279q64 -17 136 -83q110 -102 110 -245t-111 -245.5t-271 -102.5q-154 0 -265 98l-3 3q-37 34 -68 80l101 93q31 -58 54 -81l7 -7q74 -68 174 -68q101 0 173.5 66.5t72.5 163.5q0 96 -73 165q-53 48 -122 61q-24 4 -51 4q-21 0 -90 -9
z" />
    <glyph glyph-name="uni2084" unicode="&#x2084;" 
d="M521 -326h-388l529 846v-724h103v-122h-103v-192h-141v192zM521 40l-152 -244h152v244z" />
    <glyph glyph-name="uni2085" unicode="&#x2085;" 
d="M397 478h286v-122h-197l-83 -134l-4 -1q0 -2 29 -2q159 0 270 -102.5t111 -245.5t-111 -245.5t-270 -102.5t-269 101q-37 35 -69 83l104 87q33 -60 60 -85q73 -68 174 -68t173.5 66.5t72.5 163.5q0 96 -72.5 163t-173.5 67q-62 0 -130 -33l-100 84z" />
    <glyph glyph-name="uni2086" unicode="&#x2086;" 
d="M322 -123q-26 -36 -26 -84q0 -60 46 -102t108 -42t108 42t46 102q0 63 -46 104.5t-108 41.5t-109 -42zM195 -82l346 552h159l-257 -410q-10 -2 -10 -3q0 -2 17 -2q120 0 204 -77t84 -184t-84 -184.5t-204 -77.5q-49 0 -92 13q-63 19 -113 65q-44 40 -64 89q-19 44 -19 95
q0 78 33 124z" />
    <glyph glyph-name="uni2087" unicode="&#x2087;" 
d="M587 348h-345v122h581l-586 -938h-160z" />
    <glyph glyph-name="uni2088" unicode="&#x2088;" 
d="M449 354q-62 0 -107.5 -42t-45.5 -103q0 -63 45.5 -104.5t107.5 -41.5q63 0 108.5 41.5t45.5 104.5q0 61 -45.5 103t-108.5 42zM449 -61q-62 0 -107.5 -42t-45.5 -102q0 -63 45.5 -104.5t107.5 -41.5q63 0 108.5 41.5t45.5 104.5q0 60 -45.5 102t-108.5 42zM271 1
q-1 1 -24 22q-85 79 -85 186q0 106 84 183.5t204 77.5q49 0 92 -13q62 -19 113 -64q43 -41 63 -90q19 -43 19 -94q0 -107 -85 -186q-23 -21 -23 -22l26 -23q43 -41 63 -89q19 -44 19 -95q0 -107 -83.5 -184.5t-203.5 -77.5t-204 77.5t-84 184.5t85 185q23 22 24 22z" />
    <glyph glyph-name="uni2089" unicode="&#x2089;" 
d="M558 104l20 21q26 35 26 83q0 61 -46 103t-108 42t-108 -42t-46 -103q0 -63 46 -104.5t108 -41.5t108 41v1zM705 84l-346 -553h-159l257 411q10 2 10 3t-17 1q-120 0 -204 77.5t-84 184.5q0 106 84 183.5t204 77.5q49 0 92 -13q63 -19 113 -64q44 -41 63 -90
q20 -43 20 -94q0 -79 -33 -124z" />
    <glyph glyph-name="uni208A" unicode="&#x208a;" 
d="M518 60h268v-118h-268v-247h-137v247h-268v118h268v248h137v-248z" />
    <glyph glyph-name="uni208B" unicode="&#x208b;" 
d="M786 60v-118h-673v118h673z" />
    <glyph glyph-name="uni208C" unicode="&#x208c;" 
d="M786 138v-118h-673v118h673zM786 -18v-118h-673v118h673z" />
    <glyph glyph-name="franc" unicode="&#x20a3;" horiz-adv-x="975" 
d="M234 443v1421h666v-136h-530v-991h530v-136h-530v-158h267v-132h-267v-311h-136v311h-159v132h159z" />
    <glyph glyph-name="lira" unicode="&#x20a4;" horiz-adv-x="1291" 
d="M233 879l-12 42q-124 345 -127 456v6q0 179 129 311q131 133 320 134l32 1h3q188 0 320 -131q25 -24 45 -50l-129 -78q-11 14 -24 26q-45 46 -98 70l-2 -3q-47 29 -130 29h-24q-56 -4 -106 -28q-53 -25 -98 -71q-88 -90 -88 -215q1 -54 17 -98l121 -401h292v-130h-253
l30 -100h223v-130h-185q8 -41 9 -85v-4q0 -125 -60 -226l435 -128q23 -8 50 -8q63 0 108.5 45.5t50.5 127.5h134q0 -140 -86 -226t-207 -86q-71 2 -280 75q-152 42 -263 42q-76 0 -133 -20q-67 -33 -145 -42l-11 56l-16 85q65 6 114.5 37t70.5 52q88 87 88 216v3
q0 17 -17 86h-300v130h266q-12 45 -27 100h-239v130h202z" />
    <glyph glyph-name="peseta" unicode="&#x20a7;" horiz-adv-x="1523" 
d="M420 487v2q130 2 207 81t77 196q0 116 -79 198q-71 73 -165 78h-277v-555h237zM487 371v-5h-304v-360h-132v1158h436v-3q127 -6 234 -116q113 -117 113 -279q0 -163 -115 -281q-105 -108 -232 -114zM937 48q-72 53 -74 151v167h-55v121h55v677h142v-677h117v-121h-117
v-163q0 -42 22 -59q20 -15 50 -24q27 -9 78 -9q3 0 6 1q55 0 86.5 15t32.5 37q0 9 -8 44q-69 252 -69 294q1 64 54.5 116t140.5 56q76 0 156 -70l-97 -93q-50 44 -65 44q-14 -1 -27 -14t-14 -38q0 -10 7 -44l60 -233q9 -42 9 -58q-1 -65 -55 -117t-142 -58q-34 -2 -66 -2
q-51 0 -96 6q-74 9 -131 51z" />
    <glyph glyph-name="Euro" unicode="&#x20ac;" horiz-adv-x="1517" 
d="M100 946h-136l33 132h114q55 370 355 603q257 200 571 200q63 0 128 -8q183 -23 342 -109l-111 -108q-119 56 -250 72q-55 7 -108 7q-265 0 -482 -169q-245 -190 -296 -488h899l-44 -132h-868v-7q1 -47 7 -95l4 -30h863l-43 -132h-788q72 -218 266 -369
q217 -169 482 -169q53 0 108 7q131 16 250 72l111 -108q-159 -86 -342 -109q-65 -8 -128 -8q-314 0 -571 200q-250 195 -330 484h-190l34 132h129q0 5 -1 11q-7 52 -8 103v18z" />
    <glyph glyph-name="uni20AF" unicode="&#x20af;" horiz-adv-x="2568" 
d="M236 1725v-1587q332 0 557 233t225 563q0 328 -218 566q-208 226 -531 226q-16 0 -33 -1zM100 5l2 1864h168q402 -27 633 -269q253 -279 253 -666q0 -389 -257 -660q-234 -234 -600 -269h-199zM1532 628v-199q26 -109 111 -194q121 -122 294 -122q171 0 293 121.5
t122 293.5t-122 293.5t-293 121.5q-173 0 -294 -121q-85 -85 -111 -194zM1532 165v-957h-136v1364q6 161 161 330.5t380 169.5t384.5 -159.5t159.5 -384.5t-159.5 -384.5t-384.5 -159.5t-385 159z" />
    <glyph glyph-name="uni2100" unicode="&#x2100;" horiz-adv-x="2226" 
d="M937 1381v149q-20 82 -83 146q-91 91 -221 91q-128 0 -219.5 -91t-91.5 -220t91.5 -220t219.5 -91q130 0 221 91q63 63 83 145zM937 1728v124h102v-804h-102v136q-8 -8 -15 -17q-120 -119 -289 -119t-288.5 119.5t-119.5 288.5t119.5 288.5t288.5 119.5t289 -119
q7 -8 15 -17zM1749 1885l148 -31l-1206 -1892l-147 30zM2021 372h105q-12 -151 -121 -261q-122 -122 -296 -122q-173 0 -295.5 122t-122.5 295q0 172 122.5 294.5t295.5 122.5q82 0 155 -29l-72 -84q-41 10 -83 10q-128 0 -220.5 -92t-92.5 -222q0 -131 92.5 -222.5
t220.5 -91.5q129 0 221 92q79 78 91 188z" />
    <glyph glyph-name="uni2103" unicode="&#x2103;" horiz-adv-x="2614" 
d="M298 1439q-48 0 -82 -34t-34 -82q0 -49 34 -83t82 -34q49 0 83 34t34 83q0 48 -34 82t-83 34zM92 1236q-17 40 -17 87q0 92 65.5 157.5t157.5 65.5t157.5 -65.5t65.5 -157.5q0 -93 -65.5 -158t-157.5 -65q-37 0 -70 10q-49 16 -88 55q-32 32 -48 71zM2569 736
q-74 -333 -344 -545q-256 -200 -570 -200q-63 0 -128 8q-389 49 -630 358q-201 259 -201 570q0 62 8 127q48 386 358 627q257 200 571 200q63 0 128 -8q183 -23 342 -109l-111 -108q-119 56 -250 72q-55 7 -108 7q-265 0 -482 -169q-262 -204 -302 -531q-7 -54 -7 -107
q0 -264 170 -481q203 -261 531 -303q55 -7 109 -7q265 0 482 169q216 169 283 430h151z" />
    <glyph glyph-name="uni2104" unicode="&#x2104;" horiz-adv-x="1264" 
d="M466 547v770q-69 -31 -127 -89q-123 -123 -123 -296q0 -174 123 -296q58 -58 127 -89zM602 514q15 -1 31 -1q172 0 295 123q105 104 121 251h140q-16 -202 -162 -348q-162 -163 -394 -163q-16 0 -31 1v-241h530v-136h-666v400q-127 38 -227 139q-164 163 -164 393
q0 229 164 393q100 100 227 139v400h136v-377q15 1 31 1q109 0 207 -38l-96 -113q-55 14 -111 14q-16 0 -31 -1v-836z" />
    <glyph glyph-name="afii61248" unicode="&#x2105;" horiz-adv-x="2178" 
d="M956 1413h105q-12 -151 -122 -261q-121 -122 -295 -122t-296.5 122.5t-122.5 294.5t122.5 294.5t296.5 122.5q81 0 155 -28l-72 -85q-41 10 -83 10q-129 0 -221 -92t-92 -222t92 -222t221 -92t221 92q79 78 91 188zM1691 1885l148 -31l-1206 -1892l-147 30zM1674 713
q-134 0 -229.5 -95.5t-95.5 -228.5q0 -135 95.5 -230t229.5 -95q135 0 230 95t95 230q0 133 -95 228.5t-230 95.5zM2098 389q0 -177 -124 -301.5t-300 -124.5t-300.5 124.5t-124.5 301.5q0 175 124.5 300t300.5 125t300 -125t124 -300z" />
    <glyph glyph-name="uni2106" unicode="&#x2106;" horiz-adv-x="2066" 
d="M956 1413h105q-12 -151 -122 -261q-121 -122 -295 -122t-296.5 122.5t-122.5 294.5t122.5 294.5t296.5 122.5q81 0 155 -28l-72 -85q-41 10 -83 10q-129 0 -221 -92t-92 -222t92 -222t221 -92t221 92q79 78 91 188zM1741 1885l148 -31l-1206 -1892l-147 30zM1388 320
q0 -93 65.5 -158t157.5 -65q93 0 158 65q60 59 65 143v502h102v-502q-6 -125 -96 -215q-95 -95 -229 -95t-230 95q-90 90 -95 215v502h102v-487z" />
    <glyph glyph-name="uni2109" unicode="&#x2109;" horiz-adv-x="1392" 
d="M298 1439q-48 0 -82 -34t-34 -82q0 -49 34 -83t82 -34q49 0 83 34t34 83q0 48 -34 82t-83 34zM92 1236q-17 40 -17 87q0 92 65.5 157.5t157.5 65.5t157.5 -65.5t65.5 -157.5q0 -93 -65.5 -158t-157.5 -65q-37 0 -70 10q-49 16 -88 55q-32 32 -48 71zM882 601v-601h-136
v1864h666v-136h-530v-991h275v-136h-275z" />
    <glyph glyph-name="afii61289" unicode="&#x2113;" horiz-adv-x="506" 
d="M431 0q-93 3 -169 64q-108 76 -112 225v1575h138v-1528q0 -123 61 -163q38 -30 82 -33v-140z" />
    <glyph glyph-name="uni2114" unicode="&#x2114;" horiz-adv-x="1833" 
d="M878 250q121 -121 294 -121q171 0 293 121.5t122 293.5t-122 293.5t-293 121.5q-173 0 -294 -122q-85 -85 -111 -194v-199q26 -109 111 -194zM288 1454v-1118q0 -123 61 -163q38 -30 82 -33v-140q-93 3 -169 64q-108 76 -112 225v1165h-100v130h100v280h138v-280h343v280
h136v-280h413v-130h-413v-547l20 22q160 159 385 159t384.5 -159.5t159.5 -384.5t-159.5 -384.5t-384.5 -159.5t-385 159l-20 22v-181h-136v1454h-343z" />
    <glyph glyph-name="afii61352" unicode="&#x2116;" horiz-adv-x="2062" 
d="M963 406v1458h136v-1965l-888 1538v-1437h-136v1944zM1584 1730q-114 0 -195 -81t-81 -193q0 -117 81 -197t195 -80q115 0 196 80t81 197q0 112 -81 193t-196 81zM1960 1603q27 -68 27 -148q0 -167 -118 -285t-284 -118q-167 0 -285 118t-118 285q0 166 118 284t285 118
q68 0 128 -19q86 -29 157 -98q61 -62 90 -137zM1585 925q29 0 56 -14.5t42.5 -42t15.5 -57.5t-15 -57t-42 -42t-57 -15t-57 15t-42 42t-15 57t15.5 57.5t42.5 42t56 14.5z" />
    <glyph glyph-name="uni2117" unicode="&#x2117;" horiz-adv-x="1473" 
d="M741 532v1q105 2 164 56q57 54 57 133q0 78 -60 134q-53 49 -124 53h-210v-377h173zM568 140q79 -26 168 -26q223 0 380 157t157 379q0 221 -157 378.5t-380 157.5q-221 0 -378.5 -157.5t-157.5 -378.5q0 -222 158 -379q45 -45 96 -78v813h351v-2q95 -4 180 -83
q90 -83 90 -199q0 -117 -92 -202q-83 -77 -178 -81v-3h-237v-296zM1398 650q0 -274 -193.5 -468t-467.5 -194q-273 0 -467.5 194t-194.5 468q0 273 194.5 467.5t467.5 194.5q274 0 467.5 -194.5t193.5 -467.5z" />
    <glyph glyph-name="prescription" unicode="&#x211e;" horiz-adv-x="1956" 
d="M705 736v3q200 3 342 145q145 145 145 350q0 204 -145 350q-133 133 -316 144h-520v-992h494zM1881 607l-476 -824l215 -372h-157l-136 235l-136 -235h-158l215 372l-477 826q-20 -2 -39 -3v-5h-521v-601h-136v1864h657v-2q238 -12 409 -183q184 -185 184 -445
q0 -261 -184 -445q-101 -101 -226 -147l370 -642h-5l47 -81l397 688h157z" />
    <glyph glyph-name="uni2120" unicode="&#x2120;" horiz-adv-x="1438" 
d="M469 1728q-53 48 -78 48h-3q-28 -1 -49.5 -22t-21.5 -53q0 -14 11 -63l79 -301q12 -54 13 -74q-1 -80 -63.5 -141.5t-153.5 -64.5h-8q-86 0 -174 81l99 97q53 -50 78 -50h3q28 2 49.5 23t21.5 53q0 12 -10 59q-92 329 -92 379q0 80 62.5 141t153.5 65h8q86 0 175 -81z
M609 1870h14l356 -357l356 357v-788h-138v449l-220 -219l-228 225v-455h-140v788z" />
    <glyph glyph-name="uni2121" unicode="&#x2121;" horiz-adv-x="1318" 
d="M334 1742v-1036h-140v1036h-173v122h486v-122h-173zM907 1484v-94h-381v-353h118v-93h-118v-145h381v-93h-491v778h491zM1070 799h227v-93h-338v778h111v-685z" />
    <glyph glyph-name="estimated" unicode="&#x212e;" horiz-adv-x="2194" 
d="M551 1004h1092v582q-232 199 -547 199q-313 0 -545 -200v-581zM551 868v-582q232 -199 545 -199q353 0 602 249q172 172 225 392h151q-56 -281 -272 -497q-292 -292 -705 -292q-411 0 -704 292t-293 705q0 412 293 704.5t704 292.5q413 0 705 -292.5t292 -704.5
q0 -36 -2 -68h-1541z" />
    <glyph glyph-name="onethird" unicode="&#x2153;" horiz-adv-x="1951" 
d="M334 1222h-109l249 396v-1038h-140v642zM1554 1885l148 -31l-1206 -1892l-147 30zM1360 655l93 148h-170v122h406l-175 -279q64 -17 136 -83q110 -102 110 -245t-111 -245.5t-271 -102.5q-154 0 -265 98l-3 3q-37 34 -68 80l101 93q31 -58 54 -81l7 -7q74 -68 174 -68
q101 0 173.5 66.5t72.5 163.5q0 96 -73 165q-53 48 -122 61q-24 4 -51 4q-21 0 -90 -9z" />
    <glyph glyph-name="twothirds" unicode="&#x2154;" horiz-adv-x="1951" 
d="M537 1074l-246 -394h354v-122h-590l338 541q65 114 65 137v14q0 51 -40 88q-46 42 -108 42t-109 -43q-8 -7 -34 -41l-95 88q21 23 35 36q83 76 203 76q49 0 92 -13q63 -19 113 -64q44 -41 64 -90q3 -7 6 -15q13 -37 13 -80q-7 -83 -61 -160zM1554 1885l148 -31
l-1206 -1892l-147 30zM1360 655l93 148h-170v122h406l-175 -279q64 -17 136 -83q110 -102 110 -245t-111 -245.5t-271 -102.5q-154 0 -265 98l-3 3q-37 34 -68 80l101 93q31 -58 54 -81l7 -7q74 -68 174 -68q101 0 173.5 66.5t72.5 163.5q0 96 -73 165q-53 48 -122 61
q-24 4 -51 4q-21 0 -90 -9z" />
    <glyph glyph-name="oneeighth" unicode="&#x215b;" horiz-adv-x="1951" 
d="M334 1222h-109l249 396v-1038h-140v642zM1554 1885l148 -31l-1206 -1892l-147 30zM1401 792q-62 0 -107.5 -42t-45.5 -103q0 -63 45.5 -104.5t107.5 -41.5q63 0 108.5 41.5t45.5 104.5q0 61 -45.5 103t-108.5 42zM1401 377q-62 0 -107.5 -42t-45.5 -102
q0 -63 45.5 -104.5t107.5 -41.5q63 0 108.5 41.5t45.5 104.5q0 60 -45.5 102t-108.5 42zM1223 439q-1 1 -24 22q-85 79 -85 186q0 106 84 183.5t204 77.5q49 0 92 -13q62 -19 113 -64q43 -41 63 -90q19 -43 19 -94q0 -107 -85 -186q-23 -21 -23 -22l26 -23q43 -41 63 -89
q19 -44 19 -95q0 -107 -83.5 -184.5t-203.5 -77.5t-204 77.5t-84 184.5t85 185q23 22 24 22z" />
    <glyph glyph-name="threeeighths" unicode="&#x215c;" horiz-adv-x="1951" 
d="M308 1226l93 148h-170v122h406l-175 -279q64 -17 136 -83q110 -102 110 -245t-111 -245.5t-271 -102.5q-154 0 -265 98l-3 3q-37 34 -68 80l101 93q31 -58 54 -81l7 -7q74 -68 174 -68q101 0 173.5 66.5t72.5 163.5q0 96 -73 165q-53 48 -122 61q-24 4 -51 4
q-21 0 -90 -9zM1554 1885l148 -31l-1206 -1892l-147 30zM1401 792q-62 0 -107.5 -42t-45.5 -103q0 -63 45.5 -104.5t107.5 -41.5q63 0 108.5 41.5t45.5 104.5q0 61 -45.5 103t-108.5 42zM1401 377q-62 0 -107.5 -42t-45.5 -102q0 -63 45.5 -104.5t107.5 -41.5
q63 0 108.5 41.5t45.5 104.5q0 60 -45.5 102t-108.5 42zM1223 439q-1 1 -24 22q-85 79 -85 186q0 106 84 183.5t204 77.5q49 0 92 -13q62 -19 113 -64q43 -41 63 -90q19 -43 19 -94q0 -107 -85 -186q-23 -21 -23 -22l26 -23q43 -41 63 -89q19 -44 19 -95
q0 -107 -83.5 -184.5t-203.5 -77.5t-204 77.5t-84 184.5t85 185q23 22 24 22z" />
    <glyph glyph-name="fiveeighths" unicode="&#x215d;" horiz-adv-x="1951" 
d="M297 1496h286v-122h-197l-83 -134l-4 -1q0 -2 29 -2q159 0 270 -102.5t111 -245.5t-111 -245.5t-270 -102.5t-269 101q-37 35 -69 83l104 87q33 -60 60 -85q73 -68 174 -68t173.5 66.5t72.5 163.5q0 96 -72.5 163t-173.5 67q-62 0 -130 -33l-100 84zM1554 1885l148 -31
l-1206 -1892l-147 30zM1401 792q-62 0 -107.5 -42t-45.5 -103q0 -63 45.5 -104.5t107.5 -41.5q63 0 108.5 41.5t45.5 104.5q0 61 -45.5 103t-108.5 42zM1401 377q-62 0 -107.5 -42t-45.5 -102q0 -63 45.5 -104.5t107.5 -41.5q63 0 108.5 41.5t45.5 104.5q0 60 -45.5 102
t-108.5 42zM1223 439q-1 1 -24 22q-85 79 -85 186q0 106 84 183.5t204 77.5q49 0 92 -13q62 -19 113 -64q43 -41 63 -90q19 -43 19 -94q0 -107 -85 -186q-23 -21 -23 -22l26 -23q43 -41 63 -89q19 -44 19 -95q0 -107 -83.5 -184.5t-203.5 -77.5t-204 77.5t-84 184.5t85 185
q23 22 24 22z" />
    <glyph glyph-name="seveneighths" unicode="&#x215e;" horiz-adv-x="1951" 
d="M687 1374h-345v122h581l-586 -938h-160zM1554 1885l148 -31l-1206 -1892l-147 30zM1501 792q-62 0 -107.5 -42t-45.5 -103q0 -63 45.5 -104.5t107.5 -41.5q63 0 108.5 41.5t45.5 104.5q0 61 -45.5 103t-108.5 42zM1501 377q-62 0 -107.5 -42t-45.5 -102
q0 -63 45.5 -104.5t107.5 -41.5q63 0 108.5 41.5t45.5 104.5q0 60 -45.5 102t-108.5 42zM1323 439q-1 1 -24 22q-85 79 -85 186q0 106 84 183.5t204 77.5q49 0 92 -13q62 -19 113 -64q43 -41 63 -90q19 -43 19 -94q0 -107 -85 -186q-23 -21 -23 -22l26 -23q43 -41 63 -89
q19 -44 19 -95q0 -107 -83.5 -184.5t-203.5 -77.5t-204 77.5t-84 184.5t85 185q23 22 24 22z" />
    <glyph glyph-name="minus" unicode="&#x2212;" horiz-adv-x="1105" 
d="M1030 799v-130h-955v130h955z" />
    <glyph glyph-name="equivalence" unicode="&#x2261;" horiz-adv-x="1310" 
d="M1132 799v-130h-955v130h955zM1132 539v-130h-955v130h955zM1132 1059v-130h-955v130h955z" />
    <glyph glyph-name="uniE2C0" unicode="&#xe2c0;" horiz-adv-x="1310" 
d="M655 1186q-221 0 -378.5 -157.5t-157.5 -378.5q0 -222 157.5 -379t378.5 -157q223 0 380 157t157 379q0 221 -157 378.5t-380 157.5zM1316 650q0 -274 -193.5 -468t-467.5 -194q-273 0 -467.5 194t-194.5 468q0 273 194.5 467.5t467.5 194.5q274 0 467.5 -194.5
t193.5 -467.5z" />
    <glyph glyph-name="uniE2C1" unicode="&#xe2c1;" horiz-adv-x="1310" 
d="M659 960h-144l280 481v-1441h-136v960z" />
    <glyph glyph-name="uniE2C2" unicode="&#xe2c2;" horiz-adv-x="1310" 
d="M982 760l-457 -624h508v-136h-794l646 854q50 118 50 161q1 12 1 24q0 97 -72 169q-82 81 -196 81t-195 -81q-17 -17 -30 -35l-91 91q14 17 31 34q118 118 285 118q68 0 128 -19q87 -29 157 -98q62 -62 90 -137q5 -12 9 -24q19 -58 19 -124q-10 -131 -89 -254z" />
    <glyph glyph-name="uniE2C3" unicode="&#xe2c3;" horiz-adv-x="1310" 
d="M233 35q23 -43 58 -81q8 -9 16 -17q122 -122 295 -122t295.5 122t122.5 295q0 172 -122 295q-91 90 -210 114q-41 8 -86 8q-36 0 -70 -5l78 135l160 275h-285v136h521l-250 -432q130 -36 233 -139q160 -161 160 -387q0 -227 -160 -387t-387 -160q-220 0 -378 152l-8 8
q-31 31 -56 63z" />
    <glyph glyph-name="uniE2C4" unicode="&#xe2c4;" horiz-adv-x="1310" 
d="M794 10h-574l710 1231v-1095h159v-136h-159v-210h-136v210zM794 732l-338 -586h338v586z" />
    <glyph glyph-name="uniE2C5" unicode="&#xe2c5;" horiz-adv-x="1310" 
d="M595 1190h374v-136h-287l-176 -306q53 11 111 11q227 0 387 -160.5t160 -386.5q0 -227 -160 -387t-387 -160q-226 0 -386 160q-51 51 -86 108l99 90q29 -57 78 -106q122 -122 295 -122t295.5 122t122.5 295q0 172 -122.5 294.5t-295.5 122.5q-107 0 -193 -46l-113 103z
" />
    <glyph glyph-name="uniE2C6" unicode="&#xe2c6;" horiz-adv-x="1310" 
d="M455 593l-30 -35q-47 -68 -47 -157q0 -112 81.5 -193t195.5 -81t195.5 81t81.5 193q0 117 -81.5 197t-195.5 80t-195 -80q-3 -2 -5 -5zM316 621l-2 1l506 874h156l-404 -699q40 8 83 8q167 0 285 -118t118 -285q0 -166 -118 -284t-285 -118q-68 0 -128 19q-87 29 -157 98
q-62 62 -90 137q-28 68 -28 148q0 123 64 219z" />
    <glyph glyph-name="uniE2C7" unicode="&#xe2c7;" horiz-adv-x="1310" 
d="M883 1054h-555v136h791l-770 -1329h-158z" />
    <glyph glyph-name="uniE2C8" unicode="&#xe2c8;" horiz-adv-x="1310" 
d="M655 1238q-56 0 -96 -39.5t-40 -94.5q0 -58 40 -97.5t96 -39.5t96 39.5t40 97.5q0 55 -40 94.5t-96 39.5zM655 839q-151 0 -259 -108t-108 -259q0 -152 108 -259.5t259 -107.5q152 0 259.5 107.5t107.5 259.5q0 151 -107.5 259t-259.5 108zM458 927q-67 75 -67 176
q0 109 77.5 186.5t186.5 77.5q45 0 84 -12q57 -19 103 -65q40 -40 59 -90q18 -44 18 -97q0 -101 -67 -175q83 -37 153 -106q145 -146 145 -350q0 -205 -145 -350t-350 -145q-204 0 -349.5 145t-145.5 350q0 204 146 350q69 69 152 105z" />
    <glyph glyph-name="uniE2C9" unicode="&#xe2c9;" horiz-adv-x="1310" 
d="M855 764l30 35q47 68 47 157q0 112 -81.5 193t-195.5 81t-195.5 -81t-81.5 -193q0 -117 81.5 -197t195.5 -80t196 80q2 2 4 5zM994 736l2 -1l-506 -874h-156l404 699q-40 -8 -83 -8q-167 0 -285 118t-118 285q0 166 118 284t285 118q68 0 128 -19q87 -29 157 -98
q62 -62 90 -137q28 -68 28 -148q0 -123 -64 -219z" />
    <glyph glyph-name="uniEEC5" unicode="&#xeec5;" horiz-adv-x="2012" 
d="M1098 491q1 2 1 5v240h416v1128h138v-1128h180v-135h-180v-305q0 -83 46 -123q43 -34 95 -34q9 0 19 1q54 6 91 43l108 -84q-32 -45 -93 -73q-42 -19 -91 -24q-19 -2 -37 -2q-99 0 -179 64q-95 76 -97 225v312h-276v-105q-16 -202 -162 -348q-162 -163 -394 -163
q-231 0 -394.5 163t-163.5 393q0 229 163.5 392.5t394.5 163.5q109 0 207 -38l-96 -113q-55 14 -111 14q-171 0 -294 -123t-123 -296q0 -174 123 -296.5t294 -122.5q172 0 295 123q102 101 120 244v2z" />
    <glyph glyph-name="uniEEC8" unicode="&#xeec8;" horiz-adv-x="1960" 
d="M324 1569v-833h180v-135h-180v-601h-138v601h-86v135h86v840q0 149 112 225q80 64 179 64q18 0 37 -2q49 -5 91 -24q61 -28 93 -73l-108 -74q-37 37 -91 43q-10 1 -19 1q-52 0 -95 -34q-61 -50 -61 -133zM1654 444v199q-26 109 -111 194q-121 122 -294 122
q-171 0 -293 -121.5t-122 -293.5t122 -293.5t293 -121.5q173 0 294 121q85 85 111 194zM1654 907v165h136v-1072h-136v181l-20 -22q-160 -159 -385 -159t-384.5 159.5t-159.5 384.5t159.5 384.5t384.5 159.5t385 -159zM1048 1412q29 0 56 -14.5t42.5 -42t15.5 -57.5t-15 -57
t-42 -42t-57 -15t-57 15t-42 42t-15 57t15.5 57.5t42.5 42t56 14.5zM1448 1412q29 0 56 -14.5t42.5 -42t15.5 -57.5t-15 -57t-42 -42t-57 -15t-57 15t-42 42t-15 57t15.5 57.5t42.5 42t56 14.5z" />
    <glyph glyph-name="uniEEC9" unicode="&#xeec9;" horiz-adv-x="1010" 
d="M796 1076q29 0 56 -14.5t42.5 -42t15.5 -57.5t-15 -57t-42 -42t-57 -15t-57 15t-42 42t-15 57t15.5 57.5t42.5 42t56 14.5zM724 601h-400v-601h-138v601h-86v135h86v840q0 149 112 225q80 64 179 64q18 0 37 -2q49 -5 91 -24q61 -28 93 -73l-108 -74q-37 37 -91 43
q-10 1 -19 1q-52 0 -95 -34q-61 -50 -61 -133v-833h538v-1141q-17 -172 -137 -267q-107 -85 -241 -85q-18 0 -37 2q-65 5 -120 30q-60 25 -117 81l100 86q66 -61 149 -69q11 -1 22 -1q86 0 156 57q78 64 87 184v988z" />
    </font>
</defs>
</svg>
